Karantina-Light.ufo
<glyph name="exclam" format="2">
  <advance width="93"/>
  <unicode hex="0021"/>
  <note>
exclam
</note>
  <outline>
    <contour>
      <point x="20" y="53" type="line"/>
      <point x="20" y="0" type="line"/>
      <point x="73" y="0" type="line"/>
      <point x="73" y="53" type="line"/>
    </contour>
    <contour>
      <point x="20" y="600" type="line"/>
      <point x="20" y="78" type="line"/>
      <point x="73" y="78" type="line"/>
      <point x="73" y="600" type="line"/>
    </contour>
  </outline>
</glyph>
<glyph name="quotedbl" format="2">
  <advance width="140"/>
  <unicode hex="0022"/>
  <note>
quotedbl
</note>
  <outline>
    <contour>
      <point x="32" y="657" type="line"/>
      <point x="0" y="504" type="line"/>
      <point x="40" y="504" type="line"/>
      <point x="72" y="657" type="line"/>
    </contour>
    <contour>
      <point x="100" y="657" type="line"/>
      <point x="68" y="504" type="line"/>
      <point x="108" y="504" type="line"/>
      <point x="140" y="657" type="line"/>
    </contour>
  </outline>
</glyph>
<glyph name="numbersign" format="2">
  <advance width="430"/>
  <unicode hex="0023"/>
  <note>
numbersign
</note>
  <outline>
    <contour>
      <point x="20" y="173" type="line"/>
      <point x="390" y="173" type="line"/>
      <point x="390" y="226" type="line"/>
      <point x="20" y="226" type="line"/>
    </contour>
    <contour>
      <point x="40" y="361" type="line"/>
      <point x="410" y="361" type="line"/>
      <point x="410" y="414" type="line"/>
      <point x="40" y="414" type="line"/>
    </contour>
    <contour>
      <point x="104" y="0" type="line"/>
      <point x="156" y="0" type="line"/>
      <point x="196" y="600" type="line"/>
      <point x="143" y="600" type="line"/>
    </contour>
    <contour>
      <point x="244" y="0" type="line"/>
      <point x="296" y="0" type="line"/>
      <point x="336" y="600" type="line"/>
      <point x="283" y="600" type="line"/>
    </contour>
  </outline>
</glyph>
<glyph name="dollar" format="2">
  <advance width="282"/>
  <unicode hex="0024"/>
  <note>
dollar
</note>
  <outline>
    <contour>
      <point x="117" y="640" type="line"/>
      <point x="117" y="547" type="line"/>
      <point x="170" y="547" type="line"/>
      <point x="170" y="640" type="line"/>
    </contour>
    <contour>
      <point x="117" y="-40" type="line"/>
      <point x="170" y="-40" type="line"/>
      <point x="170" y="53" type="line"/>
      <point x="117" y="53" type="line"/>
    </contour>
    <contour>
      <point x="257" y="600" type="line"/>
      <point x="125" y="600" type="line" smooth="yes"/>
      <point x="59" y="600"/>
      <point x="20" y="561"/>
      <point x="20" y="496" type="curve" smooth="yes"/>
      <point x="20" y="394" type="line" smooth="yes"/>
      <point x="20" y="329"/>
      <point x="56" y="290"/>
      <point x="117" y="290" type="curve" smooth="yes"/>
      <point x="157" y="290" type="line" smooth="yes"/>
      <point x="190" y="290"/>
      <point x="209" y="271"/>
      <point x="209" y="239" type="curve" smooth="yes"/>
      <point x="209" y="104" type="line" smooth="yes"/>
      <point x="209" y="72"/>
      <point x="190" y="53"/>
      <point x="157" y="53" type="curve" smooth="yes"/>
      <point x="83" y="53" type="line" smooth="yes"/>
      <point x="79" y="53"/>
      <point x="78" y="54"/>
      <point x="78" y="58" type="curve" smooth="yes"/>
      <point x="78" y="211" type="line"/>
      <point x="25" y="211" type="line"/>
      <point x="25" y="0" type="line"/>
      <point x="157" y="0" type="line" smooth="yes"/>
      <point x="223" y="0"/>
      <point x="262" y="39"/>
      <point x="262" y="104" type="curve" smooth="yes"/>
      <point x="262" y="239" type="line" smooth="yes"/>
      <point x="262" y="301"/>
      <point x="226" y="343"/>
      <point x="165" y="343" type="curve" smooth="yes"/>
      <point x="125" y="343" type="line" smooth="yes"/>
      <point x="92" y="343"/>
      <point x="73" y="362"/>
      <point x="73" y="394" type="curve" smooth="yes"/>
      <point x="73" y="496" type="line" smooth="yes"/>
      <point x="73" y="528"/>
      <point x="92" y="547"/>
      <point x="125" y="547" type="curve" smooth="yes"/>
      <point x="199" y="547" type="line" smooth="yes"/>
      <point x="203" y="547"/>
      <point x="204" y="546"/>
      <point x="204" y="542" type="curve" smooth="yes"/>
      <point x="204" y="420" type="line"/>
      <point x="257" y="420" type="line"/>
    </contour>
  </outline>
</glyph>
<glyph name="percent" format="2">
  <advance width="440"/>
  <unicode hex="0025"/>
  <note>
percent
</note>
  <outline>
    <contour>
      <point x="20" y="0" type="line"/>
      <point x="83" y="0" type="line"/>
      <point x="420" y="600" type="line"/>
      <point x="356" y="600" type="line"/>
    </contour>
    <contour>
      <point x="420" y="133" type="line" smooth="yes"/>
      <point x="420" y="215"/>
      <point x="402" y="236"/>
      <point x="330" y="237" type="curve" smooth="yes"/>
      <point x="324" y="237" type="line" smooth="yes"/>
      <point x="251" y="236"/>
      <point x="233" y="215"/>
      <point x="233" y="133" type="curve" smooth="yes"/>
      <point x="233" y="104" type="line" smooth="yes"/>
      <point x="233" y="21"/>
      <point x="251" y="0"/>
      <point x="323" y="0" type="curve" smooth="yes"/>
      <point x="330" y="0" type="line" smooth="yes"/>
      <point x="402" y="0"/>
      <point x="420" y="21"/>
      <point x="420" y="104" type="curve" smooth="yes"/>
    </contour>
    <contour>
      <point x="326" y="53" type="line" smooth="yes"/>
      <point x="294" y="53"/>
      <point x="286" y="63"/>
      <point x="286" y="104" type="curve" smooth="yes"/>
      <point x="286" y="133" type="line" smooth="yes"/>
      <point x="286" y="174"/>
      <point x="294" y="184"/>
      <point x="325" y="184" type="curve" smooth="yes"/>
      <point x="327" y="184" type="line" smooth="yes"/>
      <point x="359" y="184"/>
      <point x="367" y="174"/>
      <point x="367" y="133" type="curve" smooth="yes"/>
      <point x="367" y="104" type="line" smooth="yes"/>
      <point x="367" y="63"/>
      <point x="359" y="53"/>
      <point x="328" y="53" type="curve" smooth="yes"/>
    </contour>
    <contour>
      <point x="207" y="501" type="line" smooth="yes"/>
      <point x="207" y="583"/>
      <point x="189" y="604"/>
      <point x="117" y="605" type="curve" smooth="yes"/>
      <point x="111" y="605" type="line" smooth="yes"/>
      <point x="38" y="604"/>
      <point x="20" y="583"/>
      <point x="20" y="501" type="curve" smooth="yes"/>
      <point x="20" y="472" type="line" smooth="yes"/>
      <point x="20" y="389"/>
      <point x="38" y="368"/>
      <point x="110" y="368" type="curve" smooth="yes"/>
      <point x="117" y="368" type="line" smooth="yes"/>
      <point x="189" y="368"/>
      <point x="207" y="389"/>
      <point x="207" y="472" type="curve" smooth="yes"/>
    </contour>
    <contour>
      <point x="113" y="421" type="line" smooth="yes"/>
      <point x="81" y="421"/>
      <point x="73" y="431"/>
      <point x="73" y="472" type="curve" smooth="yes"/>
      <point x="73" y="501" type="line" smooth="yes"/>
      <point x="73" y="542"/>
      <point x="81" y="552"/>
      <point x="112" y="552" type="curve" smooth="yes"/>
      <point x="114" y="552" type="line" smooth="yes"/>
      <point x="146" y="552"/>
      <point x="154" y="542"/>
      <point x="154" y="501" type="curve" smooth="yes"/>
      <point x="154" y="472" type="line" smooth="yes"/>
      <point x="154" y="431"/>
      <point x="146" y="421"/>
      <point x="115" y="421" type="curve"/>
    </contour>
  </outline>
</glyph>
<glyph name="ampersand" format="2">
  <advance width="287"/>
  <unicode hex="0026"/>
  <outline>
    <contour>
      <point x="263" y="319" type="line"/>
      <point x="210" y="319" type="line"/>
      <point x="170" y="104" type="line" smooth="yes"/>
      <point x="164" y="72"/>
      <point x="153" y="53"/>
      <point x="122" y="53" type="curve" smooth="yes"/>
      <point x="120" y="53" type="line" smooth="yes"/>
      <point x="89" y="53"/>
      <point x="73" y="72"/>
      <point x="73" y="104" type="curve" smooth="yes"/>
      <point x="73" y="247" type="line" smooth="yes"/>
      <point x="73" y="274"/>
      <point x="78" y="286"/>
      <point x="92" y="293" type="curve" smooth="yes"/>
      <point x="94" y="294" type="line"/>
      <point x="94" y="348" type="line"/>
      <point x="92" y="347" type="line"/>
      <point x="45" y="330"/>
      <point x="20" y="304"/>
      <point x="20" y="247" type="curve" smooth="yes"/>
      <point x="20" y="104" type="line" smooth="yes"/>
      <point x="20" y="36"/>
      <point x="53" y="0"/>
      <point x="117" y="0" type="curve" smooth="yes"/>
      <point x="125" y="0" type="line" smooth="yes"/>
      <point x="189" y="0"/>
      <point x="223" y="36"/>
      <point x="223" y="104" type="curve"/>
    </contour>
    <contour>
      <point x="208" y="363" type="line"/>
      <point x="208" y="496" type="line" smooth="yes"/>
      <point x="208" y="564"/>
      <point x="174" y="600"/>
      <point x="120" y="600" type="curve" smooth="yes"/>
      <point x="112" y="600" type="line" smooth="yes"/>
      <point x="58" y="600"/>
      <point x="25" y="564"/>
      <point x="25" y="496" type="curve" smooth="yes"/>
      <point x="25" y="424" type="line" smooth="yes"/>
      <point x="25" y="413"/>
      <point x="28" y="398"/>
      <point x="33" y="387" type="curve" smooth="yes"/>
      <point x="92" y="261"/>
      <point x="160" y="126"/>
      <point x="219" y="0" type="curve"/>
      <point x="272" y="0" type="line"/>
      <point x="78" y="405" type="line"/>
      <point x="78" y="496" type="line" smooth="yes"/>
      <point x="78" y="529"/>
      <point x="94" y="547"/>
      <point x="115" y="547" type="curve" smooth="yes"/>
      <point x="117" y="547" type="line" smooth="yes"/>
      <point x="138" y="547"/>
      <point x="155" y="529"/>
      <point x="155" y="496" type="curve" smooth="yes"/>
      <point x="155" y="363" type="line"/>
    </contour>
  </outline>
</glyph>
<glyph name="quotesingle" format="2">
  <advance width="72"/>
  <unicode hex="0027"/>
  <note>
quotesingle
</note>
  <outline>
    <contour>
      <point x="32" y="657" type="line"/>
      <point x="0" y="504" type="line"/>
      <point x="40" y="504" type="line"/>
      <point x="72" y="657" type="line"/>
    </contour>
  </outline>
</glyph>
<glyph name="parenleft" format="2">
  <advance width="125"/>
  <unicode hex="0028"/>
  <note>
parenleft
</note>
  <outline>
    <contour>
      <point x="125" y="693" type="line"/>
      <point x="121" y="693" type="line" smooth="yes"/>
      <point x="60" y="693"/>
      <point x="20" y="654"/>
      <point x="20" y="600" type="curve" smooth="yes"/>
      <point x="20" y="302" type="line"/>
      <point x="73" y="302" type="line"/>
      <point x="73" y="610" type="line" smooth="yes"/>
      <point x="73" y="634"/>
      <point x="79" y="640"/>
      <point x="103" y="640" type="curve" smooth="yes"/>
      <point x="125" y="640" type="line"/>
    </contour>
    <contour>
      <point x="125" y="-37" type="line"/>
      <point x="103" y="-37" type="line" smooth="yes"/>
      <point x="79" y="-37"/>
      <point x="73" y="-31"/>
      <point x="73" y="-7" type="curve" smooth="yes"/>
      <point x="73" y="302" type="line"/>
      <point x="20" y="302" type="line"/>
      <point x="20" y="3" type="line" smooth="yes"/>
      <point x="20" y="-51"/>
      <point x="60" y="-90"/>
      <point x="121" y="-90" type="curve" smooth="yes"/>
      <point x="125" y="-90" type="line"/>
    </contour>
  </outline>
</glyph>
<glyph name="parenright" format="2">
  <advance width="125"/>
  <unicode hex="0029"/>
  <note>
parenright
</note>
  <outline>
    <contour>
      <point x="20" y="693" type="line"/>
      <point x="20" y="640" type="line"/>
      <point x="42" y="640" type="line" smooth="yes"/>
      <point x="66" y="640"/>
      <point x="72" y="634"/>
      <point x="72" y="610" type="curve" smooth="yes"/>
      <point x="72" y="302" type="line"/>
      <point x="125" y="302" type="line"/>
      <point x="125" y="600" type="line" smooth="yes"/>
      <point x="125" y="654"/>
      <point x="85" y="693"/>
      <point x="24" y="693" type="curve" smooth="yes"/>
    </contour>
    <contour>
      <point x="20" y="-37" type="line"/>
      <point x="20" y="-90" type="line"/>
      <point x="24" y="-90" type="line" smooth="yes"/>
      <point x="85" y="-90"/>
      <point x="125" y="-51"/>
      <point x="125" y="3" type="curve" smooth="yes"/>
      <point x="125" y="302" type="line"/>
      <point x="72" y="302" type="line"/>
      <point x="72" y="-7" type="line" smooth="yes"/>
      <point x="72" y="-31"/>
      <point x="66" y="-37"/>
      <point x="42" y="-37" type="curve" smooth="yes"/>
    </contour>
  </outline>
</glyph>
<glyph name="asterisk" format="2">
  <advance width="273"/>
  <unicode hex="002A"/>
  <note>
asterisk
</note>
  <outline>
    <contour>
      <point x="118" y="600" type="line"/>
      <point x="119" y="351" type="line"/>
      <point x="155" y="351" type="line"/>
      <point x="154" y="600" type="line"/>
    </contour>
    <contour>
      <point x="235" y="554" type="line"/>
      <point x="20" y="428" type="line"/>
      <point x="38" y="397" type="line"/>
      <point x="253" y="523" type="line"/>
    </contour>
    <contour>
      <point x="38" y="554" type="line"/>
      <point x="20" y="523" type="line"/>
      <point x="235" y="397" type="line"/>
      <point x="253" y="428" type="line"/>
    </contour>
  </outline>
</glyph>
<glyph name="plus" format="2">
  <advance width="300"/>
  <unicode hex="002B"/>
  <note>
plus
</note>
  <outline>
    <contour>
      <point x="290" y="328" type="line"/>
      <point x="10" y="328" type="line"/>
      <point x="10" y="275" type="line"/>
      <point x="290" y="275" type="line"/>
    </contour>
    <contour>
      <point x="177" y="181" type="line"/>
      <point x="177" y="421" type="line"/>
      <point x="124" y="421" type="line"/>
      <point x="124" y="181" type="line"/>
    </contour>
  </outline>
</glyph>
<glyph name="hyphen" format="2">
  <advance width="210"/>
  <unicode hex="002D"/>
  <note>
hyphen
</note>
  <outline>
    <contour>
      <point x="20" y="274" type="line"/>
      <point x="190" y="274" type="line"/>
      <point x="190" y="327" type="line"/>
      <point x="20" y="327" type="line"/>
    </contour>
  </outline>
</glyph>
<glyph name="period" format="2">
  <advance width="93"/>
  <unicode hex="002E"/>
  <note>
period
</note>
  <outline>
    <contour>
      <point x="20" y="53" type="line"/>
      <point x="20" y="0" type="line"/>
      <point x="73" y="0" type="line"/>
      <point x="73" y="53" type="line"/>
    </contour>
  </outline>
</glyph>
<glyph name="zero" format="2">
  <advance width="276"/>
  <unicode hex="0030"/>
  <note>
zero
</note>
  <outline>
    <contour>
      <point x="151" y="604" type="curve" smooth="yes"/>
      <point x="125" y="604" type="line" smooth="yes"/>
      <point x="56" y="604"/>
      <point x="20" y="568"/>
      <point x="20" y="500" type="curve" smooth="yes"/>
      <point x="20" y="104" type="line" smooth="yes"/>
      <point x="20" y="36"/>
      <point x="56" y="0"/>
      <point x="125" y="0" type="curve" smooth="yes"/>
      <point x="151" y="0" type="line" smooth="yes"/>
      <point x="220" y="0"/>
      <point x="256" y="36"/>
      <point x="256" y="104" type="curve" smooth="yes"/>
      <point x="256" y="500" type="line" smooth="yes"/>
      <point x="256" y="568"/>
      <point x="220" y="604"/>
    </contour>
    <contour>
      <point x="73" y="104" type="curve" smooth="yes"/>
      <point x="73" y="500" type="line" smooth="yes"/>
      <point x="73" y="541"/>
      <point x="83" y="551"/>
      <point x="125" y="551" type="curve" smooth="yes"/>
      <point x="151" y="551" type="line" smooth="yes"/>
      <point x="193" y="551"/>
      <point x="203" y="541"/>
      <point x="203" y="500" type="curve" smooth="yes"/>
      <point x="203" y="104" type="line" smooth="yes"/>
      <point x="203" y="63"/>
      <point x="193" y="53"/>
      <point x="151" y="53" type="curve" smooth="yes"/>
      <point x="125" y="53" type="line" smooth="yes"/>
      <point x="83" y="53"/>
      <point x="73" y="63"/>
    </contour>
  </outline>
</glyph>
<glyph name="one" format="2">
  <advance width="164"/>
  <unicode hex="0031"/>
  <note>
one
</note>
  <outline>
    <contour>
      <point x="60" y="600" type="line"/>
      <point x="60" y="0" type="line"/>
      <point x="113" y="0" type="line"/>
      <point x="113" y="600" type="line"/>
    </contour>
    <contour>
      <point x="144" y="53" type="line"/>
      <point x="28" y="53" type="line"/>
      <point x="28" y="0" type="line"/>
      <point x="144" y="0" type="line"/>
    </contour>
    <contour>
      <point x="113" y="600" type="line"/>
      <point x="36" y="600" type="line"/>
      <point x="20" y="547" type="line"/>
      <point x="113" y="547" type="line"/>
    </contour>
  </outline>
</glyph>
<glyph name="two" format="2">
  <advance width="277"/>
  <unicode hex="0032"/>
  <note>
two
</note>
  <outline>
    <contour>
      <point x="30" y="600" type="line"/>
      <point x="30" y="547" type="line"/>
      <point x="152" y="547" type="line" smooth="yes"/>
      <point x="194" y="547"/>
      <point x="204" y="537"/>
      <point x="204" y="496" type="curve" smooth="yes"/>
      <point x="204" y="428" type="line"/>
      <point x="257" y="428" type="line"/>
      <point x="257" y="496" type="line" smooth="yes"/>
      <point x="257" y="564"/>
      <point x="221" y="600"/>
      <point x="152" y="600" type="curve" smooth="yes"/>
    </contour>
    <contour>
      <point x="257" y="382" type="curve" smooth="yes"/>
      <point x="257" y="450" type="line"/>
      <point x="204" y="450" type="line"/>
      <point x="204" y="382" type="line" smooth="yes"/>
      <point x="204" y="341"/>
      <point x="194" y="331"/>
      <point x="152" y="331" type="curve" smooth="yes"/>
      <point x="137" y="331" type="line"/>
      <point x="137" y="278" type="line"/>
      <point x="152" y="278" type="line" smooth="yes"/>
      <point x="221" y="278"/>
      <point x="257" y="314"/>
    </contour>
    <contour>
      <point x="20" y="227" type="curve" smooth="yes"/>
      <point x="20" y="0" type="line"/>
      <point x="73" y="0" type="line"/>
      <point x="73" y="227" type="line" smooth="yes"/>
      <point x="73" y="268"/>
      <point x="83" y="278"/>
      <point x="125" y="278" type="curve" smooth="yes"/>
      <point x="137" y="278" type="line"/>
      <point x="137" y="331" type="line"/>
      <point x="125" y="331" type="line" smooth="yes"/>
      <point x="56" y="331"/>
      <point x="20" y="295"/>
    </contour>
    <contour>
      <point x="247" y="0" type="line"/>
      <point x="247" y="53" type="line"/>
      <point x="20" y="53" type="line"/>
      <point x="20" y="0" type="line"/>
    </contour>
  </outline>
</glyph>
<glyph name="three" format="2">
  <advance width="247"/>
  <unicode hex="0033"/>
  <note>
three
</note>
  <outline>
    <contour>
      <point x="227" y="327" type="line"/>
      <point x="50" y="327" type="line"/>
      <point x="50" y="274" type="line"/>
      <point x="227" y="274" type="line"/>
    </contour>
    <contour>
      <point x="20" y="600" type="line"/>
      <point x="20" y="547" type="line"/>
      <point x="122" y="547" type="line" smooth="yes"/>
      <point x="164" y="547"/>
      <point x="174" y="537"/>
      <point x="174" y="496" type="curve" smooth="yes"/>
      <point x="174" y="104" type="line" smooth="yes"/>
      <point x="174" y="63"/>
      <point x="164" y="53"/>
      <point x="122" y="53" type="curve" smooth="yes"/>
      <point x="20" y="53" type="line"/>
      <point x="20" y="0" type="line"/>
      <point x="122" y="0" type="line" smooth="yes"/>
      <point x="191" y="0"/>
      <point x="227" y="36"/>
      <point x="227" y="104" type="curve" smooth="yes"/>
      <point x="227" y="496" type="line" smooth="yes"/>
      <point x="227" y="564"/>
      <point x="191" y="600"/>
      <point x="122" y="600" type="curve" smooth="yes"/>
    </contour>
  </outline>
</glyph>
<glyph name="four" format="2">
  <advance width="294"/>
  <unicode hex="0034"/>
  <note>
four
</note>
  <outline>
    <contour>
      <point x="190" y="600" type="line"/>
      <point x="190" y="0" type="line"/>
      <point x="243" y="0" type="line"/>
      <point x="243" y="600" type="line"/>
    </contour>
    <contour>
      <point x="274" y="53" type="line"/>
      <point x="158" y="53" type="line"/>
      <point x="158" y="0" type="line"/>
      <point x="274" y="0" type="line"/>
    </contour>
    <contour>
      <point x="274" y="186" type="line"/>
      <point x="274" y="239" type="line"/>
      <point x="46" y="239" type="line"/>
      <point x="64" y="214" type="line"/>
      <point x="118" y="600" type="line"/>
      <point x="68" y="600" type="line"/>
      <point x="22" y="279" type="line" smooth="yes"/>
      <point x="14" y="224"/>
      <point x="31" y="186"/>
      <point x="91" y="186" type="curve" smooth="yes"/>
    </contour>
  </outline>
</glyph>
<glyph name="five" format="2">
  <advance width="247"/>
  <unicode hex="0035"/>
  <note>
five
</note>
  <outline>
    <contour>
      <point x="227" y="600" type="line"/>
      <point x="20" y="600" type="line"/>
      <point x="20" y="547" type="line"/>
      <point x="227" y="547" type="line"/>
    </contour>
    <contour>
      <point x="20" y="0" type="line"/>
      <point x="122" y="0" type="line" smooth="yes"/>
      <point x="191" y="0"/>
      <point x="227" y="36"/>
      <point x="227" y="104" type="curve" smooth="yes"/>
      <point x="227" y="221" type="line"/>
      <point x="174" y="221" type="line"/>
      <point x="174" y="104" type="line" smooth="yes"/>
      <point x="174" y="63"/>
      <point x="164" y="53"/>
      <point x="122" y="53" type="curve" smooth="yes"/>
      <point x="20" y="53" type="line"/>
    </contour>
    <contour>
      <point x="73" y="600" type="line"/>
      <point x="20" y="600" type="line"/>
      <point x="20" y="340" type="line"/>
      <point x="73" y="340" type="line"/>
    </contour>
    <contour>
      <point x="20" y="393" type="line"/>
      <point x="20" y="340" type="line"/>
      <point x="122" y="340" type="line" smooth="yes"/>
      <point x="164" y="340"/>
      <point x="174" y="330"/>
      <point x="174" y="289" type="curve" smooth="yes"/>
      <point x="174" y="172" type="line"/>
      <point x="227" y="172" type="line"/>
      <point x="227" y="289" type="line" smooth="yes"/>
      <point x="227" y="357"/>
      <point x="191" y="393"/>
      <point x="122" y="393" type="curve" smooth="yes"/>
    </contour>
  </outline>
</glyph>
<glyph name="six" format="2">
  <advance width="276"/>
  <unicode hex="0036"/>
  <note>
six
</note>
  <outline>
    <contour>
      <point x="126" y="0" type="line"/>
      <point x="126" y="53" type="line"/>
      <point x="125" y="53" type="line" smooth="yes"/>
      <point x="83" y="53"/>
      <point x="73" y="63"/>
      <point x="73" y="104" type="curve" smooth="yes"/>
      <point x="73" y="500" type="line" smooth="yes"/>
      <point x="73" y="541"/>
      <point x="83" y="551"/>
      <point x="125" y="551" type="curve" smooth="yes"/>
      <point x="126" y="551" type="line"/>
      <point x="126" y="604" type="line"/>
      <point x="125" y="604" type="line" smooth="yes"/>
      <point x="56" y="604"/>
      <point x="20" y="568"/>
      <point x="20" y="500" type="curve" smooth="yes"/>
      <point x="20" y="104" type="line" smooth="yes"/>
      <point x="20" y="36"/>
      <point x="56" y="0"/>
      <point x="125" y="0" type="curve" smooth="yes"/>
    </contour>
    <contour>
      <point x="126" y="0" type="line"/>
      <point x="151" y="0" type="line" smooth="yes"/>
      <point x="220" y="0"/>
      <point x="256" y="36"/>
      <point x="256" y="104" type="curve" smooth="yes"/>
      <point x="256" y="221" type="line"/>
      <point x="203" y="221" type="line"/>
      <point x="203" y="104" type="line" smooth="yes"/>
      <point x="203" y="63"/>
      <point x="193" y="53"/>
      <point x="151" y="53" type="curve" smooth="yes"/>
      <point x="126" y="53" type="line"/>
    </contour>
    <contour>
      <point x="126" y="377" type="line"/>
      <point x="126" y="324" type="line"/>
      <point x="151" y="324" type="line" smooth="yes"/>
      <point x="193" y="324"/>
      <point x="203" y="314"/>
      <point x="203" y="273" type="curve" smooth="yes"/>
      <point x="203" y="156" type="line"/>
      <point x="256" y="156" type="line"/>
      <point x="256" y="273" type="line" smooth="yes"/>
      <point x="256" y="341"/>
      <point x="220" y="377"/>
      <point x="151" y="377" type="curve" smooth="yes"/>
    </contour>
    <contour>
      <point x="256" y="416" type="line"/>
      <point x="256" y="500" type="line" smooth="yes"/>
      <point x="256" y="568"/>
      <point x="220" y="604"/>
      <point x="151" y="604" type="curve" smooth="yes"/>
      <point x="126" y="604" type="line"/>
      <point x="126" y="551" type="line"/>
      <point x="151" y="551" type="line" smooth="yes"/>
      <point x="193" y="551"/>
      <point x="203" y="541"/>
      <point x="203" y="500" type="curve" smooth="yes"/>
      <point x="203" y="422" type="line"/>
    </contour>
    <contour>
      <point x="126" y="377" type="line"/>
      <point x="125" y="377" type="line" smooth="yes"/>
      <point x="56" y="377"/>
      <point x="20" y="341"/>
      <point x="20" y="273" type="curve" smooth="yes"/>
      <point x="20" y="177" type="line"/>
      <point x="73" y="177" type="line"/>
      <point x="73" y="273" type="line" smooth="yes"/>
      <point x="73" y="314"/>
      <point x="83" y="324"/>
      <point x="125" y="324" type="curve" smooth="yes"/>
      <point x="126" y="324" type="line"/>
    </contour>
  </outline>
</glyph>
<glyph name="seven" format="2">
  <advance width="267"/>
  <unicode hex="0037"/>
  <note>
seven
</note>
  <outline>
    <contour>
      <point x="247" y="327" type="line"/>
      <point x="60" y="327" type="line"/>
      <point x="60" y="274" type="line"/>
      <point x="247" y="274" type="line"/>
    </contour>
    <contour>
      <point x="20" y="600" type="line"/>
      <point x="20" y="547" type="line"/>
      <point x="218" y="547" type="line"/>
      <point x="200" y="572" type="line"/>
      <point x="101" y="0" type="line"/>
      <point x="151" y="0" type="line"/>
      <point x="242" y="507" type="line" smooth="yes"/>
      <point x="252" y="562"/>
      <point x="233" y="600"/>
      <point x="173" y="600" type="curve" smooth="yes"/>
    </contour>
  </outline>
</glyph>
<glyph name="eight" format="2">
  <advance width="276"/>
  <unicode hex="0038"/>
  <note>
eight
</note>
  <outline>
    <contour>
      <point x="146" y="603" type="curve" smooth="yes"/>
      <point x="130" y="603" type="line" smooth="yes"/>
      <point x="60" y="603"/>
      <point x="25" y="567"/>
      <point x="25" y="499" type="curve" smooth="yes"/>
      <point x="25" y="412" type="line" smooth="yes"/>
      <point x="25" y="344"/>
      <point x="61" y="308"/>
      <point x="130" y="308" type="curve" smooth="yes"/>
      <point x="146" y="308" type="line" smooth="yes"/>
      <point x="215" y="308"/>
      <point x="251" y="344"/>
      <point x="251" y="412" type="curve" smooth="yes"/>
      <point x="251" y="499" type="line" smooth="yes"/>
      <point x="251" y="567"/>
      <point x="215" y="603"/>
    </contour>
    <contour>
      <point x="78" y="412" type="curve" smooth="yes"/>
      <point x="78" y="499" type="line" smooth="yes"/>
      <point x="78" y="540"/>
      <point x="88" y="550"/>
      <point x="130" y="550" type="curve" smooth="yes"/>
      <point x="146" y="550" type="line" smooth="yes"/>
      <point x="188" y="550"/>
      <point x="198" y="540"/>
      <point x="198" y="499" type="curve" smooth="yes"/>
      <point x="198" y="412" type="line" smooth="yes"/>
      <point x="198" y="371"/>
      <point x="188" y="361"/>
      <point x="146" y="361" type="curve" smooth="yes"/>
      <point x="130" y="361" type="line" smooth="yes"/>
      <point x="88" y="361"/>
      <point x="78" y="371"/>
    </contour>
    <contour>
      <point x="151" y="361" type="curve" smooth="yes"/>
      <point x="125" y="361" type="line" smooth="yes"/>
      <point x="56" y="361"/>
      <point x="20" y="325"/>
      <point x="20" y="257" type="curve" smooth="yes"/>
      <point x="20" y="104" type="line" smooth="yes"/>
      <point x="20" y="36"/>
      <point x="56" y="0"/>
      <point x="125" y="0" type="curve" smooth="yes"/>
      <point x="151" y="0" type="line" smooth="yes"/>
      <point x="220" y="0"/>
      <point x="256" y="36"/>
      <point x="256" y="104" type="curve" smooth="yes"/>
      <point x="256" y="257" type="line" smooth="yes"/>
      <point x="256" y="325"/>
      <point x="220" y="361"/>
    </contour>
    <contour>
      <point x="73" y="104" type="curve" smooth="yes"/>
      <point x="73" y="257" type="line" smooth="yes"/>
      <point x="73" y="298"/>
      <point x="83" y="308"/>
      <point x="125" y="308" type="curve" smooth="yes"/>
      <point x="151" y="308" type="line" smooth="yes"/>
      <point x="193" y="308"/>
      <point x="203" y="298"/>
      <point x="203" y="257" type="curve" smooth="yes"/>
      <point x="203" y="104" type="line" smooth="yes"/>
      <point x="203" y="63"/>
      <point x="193" y="53"/>
      <point x="151" y="53" type="curve" smooth="yes"/>
      <point x="125" y="53" type="line" smooth="yes"/>
      <point x="83" y="53"/>
      <point x="73" y="63"/>
    </contour>
  </outline>
</glyph>
<glyph name="nine" format="2">
  <advance width="276"/>
  <unicode hex="0039"/>
  <note>
nine
</note>
  <outline>
    <contour>
      <point x="150" y="604" type="line"/>
      <point x="150" y="551" type="line"/>
      <point x="151" y="551" type="line" smooth="yes"/>
      <point x="193" y="551"/>
      <point x="203" y="541"/>
      <point x="203" y="500" type="curve" smooth="yes"/>
      <point x="203" y="104" type="line" smooth="yes"/>
      <point x="203" y="63"/>
      <point x="193" y="53"/>
      <point x="151" y="53" type="curve" smooth="yes"/>
      <point x="150" y="53" type="line"/>
      <point x="150" y="0" type="line"/>
      <point x="151" y="0" type="line" smooth="yes"/>
      <point x="220" y="0"/>
      <point x="256" y="36"/>
      <point x="256" y="104" type="curve" smooth="yes"/>
      <point x="256" y="500" type="line" smooth="yes"/>
      <point x="256" y="568"/>
      <point x="220" y="604"/>
      <point x="151" y="604" type="curve" smooth="yes"/>
    </contour>
    <contour>
      <point x="150" y="604" type="line"/>
      <point x="125" y="604" type="line" smooth="yes"/>
      <point x="56" y="604"/>
      <point x="20" y="568"/>
      <point x="20" y="500" type="curve" smooth="yes"/>
      <point x="20" y="383" type="line"/>
      <point x="73" y="383" type="line"/>
      <point x="73" y="500" type="line" smooth="yes"/>
      <point x="73" y="541"/>
      <point x="83" y="551"/>
      <point x="125" y="551" type="curve" smooth="yes"/>
      <point x="150" y="551" type="line"/>
    </contour>
    <contour>
      <point x="150" y="227" type="line"/>
      <point x="150" y="280" type="line"/>
      <point x="125" y="280" type="line" smooth="yes"/>
      <point x="83" y="280"/>
      <point x="73" y="290"/>
      <point x="73" y="331" type="curve" smooth="yes"/>
      <point x="73" y="448" type="line"/>
      <point x="20" y="448" type="line"/>
      <point x="20" y="331" type="line" smooth="yes"/>
      <point x="20" y="263"/>
      <point x="56" y="227"/>
      <point x="125" y="227" type="curve" smooth="yes"/>
    </contour>
    <contour>
      <point x="20" y="188" type="line"/>
      <point x="20" y="104" type="line" smooth="yes"/>
      <point x="20" y="36"/>
      <point x="56" y="0"/>
      <point x="125" y="0" type="curve" smooth="yes"/>
      <point x="150" y="0" type="line"/>
      <point x="150" y="53" type="line"/>
      <point x="125" y="53" type="line" smooth="yes"/>
      <point x="83" y="53"/>
      <point x="73" y="63"/>
      <point x="73" y="104" type="curve" smooth="yes"/>
      <point x="73" y="182" type="line"/>
    </contour>
    <contour>
      <point x="150" y="227" type="line"/>
      <point x="151" y="227" type="line" smooth="yes"/>
      <point x="220" y="227"/>
      <point x="256" y="263"/>
      <point x="256" y="331" type="curve" smooth="yes"/>
      <point x="256" y="427" type="line"/>
      <point x="203" y="427" type="line"/>
      <point x="203" y="331" type="line" smooth="yes"/>
      <point x="203" y="290"/>
      <point x="193" y="280"/>
      <point x="151" y="280" type="curve" smooth="yes"/>
      <point x="150" y="280" type="line"/>
    </contour>
  </outline>
</glyph>
<glyph name="colon" format="2">
  <advance width="93"/>
  <unicode hex="003A"/>
  <note>
colon
</note>
  <outline>
    <contour>
      <point x="20" y="228" type="line"/>
      <point x="20" y="175" type="line"/>
      <point x="73" y="175" type="line"/>
      <point x="73" y="228" type="line"/>
    </contour>
    <contour>
      <point x="20" y="425" type="line"/>
      <point x="20" y="372" type="line"/>
      <point x="73" y="372" type="line"/>
      <point x="73" y="425" type="line"/>
    </contour>
  </outline>
</glyph>
<glyph name="semicolon" format="2">
  <advance width="120"/>
  <unicode hex="003B"/>
  <note>
semicolon
</note>
  <outline>
    <contour>
      <point x="47" y="425" type="line"/>
      <point x="47" y="372" type="line"/>
      <point x="100" y="372" type="line"/>
      <point x="100" y="425" type="line"/>
    </contour>
    <contour>
      <point x="49" y="228" type="line"/>
      <point x="20" y="82" type="line"/>
      <point x="70" y="82" type="line"/>
      <point x="99" y="228" type="line"/>
    </contour>
  </outline>
</glyph>
<glyph name="less" format="2">
  <advance width="244"/>
  <unicode hex="003C"/>
  <outline>
    <contour>
      <point x="224" y="195" type="line"/>
      <point x="224" y="250" type="line"/>
      <point x="72" y="315" type="line"/>
      <point x="72" y="283" type="line"/>
      <point x="224" y="348" type="line"/>
      <point x="224" y="403" type="line"/>
      <point x="20" y="314" type="line"/>
      <point x="20" y="283" type="line"/>
    </contour>
  </outline>
</glyph>
<glyph name="equal" format="2">
  <advance width="280"/>
  <unicode hex="003D"/>
  <note>
equal
</note>
  <outline>
    <contour>
      <point x="260" y="377" type="line"/>
      <point x="20" y="377" type="line"/>
      <point x="20" y="324" type="line"/>
      <point x="260" y="324" type="line"/>
    </contour>
    <contour>
      <point x="260" y="297" type="line"/>
      <point x="20" y="297" type="line"/>
      <point x="20" y="244" type="line"/>
      <point x="260" y="244" type="line"/>
    </contour>
  </outline>
</glyph>
<glyph name="greater" format="2">
  <advance width="244"/>
  <unicode hex="003E"/>
  <note>
greater
</note>
  <outline>
    <contour>
      <point x="20" y="195" type="line"/>
      <point x="224" y="283" type="line"/>
      <point x="224" y="314" type="line"/>
      <point x="20" y="403" type="line"/>
      <point x="20" y="348" type="line"/>
      <point x="172" y="283" type="line"/>
      <point x="172" y="315" type="line"/>
      <point x="20" y="250" type="line"/>
    </contour>
  </outline>
</glyph>
<glyph name="question" format="2">
  <advance width="227"/>
  <unicode hex="003F"/>
  <note>
question
</note>
  <outline>
    <contour>
      <point x="74" y="400" type="line"/>
      <point x="74" y="549" type="line"/>
      <point x="72" y="547" type="line"/>
      <point x="123" y="547" type="line" smooth="yes"/>
      <point x="147" y="547"/>
      <point x="153" y="541"/>
      <point x="153" y="517" type="curve" smooth="yes"/>
      <point x="153" y="420" type="line"/>
      <point x="206" y="420" type="line"/>
      <point x="206" y="507" type="line" smooth="yes"/>
      <point x="206" y="561"/>
      <point x="166" y="600"/>
      <point x="105" y="600" type="curve" smooth="yes"/>
      <point x="21" y="600" type="line"/>
      <point x="21" y="400" type="line"/>
    </contour>
    <contour>
      <point x="58" y="0" type="line"/>
      <point x="111" y="0" type="line"/>
      <point x="111" y="53" type="line"/>
      <point x="58" y="53" type="line"/>
    </contour>
    <contour>
      <point x="206" y="382" type="curve" smooth="yes"/>
      <point x="206" y="469" type="line"/>
      <point x="153" y="469" type="line"/>
      <point x="153" y="372" type="line" smooth="yes"/>
      <point x="153" y="350"/>
      <point x="145" y="342"/>
      <point x="123" y="342" type="curve" smooth="yes"/>
      <point x="75" y="342"/>
      <point x="58" y="318"/>
      <point x="58" y="250" type="curve" smooth="yes"/>
      <point x="58" y="83" type="line"/>
      <point x="111" y="83" type="line"/>
      <point x="111" y="260" type="line" smooth="yes"/>
      <point x="111" y="282"/>
      <point x="117" y="290"/>
      <point x="133" y="290" type="curve" smooth="yes"/>
      <point x="187" y="290"/>
      <point x="206" y="314"/>
    </contour>
  </outline>
</glyph>
<glyph name="A" format="2">
  <advance width="279"/>
  <unicode hex="0041"/>
  <anchor x="140" y="0" name="bottom"/>
  <anchor x="251" y="10" name="ogonek"/>
  <anchor x="140" y="700" name="top"/>
  <outline>
    <contour>
      <point x="213" y="0" type="line"/>
      <point x="259" y="0" type="line"/>
      <point x="197" y="700" type="line"/>
      <point x="150" y="700" type="line"/>
    </contour>
    <contour>
      <point x="54" y="141" type="line"/>
      <point x="229" y="141" type="line"/>
      <point x="229" y="194" type="line"/>
      <point x="54" y="194" type="line"/>
    </contour>
    <contour>
      <point x="20" y="0" type="line"/>
      <point x="66" y="0" type="line"/>
      <point x="129" y="700" type="line"/>
      <point x="82" y="700" type="line"/>
    </contour>
    <contour>
      <point x="64" y="647" type="line"/>
      <point x="197" y="647" type="line"/>
      <point x="197" y="700" type="line"/>
      <point x="74" y="700" type="line"/>
    </contour>
  </outline>
</glyph>
<glyph name="B" format="2">
  <advance width="295"/>
  <unicode hex="0042"/>
  <anchor x="136" y="-8" name="bottom"/>
  <anchor x="121" y="700" name="top"/>
  <outline>
    <contour>
      <point x="38" y="-7" type="line"/>
      <point x="91" y="-7" type="line"/>
      <point x="91" y="700" type="line"/>
      <point x="38" y="700" type="line"/>
    </contour>
    <contour>
      <point x="38" y="-7" type="line"/>
      <point x="170" y="-7" type="line" smooth="yes"/>
      <point x="239" y="-7"/>
      <point x="275" y="29"/>
      <point x="275" y="97" type="curve" smooth="yes"/>
      <point x="275" y="201" type="line"/>
      <point x="222" y="201" type="line"/>
      <point x="222" y="97" type="line" smooth="yes"/>
      <point x="222" y="63"/>
      <point x="204" y="46"/>
      <point x="170" y="46" type="curve" smooth="yes"/>
      <point x="38" y="46" type="line"/>
    </contour>
    <contour>
      <point x="222" y="201" type="line"/>
      <point x="275" y="201" type="line"/>
      <point x="275" y="273" type="line" smooth="yes"/>
      <point x="275" y="341"/>
      <point x="239" y="377"/>
      <point x="170" y="377" type="curve" smooth="yes"/>
      <point x="38" y="377" type="line"/>
      <point x="38" y="324" type="line"/>
      <point x="170" y="324" type="line" smooth="yes"/>
      <point x="204" y="324"/>
      <point x="222" y="307"/>
      <point x="222" y="273" type="curve" smooth="yes"/>
    </contour>
    <contour>
      <point x="38" y="324" type="line"/>
      <point x="150" y="324" type="line" smooth="yes"/>
      <point x="219" y="324"/>
      <point x="255" y="356"/>
      <point x="255" y="417" type="curve" smooth="yes"/>
      <point x="255" y="524" type="line"/>
      <point x="202" y="524" type="line"/>
      <point x="202" y="417" type="line" smooth="yes"/>
      <point x="202" y="391"/>
      <point x="184" y="377"/>
      <point x="150" y="377" type="curve" smooth="yes"/>
      <point x="38" y="377" type="line"/>
    </contour>
    <contour>
      <point x="20" y="647" type="line"/>
      <point x="150" y="647" type="line" smooth="yes"/>
      <point x="184" y="647"/>
      <point x="202" y="630"/>
      <point x="202" y="596" type="curve" smooth="yes"/>
      <point x="202" y="524" type="line"/>
      <point x="255" y="524" type="line"/>
      <point x="255" y="596" type="line" smooth="yes"/>
      <point x="255" y="664"/>
      <point x="219" y="700"/>
      <point x="150" y="700" type="curve" smooth="yes"/>
      <point x="30" y="700" type="line"/>
    </contour>
  </outline>
</glyph>
<glyph name="C" format="2">
  <advance width="268"/>
  <unicode hex="0043"/>
  <anchor x="134" y="-7" name="bottom"/>
  <anchor x="134" y="704" name="top"/>
  <outline>
    <contour>
      <point x="248" y="304" type="line"/>
      <point x="195" y="304" type="line"/>
      <point x="195" y="97" type="line"/>
      <point x="195" y="63"/>
      <point x="177" y="46"/>
      <point x="143" y="46" type="curve" smooth="yes"/>
      <point x="134" y="46" type="line"/>
      <point x="134" y="-7" type="line"/>
      <point x="143" y="-7" type="line" smooth="yes"/>
      <point x="212" y="-7"/>
      <point x="248" y="29"/>
      <point x="248" y="97" type="curve" smooth="yes"/>
    </contour>
    <contour>
      <point x="20" y="300" type="line"/>
      <point x="73" y="300" type="line"/>
      <point x="73" y="611" type="line"/>
      <point x="73" y="637"/>
      <point x="91" y="651"/>
      <point x="125" y="651" type="curve" smooth="yes"/>
      <point x="134" y="651" type="line"/>
      <point x="134" y="704" type="line"/>
      <point x="125" y="704" type="line" smooth="yes"/>
      <point x="56" y="704"/>
      <point x="20" y="672"/>
      <point x="20" y="611" type="curve" smooth="yes"/>
    </contour>
    <contour>
      <point x="20" y="300" type="line"/>
      <point x="20" y="97" type="line" smooth="yes"/>
      <point x="20" y="29"/>
      <point x="56" y="-7"/>
      <point x="125" y="-7" type="curve" smooth="yes"/>
      <point x="134" y="-7" type="line"/>
      <point x="134" y="46" type="line"/>
      <point x="125" y="46" type="line" smooth="yes"/>
      <point x="91" y="46"/>
      <point x="73" y="63"/>
      <point x="73" y="97" type="curve"/>
      <point x="73" y="300" type="line"/>
    </contour>
    <contour>
      <point x="248" y="393" type="line"/>
      <point x="248" y="600" type="line" smooth="yes"/>
      <point x="248" y="668"/>
      <point x="212" y="704"/>
      <point x="143" y="704" type="curve" smooth="yes"/>
      <point x="134" y="704" type="line"/>
      <point x="134" y="651" type="line"/>
      <point x="143" y="651" type="line" smooth="yes"/>
      <point x="177" y="651"/>
      <point x="195" y="634"/>
      <point x="195" y="600" type="curve"/>
      <point x="195" y="399" type="line"/>
    </contour>
  </outline>
</glyph>
<glyph name="D" format="2">
  <advance width="275"/>
  <unicode hex="0044"/>
  <outline>
    <contour>
      <point x="150" y="700" type="curve" smooth="yes"/>
      <point x="25" y="700" type="line"/>
      <point x="15" y="647" type="line"/>
      <point x="150" y="647" type="line" smooth="yes"/>
      <point x="184" y="647"/>
      <point x="202" y="630"/>
      <point x="202" y="596" type="curve" smooth="yes"/>
      <point x="202" y="341" type="line"/>
      <point x="255" y="341" type="line"/>
      <point x="255" y="596" type="line" smooth="yes"/>
      <point x="255" y="664"/>
      <point x="219" y="700"/>
    </contour>
    <contour>
      <point x="255" y="97" type="curve" smooth="yes"/>
      <point x="255" y="341" type="line"/>
      <point x="202" y="341" type="line"/>
      <point x="202" y="97" type="line"/>
      <point x="202" y="63"/>
      <point x="184" y="46"/>
      <point x="150" y="46" type="curve" smooth="yes"/>
      <point x="33" y="46" type="line"/>
      <point x="33" y="-7" type="line"/>
      <point x="150" y="-7" type="line" smooth="yes"/>
      <point x="219" y="-7"/>
      <point x="255" y="29"/>
    </contour>
    <contour>
      <point x="33" y="700" type="line"/>
      <point x="33" y="-7" type="line"/>
      <point x="86" y="-7" type="line"/>
      <point x="86" y="700" type="line"/>
    </contour>
  </outline>
</glyph>
<glyph name="E" format="2">
  <advance width="259"/>
  <unicode hex="0045"/>
  <anchor x="130" y="0" name="bottom"/>
  <anchor x="233" y="0" name="ogonek"/>
  <anchor x="130" y="700" name="top"/>
  <anchor x="20" y="700" name="topleft"/>
  <outline>
    <contour>
      <point x="33" y="700" type="line"/>
      <point x="33" y="0" type="line"/>
      <point x="86" y="0" type="line"/>
      <point x="86" y="700" type="line"/>
    </contour>
    <contour>
      <point x="98" y="700" type="line"/>
      <point x="25" y="700" type="line"/>
      <point x="15" y="647" type="line"/>
      <point x="98" y="647" type="line"/>
    </contour>
    <contour>
      <point x="239" y="377" type="line"/>
      <point x="33" y="377" type="line"/>
      <point x="33" y="324" type="line"/>
      <point x="233" y="324" type="line"/>
    </contour>
    <contour>
      <point x="239" y="700" type="line"/>
      <point x="33" y="700" type="line"/>
      <point x="33" y="647" type="line"/>
      <point x="233" y="647" type="line"/>
    </contour>
    <contour>
      <point x="239" y="53" type="line"/>
      <point x="33" y="53" type="line"/>
      <point x="33" y="0" type="line"/>
      <point x="233" y="0" type="line"/>
    </contour>
  </outline>
</glyph>
<glyph name="G" format="2">
  <advance width="268"/>
  <unicode hex="0047"/>
  <outline>
    <contour>
      <point x="248" y="97" type="curve" smooth="yes"/>
      <point x="248" y="304" type="line"/>
      <point x="195" y="304" type="line"/>
      <point x="195" y="97" type="line" smooth="yes"/>
      <point x="195" y="63"/>
      <point x="178" y="47"/>
      <point x="136" y="46" type="curve" smooth="yes"/>
      <point x="132" y="46" type="line" smooth="yes"/>
      <point x="90" y="47"/>
      <point x="73" y="64"/>
      <point x="73" y="97" type="curve" smooth="yes"/>
      <point x="73" y="300" type="line"/>
      <point x="20" y="300" type="line"/>
      <point x="20" y="97" type="line" smooth="yes"/>
      <point x="20" y="28"/>
      <point x="58" y="-6"/>
      <point x="132" y="-7" type="curve" smooth="yes"/>
      <point x="136" y="-7" type="line" smooth="yes"/>
      <point x="212" y="-6"/>
      <point x="248" y="28"/>
    </contour>
    <contour>
      <point x="20" y="611" type="curve" smooth="yes"/>
      <point x="20" y="300" type="line"/>
      <point x="73" y="300" type="line"/>
      <point x="73" y="611" type="line" smooth="yes"/>
      <point x="73" y="637"/>
      <point x="91" y="651"/>
      <point x="125" y="651" type="curve"/>
      <point x="142" y="651" type="line"/>
      <point x="142" y="704" type="line"/>
      <point x="125" y="704" type="line" smooth="yes"/>
      <point x="56" y="704"/>
      <point x="20" y="672"/>
    </contour>
    <contour>
      <point x="248" y="450" type="line"/>
      <point x="248" y="600" type="line" smooth="yes"/>
      <point x="248" y="668"/>
      <point x="212" y="704"/>
      <point x="143" y="704" type="curve" smooth="yes"/>
      <point x="142" y="704" type="line"/>
      <point x="142" y="651" type="line"/>
      <point x="143" y="651" type="line"/>
      <point x="177" y="651"/>
      <point x="195" y="634"/>
      <point x="195" y="600" type="curve"/>
      <point x="195" y="456" type="line"/>
    </contour>
    <contour>
      <point x="135" y="304" type="line"/>
      <point x="248" y="304" type="line"/>
      <point x="248" y="357" type="line"/>
      <point x="141" y="357" type="line"/>
    </contour>
  </outline>
</glyph>
<glyph name="H" format="2">
  <advance width="259"/>
  <unicode hex="0048"/>
  <outline>
    <contour>
      <point x="33" y="700" type="line"/>
      <point x="33" y="0" type="line"/>
      <point x="86" y="0" type="line"/>
      <point x="86" y="700" type="line"/>
    </contour>
    <contour>
      <point x="86" y="700" type="line"/>
      <point x="25" y="700" type="line"/>
      <point x="15" y="647" type="line"/>
      <point x="86" y="647" type="line"/>
    </contour>
    <contour>
      <point x="239" y="377" type="line"/>
      <point x="33" y="377" type="line"/>
      <point x="33" y="324" type="line"/>
      <point x="239" y="324" type="line"/>
    </contour>
    <contour>
      <point x="186" y="700" type="line"/>
      <point x="186" y="0" type="line"/>
      <point x="239" y="0" type="line"/>
      <point x="239" y="700" type="line"/>
    </contour>
  </outline>
</glyph>
<glyph name="I" format="2">
  <advance width="106"/>
  <unicode hex="0049"/>
  <anchor x="53" y="0" name="bottom"/>
  <anchor x="95" y="10" name="ogonek"/>
  <anchor x="53" y="700" name="top"/>
  <anchor x="20" y="700" name="topleft"/>
  <outline>
    <contour>
      <point x="33" y="0" type="line"/>
      <point x="86" y="0" type="line"/>
      <point x="86" y="700" type="line"/>
      <point x="33" y="700" type="line"/>
    </contour>
    <contour>
      <point x="15" y="647" type="line"/>
      <point x="86" y="647" type="line"/>
      <point x="86" y="700" type="line"/>
      <point x="25" y="700" type="line"/>
    </contour>
  </outline>
</glyph>
<glyph name="J" format="2">
  <advance width="226"/>
  <unicode hex="004A"/>
  <anchor x="111" y="-7" name="bottom"/>
  <anchor x="137" y="700" name="top"/>
  <outline>
    <contour>
      <point x="113" y="647" type="line"/>
      <point x="206" y="647" type="line"/>
      <point x="206" y="700" type="line"/>
      <point x="125" y="700" type="line"/>
    </contour>
    <contour>
      <point x="206" y="97" type="curve" smooth="yes"/>
      <point x="206" y="700" type="line"/>
      <point x="153" y="700" type="line"/>
      <point x="153" y="97" type="line" smooth="yes"/>
      <point x="153" y="63"/>
      <point x="136" y="46"/>
      <point x="115" y="46" type="curve" smooth="yes"/>
      <point x="111" y="46" type="line" smooth="yes"/>
      <point x="90" y="46"/>
      <point x="73" y="64"/>
      <point x="73" y="97" type="curve" smooth="yes"/>
      <point x="73" y="304" type="line"/>
      <point x="20" y="304" type="line"/>
      <point x="20" y="97" type="line" smooth="yes"/>
      <point x="20" y="28"/>
      <point x="58" y="-7"/>
      <point x="111" y="-7" type="curve" smooth="yes"/>
      <point x="115" y="-7" type="line" smooth="yes"/>
      <point x="170" y="-7"/>
      <point x="206" y="28"/>
    </contour>
  </outline>
</glyph>
<glyph name="K" format="2">
  <advance width="283"/>
  <unicode hex="004B"/>
  <outline>
    <contour>
      <point x="203" y="700" type="line"/>
      <point x="67" y="397" type="line"/>
      <point x="117" y="397" type="line"/>
      <point x="253" y="700" type="line"/>
    </contour>
    <contour>
      <point x="33" y="700" type="line"/>
      <point x="33" y="0" type="line"/>
      <point x="86" y="0" type="line"/>
      <point x="86" y="700" type="line"/>
    </contour>
    <contour>
      <point x="213" y="0" type="line"/>
      <point x="263" y="0" type="line"/>
      <point x="117" y="397" type="line"/>
      <point x="67" y="397" type="line"/>
    </contour>
    <contour>
      <point x="86" y="700" type="line"/>
      <point x="25" y="700" type="line"/>
      <point x="15" y="647" type="line"/>
      <point x="86" y="647" type="line"/>
    </contour>
  </outline>
</glyph>
<glyph name="L" format="2">
  <advance width="284"/>
  <unicode hex="004C"/>
  <outline>
    <contour>
      <point x="33" y="700" type="line"/>
      <point x="33" y="0" type="line"/>
      <point x="86" y="0" type="line"/>
      <point x="86" y="700" type="line"/>
    </contour>
    <contour>
      <point x="264" y="53" type="line"/>
      <point x="86" y="53" type="line"/>
      <point x="86" y="0" type="line"/>
      <point x="252" y="0" type="line"/>
    </contour>
    <contour>
      <point x="33" y="700" type="line"/>
      <point x="25" y="700" type="line"/>
      <point x="15" y="647" type="line"/>
      <point x="33" y="647" type="line"/>
    </contour>
  </outline>
</glyph>
<glyph name="M" format="2">
  <advance width="393"/>
  <unicode hex="004D"/>
  <anchor x="197" y="0" name="bottom"/>
  <anchor x="197" y="700" name="top"/>
  <outline>
    <contour>
      <point x="284" y="700" type="line"/>
      <point x="195" y="164" type="line"/>
      <point x="211" y="164" type="line"/>
      <point x="122" y="700" type="line"/>
      <point x="70" y="700" type="line"/>
      <point x="173" y="99" type="line"/>
      <point x="233" y="99" type="line"/>
      <point x="336" y="700" type="line"/>
    </contour>
    <contour>
      <point x="33" y="0" type="line"/>
      <point x="86" y="0" type="line"/>
      <point x="86" y="700" type="line"/>
      <point x="33" y="700" type="line"/>
    </contour>
    <contour>
      <point x="15" y="647" type="line"/>
      <point x="86" y="647" type="line"/>
      <point x="86" y="700" type="line"/>
      <point x="25" y="700" type="line"/>
    </contour>
    <contour>
      <point x="320" y="0" type="line"/>
      <point x="373" y="0" type="line"/>
      <point x="373" y="700" type="line"/>
      <point x="320" y="700" type="line"/>
    </contour>
  </outline>
</glyph>
<glyph name="N" format="2">
  <advance width="314"/>
  <unicode hex="004E"/>
  <anchor x="157" y="0" name="bottom"/>
  <anchor x="157" y="700" name="top"/>
  <outline>
    <contour>
      <point x="241" y="0" type="line"/>
      <point x="291" y="0" type="line"/>
      <point x="117" y="700" type="line"/>
      <point x="65" y="700" type="line"/>
    </contour>
    <contour>
      <point x="33" y="0" type="line"/>
      <point x="86" y="0" type="line"/>
      <point x="86" y="700" type="line"/>
      <point x="33" y="700" type="line"/>
    </contour>
    <contour>
      <point x="241" y="0" type="line"/>
      <point x="294" y="0" type="line"/>
      <point x="294" y="700" type="line"/>
      <point x="241" y="700" type="line"/>
    </contour>
    <contour>
      <point x="15" y="647" type="line"/>
      <point x="86" y="647" type="line"/>
      <point x="86" y="700" type="line"/>
      <point x="25" y="700" type="line"/>
    </contour>
  </outline>
</glyph>
<glyph name="O" format="2">
  <advance width="268"/>
  <unicode hex="004F"/>
  <anchor x="134" y="-7" name="bottom"/>
  <anchor x="134" y="350" name="center"/>
  <anchor x="241" y="-7" name="ogonek"/>
  <anchor x="134" y="704" name="top"/>
  <anchor x="20" y="704" name="topleft"/>
  <anchor x="248" y="704" name="topright"/>
  <outline>
    <contour>
      <point x="248" y="97" type="curve" smooth="yes"/>
      <point x="248" y="352" type="line"/>
      <point x="195" y="352" type="line"/>
      <point x="195" y="97" type="line" smooth="yes"/>
      <point x="195" y="63"/>
      <point x="178" y="46"/>
      <point x="136" y="46" type="curve" smooth="yes"/>
      <point x="132" y="46" type="line" smooth="yes"/>
      <point x="90" y="46"/>
      <point x="73" y="64"/>
      <point x="73" y="97" type="curve" smooth="yes"/>
      <point x="73" y="352" type="line"/>
      <point x="20" y="352" type="line"/>
      <point x="20" y="97" type="line" smooth="yes"/>
      <point x="20" y="28"/>
      <point x="57" y="-7"/>
      <point x="132" y="-7" type="curve" smooth="yes"/>
      <point x="136" y="-7" type="line" smooth="yes"/>
      <point x="211" y="-7"/>
      <point x="248" y="28"/>
    </contour>
    <contour>
      <point x="248" y="600" type="line" smooth="yes"/>
      <point x="248" y="669"/>
      <point x="211" y="704"/>
      <point x="136" y="704" type="curve" smooth="yes"/>
      <point x="132" y="704" type="line" smooth="yes"/>
      <point x="57" y="704"/>
      <point x="20" y="669"/>
      <point x="20" y="600" type="curve" smooth="yes"/>
      <point x="20" y="345" type="line"/>
      <point x="73" y="345" type="line"/>
      <point x="73" y="600" type="line" smooth="yes"/>
      <point x="73" y="633"/>
      <point x="90" y="651"/>
      <point x="132" y="651" type="curve" smooth="yes"/>
      <point x="136" y="651" type="line" smooth="yes"/>
      <point x="178" y="651"/>
      <point x="195" y="634"/>
      <point x="195" y="600" type="curve" smooth="yes"/>
      <point x="195" y="345" type="line"/>
      <point x="248" y="345" type="line"/>
    </contour>
  </outline>
</glyph>
<glyph name="Q" format="2">
  <advance width="288"/>
  <unicode hex="0051"/>
  <outline>
    <contour>
      <point x="268" y="-12" type="line"/>
      <point x="147" y="-12" type="line"/>
      <point x="179" y="-46" type="line"/>
      <point x="179" y="32" type="line"/>
      <point x="126" y="32" type="line"/>
      <point x="126" y="27" type="line" smooth="yes"/>
      <point x="126" y="-29"/>
      <point x="163" y="-68"/>
      <point x="219" y="-68" type="curve" smooth="yes"/>
      <point x="248" y="-68" type="line"/>
    </contour>
    <contour>
      <point x="248" y="97" type="curve" smooth="yes"/>
      <point x="248" y="352" type="line"/>
      <point x="195" y="352" type="line"/>
      <point x="195" y="97" type="line" smooth="yes"/>
      <point x="195" y="63"/>
      <point x="178" y="46"/>
      <point x="136" y="46" type="curve" smooth="yes"/>
      <point x="132" y="46" type="line" smooth="yes"/>
      <point x="90" y="46"/>
      <point x="73" y="64"/>
      <point x="73" y="97" type="curve" smooth="yes"/>
      <point x="73" y="352" type="line"/>
      <point x="20" y="352" type="line"/>
      <point x="20" y="97" type="line" smooth="yes"/>
      <point x="20" y="28"/>
      <point x="57" y="-7"/>
      <point x="132" y="-7" type="curve" smooth="yes"/>
      <point x="136" y="-7" type="line" smooth="yes"/>
      <point x="211" y="-7"/>
      <point x="248" y="28"/>
    </contour>
    <contour>
      <point x="248" y="600" type="line" smooth="yes"/>
      <point x="248" y="669"/>
      <point x="211" y="704"/>
      <point x="136" y="704" type="curve" smooth="yes"/>
      <point x="132" y="704" type="line" smooth="yes"/>
      <point x="57" y="704"/>
      <point x="20" y="669"/>
      <point x="20" y="600" type="curve" smooth="yes"/>
      <point x="20" y="345" type="line"/>
      <point x="73" y="345" type="line"/>
      <point x="73" y="600" type="line" smooth="yes"/>
      <point x="73" y="633"/>
      <point x="90" y="651"/>
      <point x="132" y="651" type="curve" smooth="yes"/>
      <point x="136" y="651" type="line" smooth="yes"/>
      <point x="178" y="651"/>
      <point x="195" y="634"/>
      <point x="195" y="600" type="curve" smooth="yes"/>
      <point x="195" y="345" type="line"/>
      <point x="248" y="345" type="line"/>
    </contour>
  </outline>
</glyph>
<glyph name="R" format="2">
  <advance width="291"/>
  <unicode hex="0052"/>
  <outline>
    <contour>
      <point x="33" y="700" type="line"/>
      <point x="33" y="0" type="line"/>
      <point x="86" y="0" type="line"/>
      <point x="86" y="700" type="line"/>
    </contour>
    <contour>
      <point x="194" y="270" type="line"/>
      <point x="141" y="270" type="line"/>
      <point x="217" y="0" type="line"/>
      <point x="271" y="0" type="line"/>
    </contour>
    <contour>
      <point x="33" y="222" type="line"/>
      <point x="145" y="222" type="line" smooth="yes"/>
      <point x="214" y="222"/>
      <point x="250" y="254"/>
      <point x="250" y="315" type="curve" smooth="yes"/>
      <point x="250" y="473" type="line"/>
      <point x="197" y="473" type="line"/>
      <point x="197" y="315" type="line" smooth="yes"/>
      <point x="197" y="289"/>
      <point x="179" y="275"/>
      <point x="145" y="275" type="curve" smooth="yes"/>
      <point x="33" y="275" type="line"/>
    </contour>
    <contour>
      <point x="15" y="647" type="line"/>
      <point x="145" y="647" type="line" smooth="yes"/>
      <point x="179" y="647"/>
      <point x="197" y="630"/>
      <point x="197" y="596" type="curve" smooth="yes"/>
      <point x="197" y="473" type="line"/>
      <point x="250" y="473" type="line"/>
      <point x="250" y="596" type="line" smooth="yes"/>
      <point x="250" y="664"/>
      <point x="214" y="700"/>
      <point x="145" y="700" type="curve" smooth="yes"/>
      <point x="25" y="700" type="line"/>
    </contour>
  </outline>
</glyph>
<glyph name="S" format="2">
  <advance width="268"/>
  <unicode hex="0053"/>
  <outline>
    <contour>
      <point x="73" y="200" type="line"/>
      <point x="20" y="200" type="line"/>
      <point x="20" y="97" type="line" smooth="yes"/>
      <point x="20" y="29"/>
      <point x="56" y="-7"/>
      <point x="125" y="-7" type="curve" smooth="yes"/>
      <point x="143" y="-7" type="line"/>
      <point x="143" y="46" type="line"/>
      <point x="125" y="46" type="line" smooth="yes"/>
      <point x="91" y="46"/>
      <point x="73" y="63"/>
      <point x="73" y="97" type="curve" smooth="yes"/>
    </contour>
    <contour>
      <point x="248" y="461" type="line"/>
      <point x="248" y="600" type="line" smooth="yes"/>
      <point x="248" y="668"/>
      <point x="212" y="704"/>
      <point x="143" y="704" type="curve" smooth="yes"/>
      <point x="131" y="704" type="line"/>
      <point x="131" y="651" type="line"/>
      <point x="143" y="651" type="line" smooth="yes"/>
      <point x="177" y="651"/>
      <point x="195" y="634"/>
      <point x="195" y="600" type="curve" smooth="yes"/>
      <point x="195" y="467" type="line"/>
    </contour>
    <contour>
      <point x="20" y="395" type="line" smooth="yes"/>
      <point x="20" y="375"/>
      <point x="28" y="362"/>
      <point x="44" y="355" type="curve" smooth="yes"/>
      <point x="236" y="265" type="line"/>
      <point x="194" y="309" type="line"/>
      <point x="195" y="86" type="line" smooth="yes"/>
      <point x="195" y="60"/>
      <point x="177" y="46"/>
      <point x="143" y="46" type="curve" smooth="yes"/>
      <point x="116" y="46" type="line"/>
      <point x="116" y="-7" type="line"/>
      <point x="143" y="-7" type="line" smooth="yes"/>
      <point x="212" y="-7"/>
      <point x="248" y="25"/>
      <point x="248" y="86" type="curve" smooth="yes"/>
      <point x="248" y="286" type="line" smooth="yes"/>
      <point x="248" y="306"/>
      <point x="239" y="319"/>
      <point x="224" y="326" type="curve" smooth="yes"/>
      <point x="64" y="402" type="line"/>
      <point x="74" y="375" type="line"/>
      <point x="73" y="611" type="line" smooth="yes"/>
      <point x="73" y="637"/>
      <point x="91" y="651"/>
      <point x="125" y="651" type="curve" smooth="yes"/>
      <point x="152" y="651" type="line"/>
      <point x="152" y="704" type="line"/>
      <point x="125" y="704" type="line" smooth="yes"/>
      <point x="56" y="704"/>
      <point x="20" y="672"/>
      <point x="20" y="611" type="curve" smooth="yes"/>
    </contour>
  </outline>
</glyph>
<glyph name="T" format="2">
  <advance width="166"/>
  <unicode hex="0054"/>
  <outline>
    <contour>
      <point x="57" y="700" type="line"/>
      <point x="57" y="0" type="line"/>
      <point x="110" y="0" type="line"/>
      <point x="110" y="700" type="line"/>
    </contour>
    <contour>
      <point x="206" y="700" type="line"/>
      <point x="-40" y="700" type="line"/>
      <point x="-40" y="647" type="line"/>
      <point x="206" y="647" type="line"/>
    </contour>
  </outline>
</glyph>
<glyph name="U" format="2">
  <advance width="281"/>
  <unicode hex="0055"/>
  <anchor x="150" y="-7" name="bottom"/>
  <anchor x="253" y="10" name="ogonek"/>
  <anchor x="141" y="700" name="top"/>
  <anchor x="261" y="700" name="topright"/>
  <outline>
    <contour>
      <point x="86" y="700" type="line"/>
      <point x="25" y="700" type="line"/>
      <point x="15" y="647" type="line"/>
      <point x="86" y="647" type="line"/>
    </contour>
    <contour>
      <point x="261" y="97" type="curve" smooth="yes"/>
      <point x="261" y="700" type="line"/>
      <point x="208" y="700" type="line"/>
      <point x="208" y="97" type="line" smooth="yes"/>
      <point x="208" y="63"/>
      <point x="191" y="46"/>
      <point x="149" y="46" type="curve" smooth="yes"/>
      <point x="145" y="46" type="line" smooth="yes"/>
      <point x="103" y="46"/>
      <point x="86" y="64"/>
      <point x="86" y="97" type="curve" smooth="yes"/>
      <point x="86" y="700" type="line"/>
      <point x="33" y="700" type="line"/>
      <point x="33" y="97" type="line" smooth="yes"/>
      <point x="33" y="28"/>
      <point x="71" y="-7"/>
      <point x="145" y="-7" type="curve" smooth="yes"/>
      <point x="149" y="-7" type="line" smooth="yes"/>
      <point x="225" y="-7"/>
      <point x="261" y="28"/>
    </contour>
  </outline>
</glyph>
<glyph name="V" format="2">
  <advance width="296"/>
  <unicode hex="0056"/>
  <outline>
    <contour>
      <point x="15" y="700" type="line"/>
      <point x="118" y="0" type="line"/>
      <point x="178" y="0" type="line"/>
      <point x="281" y="700" type="line"/>
      <point x="229" y="700" type="line"/>
      <point x="140" y="76" type="line"/>
      <point x="156" y="76" type="line"/>
      <point x="67" y="700" type="line"/>
    </contour>
  </outline>
</glyph>
<glyph name="W" format="2">
  <advance width="418"/>
  <unicode hex="0057"/>
  <anchor x="209" y="0" name="bottom"/>
  <anchor x="209" y="700" name="top"/>
  <outline>
    <contour>
      <point x="234" y="601" type="line"/>
      <point x="184" y="601" type="line"/>
      <point x="97" y="0" type="line"/>
      <point x="141" y="0" type="line"/>
      <point x="215" y="536" type="line"/>
      <point x="202" y="536" type="line"/>
      <point x="277" y="0" type="line"/>
      <point x="321" y="0" type="line"/>
    </contour>
    <contour>
      <point x="65" y="0" type="line"/>
      <point x="118" y="0" type="line"/>
      <point x="68" y="700" type="line"/>
      <point x="15" y="700" type="line"/>
    </contour>
    <contour>
      <point x="300" y="0" type="line"/>
      <point x="353" y="0" type="line"/>
      <point x="403" y="700" type="line"/>
      <point x="350" y="700" type="line"/>
    </contour>
  </outline>
</glyph>
<glyph name="X" format="2">
  <advance width="305"/>
  <unicode hex="0058"/>
  <outline>
    <contour>
      <point x="15" y="700" type="line"/>
      <point x="126" y="309" type="line"/>
      <point x="179" y="309" type="line"/>
      <point x="290" y="700" type="line"/>
      <point x="237" y="700" type="line"/>
      <point x="136" y="351" type="line"/>
      <point x="166" y="351" type="line"/>
      <point x="69" y="700" type="line"/>
    </contour>
    <contour>
      <point x="15" y="0" type="line"/>
      <point x="69" y="0" type="line"/>
      <point x="166" y="349" type="line"/>
      <point x="136" y="349" type="line"/>
      <point x="237" y="0" type="line"/>
      <point x="290" y="0" type="line"/>
      <point x="179" y="391" type="line"/>
      <point x="126" y="391" type="line"/>
    </contour>
  </outline>
</glyph>
<glyph name="Z" format="2">
  <advance width="264"/>
  <unicode hex="005A"/>
  <anchor x="132" y="0" name="bottom"/>
  <anchor x="132" y="350" name="center"/>
  <anchor x="132" y="700" name="top"/>
  <outline>
    <contour>
      <point x="249" y="53" type="line"/>
      <point x="86" y="53" type="line" smooth="yes"/>
      <point x="72" y="53"/>
      <point x="69" y="56"/>
      <point x="73" y="70" type="curve" smooth="yes"/>
      <point x="244" y="630" type="line" smooth="yes"/>
      <point x="248" y="643"/>
      <point x="249" y="649"/>
      <point x="249" y="658" type="curve" smooth="yes"/>
      <point x="249" y="700" type="line"/>
      <point x="15" y="700" type="line"/>
      <point x="15" y="647" type="line"/>
      <point x="178" y="647" type="line" smooth="yes"/>
      <point x="192" y="647"/>
      <point x="195" y="644"/>
      <point x="191" y="630" type="curve" smooth="yes"/>
      <point x="20" y="70" type="line" smooth="yes"/>
      <point x="16" y="57"/>
      <point x="15" y="51"/>
      <point x="15" y="42" type="curve" smooth="yes"/>
      <point x="15" y="0" type="line"/>
      <point x="249" y="0" type="line"/>
    </contour>
  </outline>
</glyph>
<glyph name="bracketleft" format="2">
  <advance width="86"/>
  <unicode hex="005B"/>
  <note>
bracketleft
</note>
  <outline>
    <contour>
      <point x="106" y="-130" type="line"/>
      <point x="106" y="-87" type="line"/>
      <point x="11" y="-87" type="line"/>
      <point x="53" y="-119" type="line"/>
      <point x="53" y="714" type="line"/>
      <point x="11" y="690" type="line"/>
      <point x="106" y="690" type="line"/>
      <point x="106" y="733" type="line"/>
      <point x="0" y="733" type="line"/>
      <point x="0" y="-130" type="line"/>
    </contour>
  </outline>
</glyph>
<glyph name="backslash" format="2">
  <advance width="180"/>
  <unicode hex="005C"/>
  <note>
backslash
</note>
  <outline>
    <contour>
      <point x="63" y="640" type="line"/>
      <point x="10" y="640" type="line"/>
      <point x="117" y="-37" type="line"/>
      <point x="170" y="-37" type="line"/>
    </contour>
  </outline>
</glyph>
<glyph name="bracketright" format="2">
  <advance width="86"/>
  <unicode hex="005D"/>
  <note>
bracketright
</note>
  <outline>
    <contour>
      <point x="-20" y="-130" type="line"/>
      <point x="86" y="-130" type="line"/>
      <point x="86" y="733" type="line"/>
      <point x="-20" y="733" type="line"/>
      <point x="-20" y="690" type="line"/>
      <point x="75" y="690" type="line"/>
      <point x="33" y="714" type="line"/>
      <point x="33" y="-119" type="line"/>
      <point x="75" y="-87" type="line"/>
      <point x="-20" y="-87" type="line"/>
    </contour>
  </outline>
</glyph>
<glyph name="asciicircum" format="2">
  <advance width="315"/>
  <unicode hex="005E"/>
  <note>
asciicircum
</note>
  <outline>
    <contour>
      <point x="295" y="424" type="line"/>
      <point x="184" y="600" type="line"/>
      <point x="131" y="600" type="line"/>
      <point x="242" y="424" type="line"/>
    </contour>
    <contour>
      <point x="20" y="424" type="line"/>
      <point x="73" y="424" type="line"/>
      <point x="184" y="600" type="line"/>
      <point x="131" y="600" type="line"/>
    </contour>
  </outline>
</glyph>
<glyph name="underscore" format="2">
  <advance width="280"/>
  <unicode hex="005F"/>
  <note>
underscore
</note>
  <outline>
    <contour>
      <point x="20" y="0" type="line"/>
      <point x="260" y="0" type="line"/>
      <point x="260" y="53" type="line"/>
      <point x="20" y="53" type="line"/>
    </contour>
  </outline>
</glyph>
<glyph name="b" format="2">
  <advance width="259"/>
  <unicode hex="0062"/>
  <outline>
    <contour>
      <point x="33" y="0" type="line"/>
      <point x="86" y="0" type="line"/>
      <point x="86" y="700" type="line"/>
      <point x="33" y="700" type="line"/>
    </contour>
    <contour>
      <point x="15" y="647" type="line"/>
      <point x="86" y="647" type="line"/>
      <point x="86" y="700" type="line"/>
      <point x="23" y="700" type="line"/>
    </contour>
    <contour>
      <point x="239" y="93" type="curve" smooth="yes"/>
      <point x="239" y="298" type="line"/>
      <point x="186" y="298" type="line"/>
      <point x="186" y="83" type="line" smooth="yes"/>
      <point x="186" y="59"/>
      <point x="180" y="53"/>
      <point x="156" y="53" type="curve" smooth="yes"/>
      <point x="43" y="53" type="line"/>
      <point x="43" y="53"/>
      <point x="43" y="52"/>
      <point x="43" y="52" type="curve" smooth="yes"/>
      <point x="43" y="38"/>
      <point x="85" y="0"/>
      <point x="135" y="0" type="curve" smooth="yes"/>
      <point x="137" y="0" type="line" smooth="yes"/>
      <point x="191" y="0"/>
      <point x="239" y="23"/>
    </contour>
    <contour>
      <point x="61" y="447" type="line"/>
      <point x="156" y="447" type="line" smooth="yes"/>
      <point x="180" y="447"/>
      <point x="186" y="441"/>
      <point x="186" y="417" type="curve" smooth="yes"/>
      <point x="186" y="242" type="line"/>
      <point x="239" y="242" type="line"/>
      <point x="239" y="407" type="line" smooth="yes"/>
      <point x="239" y="461"/>
      <point x="199" y="500"/>
      <point x="138" y="500" type="curve" smooth="yes"/>
      <point x="109" y="500" type="line"/>
    </contour>
  </outline>
</glyph>
<glyph name="c" format="2">
  <advance width="261"/>
  <unicode hex="0063"/>
  <outline>
    <contour>
      <point x="241" y="100" type="curve" smooth="yes"/>
      <point x="241" y="209" type="line"/>
      <point x="188" y="209" type="line"/>
      <point x="188" y="100" type="line" smooth="yes"/>
      <point x="188" y="59"/>
      <point x="178" y="49"/>
      <point x="136" y="49" type="curve" smooth="yes"/>
      <point x="130" y="49" type="line"/>
      <point x="130" y="-4" type="line"/>
      <point x="136" y="-4" type="line" smooth="yes"/>
      <point x="205" y="-4"/>
      <point x="241" y="32"/>
    </contour>
    <contour>
      <point x="20" y="100" type="line" smooth="yes"/>
      <point x="20" y="32"/>
      <point x="56" y="-4"/>
      <point x="125" y="-4" type="curve" smooth="yes"/>
      <point x="130" y="-4" type="line"/>
      <point x="130" y="49" type="line"/>
      <point x="125" y="49" type="line" smooth="yes"/>
      <point x="83" y="49"/>
      <point x="73" y="59"/>
      <point x="73" y="100" type="curve" smooth="yes"/>
      <point x="73" y="234" type="line"/>
      <point x="20" y="234" type="line"/>
    </contour>
    <contour>
      <point x="241" y="400" type="line" smooth="yes"/>
      <point x="241" y="468"/>
      <point x="205" y="504"/>
      <point x="136" y="504" type="curve" smooth="yes"/>
      <point x="130" y="504" type="line"/>
      <point x="130" y="451" type="line"/>
      <point x="136" y="451" type="line" smooth="yes"/>
      <point x="178" y="451"/>
      <point x="188" y="441"/>
      <point x="188" y="400" type="curve" smooth="yes"/>
      <point x="188" y="287" type="line"/>
      <point x="241" y="281" type="line"/>
    </contour>
    <contour>
      <point x="20" y="400" type="curve" smooth="yes"/>
      <point x="20" y="234" type="line"/>
      <point x="73" y="234" type="line"/>
      <point x="73" y="400" type="line" smooth="yes"/>
      <point x="73" y="441"/>
      <point x="83" y="451"/>
      <point x="125" y="451" type="curve" smooth="yes"/>
      <point x="130" y="451" type="line"/>
      <point x="130" y="504" type="line"/>
      <point x="125" y="504" type="line" smooth="yes"/>
      <point x="56" y="504"/>
      <point x="20" y="468"/>
    </contour>
  </outline>
</glyph>
<glyph name="d" format="2">
  <advance width="261"/>
  <unicode hex="0064"/>
  <outline>
    <contour>
      <point x="173" y="0" type="line"/>
      <point x="226" y="0" type="line"/>
      <point x="226" y="700" type="line"/>
      <point x="173" y="700" type="line"/>
    </contour>
    <contour>
      <point x="155" y="647" type="line"/>
      <point x="226" y="647" type="line"/>
      <point x="226" y="700" type="line"/>
      <point x="163" y="700" type="line"/>
    </contour>
    <contour>
      <point x="173" y="0" type="line"/>
      <point x="246" y="0" type="line"/>
      <point x="238" y="53" type="line"/>
      <point x="173" y="53" type="line"/>
    </contour>
    <contour>
      <point x="20" y="202" type="line"/>
      <point x="73" y="202" type="line"/>
      <point x="73" y="417" type="line" smooth="yes"/>
      <point x="73" y="441"/>
      <point x="79" y="447"/>
      <point x="103" y="447" type="curve" smooth="yes"/>
      <point x="216" y="447" type="line"/>
      <point x="216" y="448" type="line" smooth="yes"/>
      <point x="216" y="463"/>
      <point x="174" y="500"/>
      <point x="124" y="500" type="curve" smooth="yes"/>
      <point x="122" y="500" type="line" smooth="yes"/>
      <point x="57" y="500"/>
      <point x="20" y="468"/>
      <point x="20" y="407" type="curve" smooth="yes"/>
    </contour>
    <contour>
      <point x="121" y="0" type="curve" smooth="yes"/>
      <point x="150" y="0" type="line"/>
      <point x="198" y="53" type="line"/>
      <point x="103" y="53" type="line" smooth="yes"/>
      <point x="79" y="53"/>
      <point x="73" y="59"/>
      <point x="73" y="83" type="curve" smooth="yes"/>
      <point x="73" y="258" type="line"/>
      <point x="20" y="258" type="line"/>
      <point x="20" y="93" type="line" smooth="yes"/>
      <point x="20" y="39"/>
      <point x="60" y="0"/>
    </contour>
  </outline>
</glyph>
<glyph name="f" format="2">
  <advance width="154"/>
  <unicode hex="0066"/>
  <outline>
    <contour>
      <point x="149" y="700" type="line"/>
      <point x="100" y="700" type="line" smooth="yes"/>
      <point x="68" y="700"/>
      <point x="47" y="679"/>
      <point x="47" y="647" type="curve" smooth="yes"/>
      <point x="47" y="541" type="line"/>
      <point x="47" y="0" type="line"/>
      <point x="100" y="0" type="line"/>
      <point x="100" y="647" type="line"/>
      <point x="149" y="647" type="line"/>
    </contour>
    <contour>
      <point x="13" y="500" type="line"/>
      <point x="5" y="447" type="line"/>
      <point x="141" y="447" type="line"/>
      <point x="149" y="500" type="line"/>
    </contour>
  </outline>
</glyph>
<glyph name="g" format="2">
  <advance width="246"/>
  <unicode hex="0067"/>
  <outline>
    <contour>
      <point x="173" y="500" type="line"/>
      <point x="173" y="-14" type="line"/>
      <point x="226" y="-14" type="line"/>
      <point x="226" y="500" type="line"/>
    </contour>
    <contour>
      <point x="20" y="202" type="line"/>
      <point x="73" y="202" type="line"/>
      <point x="73" y="417" type="line" smooth="yes"/>
      <point x="73" y="441"/>
      <point x="79" y="447"/>
      <point x="103" y="447" type="curve" smooth="yes"/>
      <point x="216" y="447" type="line"/>
      <point x="216" y="448" type="line" smooth="yes"/>
      <point x="216" y="463"/>
      <point x="174" y="500"/>
      <point x="124" y="500" type="curve" smooth="yes"/>
      <point x="122" y="500" type="line" smooth="yes"/>
      <point x="57" y="500"/>
      <point x="20" y="468"/>
      <point x="20" y="407" type="curve" smooth="yes"/>
    </contour>
    <contour>
      <point x="121" y="0" type="curve" smooth="yes"/>
      <point x="150" y="0" type="line"/>
      <point x="198" y="53" type="line"/>
      <point x="103" y="53" type="line" smooth="yes"/>
      <point x="79" y="53"/>
      <point x="73" y="59"/>
      <point x="73" y="83" type="curve" smooth="yes"/>
      <point x="73" y="258" type="line"/>
      <point x="20" y="258" type="line"/>
      <point x="20" y="93" type="line" smooth="yes"/>
      <point x="20" y="39"/>
      <point x="60" y="0"/>
    </contour>
    <contour>
      <point x="226" y="-26" type="curve" smooth="yes"/>
      <point x="226" y="22" type="line"/>
      <point x="173" y="22" type="line"/>
      <point x="173" y="-26" type="line" smooth="yes"/>
      <point x="173" y="-67"/>
      <point x="163" y="-77"/>
      <point x="121" y="-77" type="curve" smooth="yes"/>
      <point x="115" y="-77" type="line"/>
      <point x="115" y="-130" type="line"/>
      <point x="121" y="-130" type="line" smooth="yes"/>
      <point x="190" y="-130"/>
      <point x="226" y="-94"/>
    </contour>
    <contour>
      <point x="73" y="-23" type="line"/>
      <point x="20" y="-23" type="line"/>
      <point x="20" y="-26" type="line" smooth="yes"/>
      <point x="20" y="-94"/>
      <point x="56" y="-130"/>
      <point x="125" y="-130" type="curve" smooth="yes"/>
      <point x="130" y="-130" type="line"/>
      <point x="130" y="-77" type="line"/>
      <point x="125" y="-77" type="line" smooth="yes"/>
      <point x="83" y="-77"/>
      <point x="73" y="-67"/>
      <point x="73" y="-26" type="curve" smooth="yes"/>
    </contour>
  </outline>
</glyph>
<glyph name="i" format="2">
  <advance width="102"/>
  <unicode hex="0069"/>
  <outline>
    <contour>
      <point x="29" y="0" type="line"/>
      <point x="82" y="0" type="line"/>
      <point x="82" y="500" type="line"/>
      <point x="29" y="500" type="line"/>
    </contour>
    <contour>
      <point x="82" y="500" type="line"/>
      <point x="23" y="500" type="line"/>
      <point x="15" y="447" type="line"/>
      <point x="82" y="447" type="line"/>
    </contour>
    <contour>
      <point x="23" y="590" type="line"/>
      <point x="23" y="537" type="line"/>
      <point x="82" y="537" type="line"/>
      <point x="74" y="590" type="line"/>
    </contour>
  </outline>
</glyph>
<glyph name="j" format="2">
  <advance width="125"/>
  <unicode hex="006A"/>
  <outline>
    <contour>
      <point x="0" y="-94" type="line"/>
      <point x="52" y="-94" type="line" smooth="yes"/>
      <point x="84" y="-94"/>
      <point x="105" y="-73"/>
      <point x="105" y="-41" type="curve" smooth="yes"/>
      <point x="105" y="447" type="line"/>
      <point x="52" y="447" type="line"/>
      <point x="52" y="-43" type="line"/>
      <point x="54" y="-41" type="line"/>
      <point x="0" y="-41" type="line"/>
    </contour>
    <contour>
      <point x="38" y="447" type="line"/>
      <point x="105" y="447" type="line"/>
      <point x="105" y="500" type="line"/>
      <point x="46" y="500" type="line"/>
    </contour>
    <contour>
      <point x="46" y="537" type="line"/>
      <point x="105" y="537" type="line"/>
      <point x="97" y="590" type="line"/>
      <point x="46" y="590" type="line"/>
    </contour>
  </outline>
</glyph>
<glyph name="k" format="2">
  <advance width="256"/>
  <unicode hex="006B"/>
  <outline>
    <contour>
      <point x="33" y="0" type="line"/>
      <point x="86" y="0" type="line"/>
      <point x="86" y="700" type="line"/>
      <point x="33" y="700" type="line"/>
    </contour>
    <contour>
      <point x="86" y="700" type="line"/>
      <point x="23" y="700" type="line"/>
      <point x="15" y="647" type="line"/>
      <point x="86" y="647" type="line"/>
    </contour>
    <contour>
      <point x="114" y="312" type="line"/>
      <point x="61" y="312" type="line"/>
      <point x="188" y="0" type="line"/>
      <point x="241" y="0" type="line"/>
    </contour>
    <contour>
      <point x="114" y="262" type="line"/>
      <point x="231" y="500" type="line"/>
      <point x="178" y="500" type="line"/>
      <point x="61" y="262" type="line"/>
    </contour>
  </outline>
</glyph>
<glyph name="l" format="2">
  <advance width="126"/>
  <unicode hex="006C"/>
  <outline>
    <contour>
      <point x="28" y="0" type="line"/>
      <point x="81" y="0" type="line"/>
      <point x="81" y="700" type="line"/>
      <point x="28" y="700" type="line"/>
    </contour>
    <contour>
      <point x="81" y="700" type="line"/>
      <point x="18" y="700" type="line"/>
      <point x="10" y="647" type="line"/>
      <point x="81" y="647" type="line"/>
    </contour>
    <contour>
      <point x="28" y="0" type="line"/>
      <point x="108" y="0" type="line"/>
      <point x="116" y="53" type="line"/>
      <point x="28" y="53" type="line"/>
    </contour>
  </outline>
</glyph>
<glyph name="m" format="2">
  <advance width="422"/>
  <unicode hex="006D"/>
  <anchor x="212" y="0" name="bottom"/>
  <anchor x="212" y="500" name="top"/>
  <outline>
    <contour>
      <point x="86" y="500" type="line"/>
      <point x="33" y="500" type="line"/>
      <point x="33" y="0" type="line"/>
      <point x="86" y="0" type="line"/>
    </contour>
    <contour>
      <point x="86" y="500" type="line"/>
      <point x="23" y="500" type="line"/>
      <point x="15" y="447" type="line"/>
      <point x="86" y="447" type="line"/>
    </contour>
    <contour>
      <point x="334" y="0" type="line"/>
      <point x="397" y="0" type="line"/>
      <point x="407" y="53" type="line"/>
      <point x="334" y="53" type="line"/>
    </contour>
    <contour>
      <point x="237" y="0" type="line"/>
      <point x="237" y="407" type="line" smooth="yes"/>
      <point x="237" y="461"/>
      <point x="197" y="500"/>
      <point x="136" y="500" type="curve" smooth="yes"/>
      <point x="107" y="500" type="line"/>
      <point x="59" y="447" type="line"/>
      <point x="154" y="447" type="line" smooth="yes"/>
      <point x="178" y="447"/>
      <point x="184" y="441"/>
      <point x="184" y="417" type="curve" smooth="yes"/>
      <point x="184" y="0" type="line"/>
    </contour>
    <contour>
      <point x="387" y="0" type="line"/>
      <point x="387" y="407" type="line" smooth="yes"/>
      <point x="387" y="461"/>
      <point x="347" y="500"/>
      <point x="286" y="500" type="curve" smooth="yes"/>
      <point x="247" y="500" type="line"/>
      <point x="199" y="447" type="line"/>
      <point x="304" y="447" type="line" smooth="yes"/>
      <point x="328" y="447"/>
      <point x="334" y="441"/>
      <point x="334" y="417" type="curve" smooth="yes"/>
      <point x="334" y="0" type="line"/>
    </contour>
  </outline>
</glyph>
<glyph name="n" format="2">
  <advance width="270"/>
  <unicode hex="006E"/>
  <anchor x="135" y="0" name="bottom"/>
  <anchor x="135" y="500" name="top"/>
  <outline>
    <contour>
      <point x="33" y="0" type="line"/>
      <point x="86" y="0" type="line"/>
      <point x="86" y="500" type="line"/>
      <point x="33" y="500" type="line"/>
    </contour>
    <contour>
      <point x="15" y="447" type="line"/>
      <point x="86" y="447" type="line"/>
      <point x="86" y="500" type="line"/>
      <point x="23" y="500" type="line"/>
    </contour>
    <contour>
      <point x="237" y="0" type="line"/>
      <point x="237" y="407" type="line" smooth="yes"/>
      <point x="237" y="461"/>
      <point x="197" y="500"/>
      <point x="136" y="500" type="curve" smooth="yes"/>
      <point x="107" y="500" type="line"/>
      <point x="59" y="447" type="line"/>
      <point x="154" y="447" type="line" smooth="yes"/>
      <point x="178" y="447"/>
      <point x="184" y="441"/>
      <point x="184" y="417" type="curve" smooth="yes"/>
      <point x="184" y="0" type="line"/>
    </contour>
    <contour>
      <point x="184" y="0" type="line"/>
      <point x="247" y="0" type="line"/>
      <point x="255" y="53" type="line"/>
      <point x="184" y="53" type="line"/>
    </contour>
  </outline>
</glyph>
<glyph name="o" format="2">
  <advance width="268"/>
  <unicode hex="006F"/>
  <anchor x="137" y="-4" name="bottom"/>
  <anchor x="137" y="250" name="center"/>
  <anchor x="244" y="-4" name="ogonek"/>
  <anchor x="137" y="504" name="top"/>
  <anchor x="251" y="504" name="topright"/>
  <outline>
    <contour>
      <point x="248" y="100" type="curve" smooth="yes"/>
      <point x="248" y="248" type="line"/>
      <point x="195" y="248" type="line"/>
      <point x="195" y="100" type="line" smooth="yes"/>
      <point x="195" y="59"/>
      <point x="185" y="49"/>
      <point x="143" y="49" type="curve" smooth="yes"/>
      <point x="134" y="49" type="line"/>
      <point x="134" y="-4" type="line"/>
      <point x="143" y="-4" type="line" smooth="yes"/>
      <point x="212" y="-4"/>
      <point x="248" y="32"/>
    </contour>
    <contour>
      <point x="20" y="100" type="line" smooth="yes"/>
      <point x="20" y="32"/>
      <point x="56" y="-4"/>
      <point x="125" y="-4" type="curve" smooth="yes"/>
      <point x="134" y="-4" type="line"/>
      <point x="134" y="49" type="line"/>
      <point x="125" y="49" type="line" smooth="yes"/>
      <point x="83" y="49"/>
      <point x="73" y="59"/>
      <point x="73" y="100" type="curve" smooth="yes"/>
      <point x="73" y="248" type="line"/>
      <point x="20" y="248" type="line"/>
    </contour>
    <contour>
      <point x="248" y="400" type="line" smooth="yes"/>
      <point x="248" y="468"/>
      <point x="212" y="504"/>
      <point x="143" y="504" type="curve" smooth="yes"/>
      <point x="134" y="504" type="line"/>
      <point x="134" y="451" type="line"/>
      <point x="143" y="451" type="line" smooth="yes"/>
      <point x="185" y="451"/>
      <point x="195" y="441"/>
      <point x="195" y="400" type="curve" smooth="yes"/>
      <point x="195" y="248" type="line"/>
      <point x="248" y="248" type="line"/>
    </contour>
    <contour>
      <point x="20" y="400" type="curve" smooth="yes"/>
      <point x="20" y="248" type="line"/>
      <point x="73" y="248" type="line"/>
      <point x="73" y="400" type="line" smooth="yes"/>
      <point x="73" y="441"/>
      <point x="83" y="451"/>
      <point x="125" y="451" type="curve" smooth="yes"/>
      <point x="134" y="451" type="line"/>
      <point x="134" y="504" type="line"/>
      <point x="125" y="504" type="line" smooth="yes"/>
      <point x="56" y="504"/>
      <point x="20" y="468"/>
    </contour>
  </outline>
</glyph>
<glyph name="p" format="2">
  <advance width="261"/>
  <unicode hex="0070"/>
  <outline>
    <contour>
      <point x="88" y="500" type="line"/>
      <point x="35" y="500" type="line"/>
      <point x="35" y="-133" type="line"/>
      <point x="88" y="-133" type="line"/>
    </contour>
    <contour>
      <point x="88" y="500" type="line"/>
      <point x="25" y="500" type="line"/>
      <point x="15" y="447" type="line"/>
      <point x="88" y="447" type="line"/>
    </contour>
    <contour>
      <point x="241" y="93" type="curve" smooth="yes"/>
      <point x="241" y="298" type="line"/>
      <point x="188" y="298" type="line"/>
      <point x="188" y="83" type="line" smooth="yes"/>
      <point x="188" y="59"/>
      <point x="182" y="53"/>
      <point x="158" y="53" type="curve" smooth="yes"/>
      <point x="45" y="53" type="line"/>
      <point x="45" y="53"/>
      <point x="45" y="52"/>
      <point x="45" y="52" type="curve" smooth="yes"/>
      <point x="45" y="38"/>
      <point x="87" y="0"/>
      <point x="137" y="0" type="curve" smooth="yes"/>
      <point x="139" y="0" type="line" smooth="yes"/>
      <point x="193" y="0"/>
      <point x="241" y="23"/>
    </contour>
    <contour>
      <point x="63" y="447" type="line"/>
      <point x="158" y="447" type="line" smooth="yes"/>
      <point x="182" y="447"/>
      <point x="188" y="441"/>
      <point x="188" y="417" type="curve" smooth="yes"/>
      <point x="188" y="242" type="line"/>
      <point x="241" y="242" type="line"/>
      <point x="241" y="407" type="line" smooth="yes"/>
      <point x="241" y="461"/>
      <point x="201" y="500"/>
      <point x="140" y="500" type="curve" smooth="yes"/>
      <point x="111" y="500" type="line"/>
    </contour>
  </outline>
</glyph>
<glyph name="r" format="2">
  <advance width="165"/>
  <unicode hex="0072"/>
  <outline>
    <contour>
      <point x="76" y="500" type="line"/>
      <point x="23" y="500" type="line"/>
      <point x="23" y="0" type="line"/>
      <point x="76" y="0" type="line"/>
    </contour>
    <contour>
      <point x="76" y="500" type="line"/>
      <point x="13" y="500" type="line"/>
      <point x="5" y="447" type="line"/>
      <point x="76" y="447" type="line"/>
    </contour>
    <contour>
      <point x="150" y="500" type="line"/>
      <point x="99" y="500" type="line"/>
      <point x="63" y="441" type="line"/>
      <point x="150" y="441" type="line"/>
    </contour>
  </outline>
</glyph>
<glyph name="s" format="2">
  <advance width="268"/>
  <unicode hex="0073"/>
  <outline>
    <contour>
      <point x="125" y="504" type="line" smooth="yes"/>
      <point x="56" y="504"/>
      <point x="20" y="472"/>
      <point x="20" y="411" type="curve" smooth="yes"/>
      <point x="20" y="297" type="line" smooth="yes"/>
      <point x="20" y="277"/>
      <point x="28" y="264"/>
      <point x="44" y="257" type="curve" smooth="yes"/>
      <point x="236" y="166" type="line"/>
      <point x="194" y="211" type="line"/>
      <point x="195" y="89" type="line"/>
      <point x="195" y="63"/>
      <point x="177" y="49"/>
      <point x="143" y="49" type="curve" smooth="yes"/>
      <point x="116" y="49" type="line"/>
      <point x="116" y="-4" type="line"/>
      <point x="143" y="-4" type="line" smooth="yes"/>
      <point x="212" y="-4"/>
      <point x="248" y="28"/>
      <point x="248" y="89" type="curve" smooth="yes"/>
      <point x="248" y="188" type="line" smooth="yes"/>
      <point x="248" y="207"/>
      <point x="240" y="221"/>
      <point x="224" y="228" type="curve" smooth="yes"/>
      <point x="64" y="304" type="line"/>
      <point x="74" y="277" type="line"/>
      <point x="73" y="417" type="line" smooth="yes"/>
      <point x="73" y="437"/>
      <point x="91" y="451"/>
      <point x="125" y="451" type="curve" smooth="yes"/>
      <point x="152" y="451" type="line"/>
      <point x="152" y="504" type="line"/>
    </contour>
    <contour>
      <point x="20" y="180" type="line"/>
      <point x="20" y="100" type="line" smooth="yes"/>
      <point x="20" y="32"/>
      <point x="56" y="-4"/>
      <point x="125" y="-4" type="curve" smooth="yes"/>
      <point x="143" y="-4" type="line"/>
      <point x="143" y="49" type="line"/>
      <point x="125" y="49" type="line" smooth="yes"/>
      <point x="91" y="49"/>
      <point x="73" y="66"/>
      <point x="73" y="100" type="curve" smooth="yes"/>
      <point x="73" y="173" type="line"/>
    </contour>
    <contour>
      <point x="248" y="318" type="line"/>
      <point x="248" y="400" type="line" smooth="yes"/>
      <point x="248" y="468"/>
      <point x="212" y="504"/>
      <point x="143" y="504" type="curve" smooth="yes"/>
      <point x="131" y="504" type="line"/>
      <point x="131" y="451" type="line"/>
      <point x="143" y="451" type="line" smooth="yes"/>
      <point x="177" y="451"/>
      <point x="195" y="434"/>
      <point x="195" y="400" type="curve"/>
      <point x="195" y="323" type="line"/>
    </contour>
  </outline>
</glyph>
<glyph name="t" format="2">
  <advance width="153"/>
  <unicode hex="0074"/>
  <anchor x="77" y="0" name="bottom"/>
  <anchor x="77" y="338" name="center"/>
  <anchor x="68" y="500" name="top"/>
  <anchor x="133" y="500" name="topright"/>
  <outline>
    <contour>
      <point x="148" y="53" type="line"/>
      <point x="78" y="53" type="line"/>
      <point x="100" y="31" type="line"/>
      <point x="100" y="700" type="line"/>
      <point x="47" y="700" type="line"/>
      <point x="47" y="53" type="line"/>
      <point x="47" y="21"/>
      <point x="68" y="0"/>
      <point x="100" y="0" type="curve" smooth="yes"/>
      <point x="148" y="0" type="line"/>
    </contour>
    <contour>
      <point x="5" y="447" type="line"/>
      <point x="140" y="447" type="line"/>
      <point x="148" y="500" type="line"/>
      <point x="13" y="500" type="line"/>
    </contour>
    <contour>
      <point x="29" y="647" type="line"/>
      <point x="100" y="647" type="line"/>
      <point x="100" y="700" type="line"/>
      <point x="37" y="700" type="line"/>
    </contour>
  </outline>
</glyph>
<glyph name="u" format="2">
  <advance width="274"/>
  <unicode hex="0075"/>
  <anchor x="137" y="0" name="bottom"/>
  <anchor x="247" y="10" name="ogonek"/>
  <anchor x="137" y="500" name="top"/>
  <anchor x="254" y="500" name="topright"/>
  <outline>
    <contour>
      <point x="239" y="500" type="line"/>
      <point x="186" y="500" type="line"/>
      <point x="186" y="0" type="line"/>
      <point x="239" y="0" type="line"/>
    </contour>
    <contour>
      <point x="186" y="53" type="line"/>
      <point x="186" y="0" type="line"/>
      <point x="259" y="0" type="line"/>
      <point x="251" y="53" type="line"/>
    </contour>
    <contour>
      <point x="88" y="500" type="line"/>
      <point x="25" y="500" type="line"/>
      <point x="15" y="447" type="line"/>
      <point x="88" y="447" type="line"/>
    </contour>
    <contour>
      <point x="35" y="500" type="line"/>
      <point x="35" y="93" type="line" smooth="yes"/>
      <point x="35" y="39"/>
      <point x="75" y="0"/>
      <point x="136" y="0" type="curve" smooth="yes"/>
      <point x="165" y="0" type="line"/>
      <point x="213" y="53" type="line"/>
      <point x="118" y="53" type="line" smooth="yes"/>
      <point x="94" y="53"/>
      <point x="88" y="59"/>
      <point x="88" y="83" type="curve" smooth="yes"/>
      <point x="88" y="500" type="line"/>
    </contour>
  </outline>
</glyph>
<glyph name="v" format="2">
  <advance width="263"/>
  <unicode hex="0076"/>
  <outline>
    <contour>
      <point x="15" y="500" type="line"/>
      <point x="111" y="0" type="line"/>
      <point x="152" y="0" type="line"/>
      <point x="248" y="500" type="line"/>
      <point x="200" y="500" type="line"/>
      <point x="131" y="103" type="line"/>
      <point x="132" y="103" type="line"/>
      <point x="63" y="500" type="line"/>
    </contour>
  </outline>
</glyph>
<glyph name="w" format="2">
  <advance width="422"/>
  <unicode hex="0077"/>
  <outline>
    <contour>
      <point x="336" y="0" type="line"/>
      <point x="389" y="0" type="line"/>
      <point x="389" y="500" type="line"/>
      <point x="336" y="500" type="line"/>
    </contour>
    <contour>
      <point x="336" y="53" type="line"/>
      <point x="336" y="0" type="line"/>
      <point x="407" y="0" type="line"/>
      <point x="399" y="53" type="line"/>
    </contour>
    <contour>
      <point x="88" y="500" type="line"/>
      <point x="25" y="500" type="line"/>
      <point x="15" y="447" type="line"/>
      <point x="88" y="447" type="line"/>
    </contour>
    <contour>
      <point x="185" y="500" type="line"/>
      <point x="185" y="93" type="line" smooth="yes"/>
      <point x="185" y="39"/>
      <point x="225" y="0"/>
      <point x="286" y="0" type="curve" smooth="yes"/>
      <point x="315" y="0" type="line"/>
      <point x="363" y="53" type="line"/>
      <point x="268" y="53" type="line" smooth="yes"/>
      <point x="244" y="53"/>
      <point x="238" y="59"/>
      <point x="238" y="83" type="curve" smooth="yes"/>
      <point x="238" y="500" type="line"/>
    </contour>
    <contour>
      <point x="35" y="500" type="line"/>
      <point x="35" y="93" type="line" smooth="yes"/>
      <point x="35" y="39"/>
      <point x="75" y="0"/>
      <point x="136" y="0" type="curve" smooth="yes"/>
      <point x="175" y="0" type="line"/>
      <point x="223" y="53" type="line"/>
      <point x="118" y="53" type="line" smooth="yes"/>
      <point x="94" y="53"/>
      <point x="88" y="59"/>
      <point x="88" y="83" type="curve" smooth="yes"/>
      <point x="88" y="500" type="line"/>
    </contour>
  </outline>
</glyph>
<glyph name="x" format="2">
  <advance width="263"/>
  <unicode hex="0078"/>
  <outline>
    <contour>
      <point x="15" y="500" type="line"/>
      <point x="111" y="218" type="line"/>
      <point x="152" y="218" type="line"/>
      <point x="248" y="500" type="line"/>
      <point x="195" y="500" type="line"/>
      <point x="126" y="276" type="line"/>
      <point x="137" y="276" type="line"/>
      <point x="68" y="500" type="line"/>
    </contour>
    <contour>
      <point x="15" y="0" type="line"/>
      <point x="68" y="0" type="line"/>
      <point x="137" y="224" type="line"/>
      <point x="126" y="224" type="line"/>
      <point x="195" y="0" type="line"/>
      <point x="248" y="0" type="line"/>
      <point x="152" y="282" type="line"/>
      <point x="111" y="282" type="line"/>
    </contour>
  </outline>
</glyph>
<glyph name="y" format="2">
  <advance width="259"/>
  <unicode hex="0079"/>
  <anchor x="145" y="0" name="bottom"/>
  <anchor x="139" y="500" name="top"/>
  <outline>
    <contour>
      <point x="88" y="-132" type="curve" smooth="yes"/>
      <point x="186" y="-132" type="line" smooth="yes"/>
      <point x="218" y="-132"/>
      <point x="239" y="-111"/>
      <point x="239" y="-79" type="curve" smooth="yes"/>
      <point x="239" y="500" type="line"/>
      <point x="186" y="500" type="line"/>
      <point x="186" y="-101" type="line"/>
      <point x="208" y="-79" type="line"/>
      <point x="66" y="-79" type="line"/>
      <point x="88" y="-101" type="line"/>
      <point x="88" y="-32" type="line"/>
      <point x="35" y="-32" type="line"/>
      <point x="35" y="-79" type="line" smooth="yes"/>
      <point x="35" y="-111"/>
      <point x="56" y="-132"/>
    </contour>
    <contour>
      <point x="88" y="0" type="curve" smooth="yes"/>
      <point x="165" y="0" type="line"/>
      <point x="213" y="53" type="line"/>
      <point x="66" y="53" type="line"/>
      <point x="88" y="31" type="line"/>
      <point x="88" y="500" type="line"/>
      <point x="35" y="500" type="line"/>
      <point x="35" y="53" type="line" smooth="yes"/>
      <point x="35" y="21"/>
      <point x="56" y="0"/>
    </contour>
    <contour>
      <point x="15" y="447" type="line"/>
      <point x="88" y="447" type="line"/>
      <point x="88" y="500" type="line"/>
      <point x="25" y="500" type="line"/>
    </contour>
  </outline>
</glyph>
<glyph name="z" format="2">
  <advance width="261"/>
  <unicode hex="007A"/>
  <outline>
    <contour>
      <point x="15" y="0" type="line"/>
      <point x="238" y="0" type="line"/>
      <point x="246" y="53" type="line"/>
      <point x="65" y="53" type="line"/>
      <point x="67" y="51" type="line"/>
      <point x="239" y="431" type="line" smooth="yes"/>
      <point x="243" y="440"/>
      <point x="246" y="452"/>
      <point x="246" y="460" type="curve" smooth="yes"/>
      <point x="246" y="499" type="line"/>
      <point x="23" y="499" type="line"/>
      <point x="15" y="446" type="line"/>
      <point x="196" y="446" type="line"/>
      <point x="194" y="448" type="line"/>
      <point x="22" y="68" type="line" smooth="yes"/>
      <point x="18" y="59"/>
      <point x="15" y="47"/>
      <point x="15" y="39" type="curve" smooth="yes"/>
    </contour>
  </outline>
</glyph>
<glyph name="braceleft" format="2">
  <advance width="228"/>
  <unicode hex="007B"/>
  <note>
braceleft
</note>
  <outline>
    <contour>
      <point x="228" y="-130" type="line"/>
      <point x="228" y="-77" type="line"/>
      <point x="143" y="-77" type="line"/>
      <point x="175" y="-109" type="line"/>
      <point x="175" y="142" type="line" smooth="yes"/>
      <point x="175" y="233"/>
      <point x="122" y="297"/>
      <point x="82" y="298" type="curve"/>
      <point x="82" y="305" type="line"/>
      <point x="122" y="303"/>
      <point x="175" y="368"/>
      <point x="175" y="461" type="curve" smooth="yes"/>
      <point x="175" y="712" type="line"/>
      <point x="143" y="680" type="line"/>
      <point x="228" y="680" type="line"/>
      <point x="228" y="733" type="line"/>
      <point x="176" y="733" type="line" smooth="yes"/>
      <point x="137" y="733"/>
      <point x="122" y="706"/>
      <point x="122" y="640" type="curve" smooth="yes"/>
      <point x="122" y="550" type="line" smooth="yes"/>
      <point x="122" y="458"/>
      <point x="110" y="335"/>
      <point x="20" y="334" type="curve"/>
      <point x="20" y="269" type="line"/>
      <point x="110" y="269"/>
      <point x="122" y="145"/>
      <point x="122" y="53" type="curve" smooth="yes"/>
      <point x="122" y="-37" type="line" smooth="yes"/>
      <point x="122" y="-103"/>
      <point x="137" y="-130"/>
      <point x="176" y="-130" type="curve" smooth="yes"/>
    </contour>
  </outline>
</glyph>
<glyph name="bar" format="2">
  <advance width="93"/>
  <unicode hex="007C"/>
  <outline>
    <contour>
      <point x="20" y="700" type="line"/>
      <point x="20" y="-100" type="line"/>
      <point x="73" y="-100" type="line"/>
      <point x="73" y="700" type="line"/>
    </contour>
  </outline>
</glyph>
<glyph name="braceright" format="2">
  <advance width="228"/>
  <unicode hex="007D"/>
  <note>
braceright
</note>
  <outline>
    <contour>
      <point x="0" y="-130" type="line"/>
      <point x="52" y="-130" type="line" smooth="yes"/>
      <point x="91" y="-130"/>
      <point x="106" y="-103"/>
      <point x="106" y="-37" type="curve" smooth="yes"/>
      <point x="106" y="53" type="line" smooth="yes"/>
      <point x="106" y="145"/>
      <point x="118" y="269"/>
      <point x="208" y="269" type="curve"/>
      <point x="208" y="334" type="line"/>
      <point x="118" y="335"/>
      <point x="106" y="458"/>
      <point x="106" y="550" type="curve" smooth="yes"/>
      <point x="106" y="640" type="line" smooth="yes"/>
      <point x="106" y="706"/>
      <point x="91" y="733"/>
      <point x="52" y="733" type="curve" smooth="yes"/>
      <point x="0" y="733" type="line"/>
      <point x="0" y="680" type="line"/>
      <point x="85" y="680" type="line"/>
      <point x="53" y="712" type="line"/>
      <point x="53" y="461" type="line" smooth="yes"/>
      <point x="53" y="368"/>
      <point x="106" y="303"/>
      <point x="146" y="305" type="curve"/>
      <point x="146" y="298" type="line"/>
      <point x="106" y="297"/>
      <point x="53" y="233"/>
      <point x="53" y="142" type="curve" smooth="yes"/>
      <point x="53" y="-109" type="line"/>
      <point x="85" y="-77" type="line"/>
      <point x="0" y="-77" type="line"/>
    </contour>
  </outline>
</glyph>
<glyph name="asciitilde" format="2">
  <advance width="375"/>
  <unicode hex="007E"/>
  <note>
asciitilde
</note>
  <outline>
    <contour>
      <point x="20" y="250" type="line"/>
      <point x="55" y="293"/>
      <point x="110" y="300"/>
      <point x="180" y="270" type="curve" smooth="yes"/>
      <point x="259" y="237"/>
      <point x="319" y="242"/>
      <point x="355" y="283" type="curve"/>
      <point x="355" y="347" type="line"/>
      <point x="324" y="304"/>
      <point x="269" y="297"/>
      <point x="195" y="327" type="curve" smooth="yes"/>
      <point x="120" y="357"/>
      <point x="60" y="353"/>
      <point x="20" y="314" type="curve"/>
    </contour>
  </outline>
</glyph>
<glyph name="exclamdown" format="2">
  <advance width="93"/>
  <unicode hex="00A1"/>
  <outline>
    <contour>
      <point x="20" y="471" type="line"/>
      <point x="73" y="471" type="line"/>
      <point x="73" y="524" type="line"/>
      <point x="20" y="524" type="line"/>
    </contour>
    <contour>
      <point x="20" y="-76" type="line"/>
      <point x="73" y="-76" type="line"/>
      <point x="73" y="446" type="line"/>
      <point x="20" y="446" type="line"/>
    </contour>
  </outline>
</glyph>
<glyph name="cent" format="2">
  <advance width="293"/>
  <unicode hex="00A2"/>
  <outline>
    <contour>
      <point x="21" y="507" type="curve" smooth="yes"/>
      <point x="20" y="250" type="line"/>
      <point x="73" y="250" type="line"/>
      <point x="74" y="507" type="line" smooth="yes"/>
      <point x="74" y="533"/>
      <point x="92" y="547"/>
      <point x="126" y="547" type="curve" smooth="yes"/>
      <point x="143" y="547" type="line"/>
      <point x="143" y="600" type="line"/>
      <point x="126" y="600" type="line" smooth="yes"/>
      <point x="57" y="600"/>
      <point x="21" y="568"/>
    </contour>
    <contour>
      <point x="272" y="363" type="line"/>
      <point x="273" y="496" type="line" smooth="yes"/>
      <point x="274" y="564"/>
      <point x="237" y="600"/>
      <point x="168" y="600" type="curve" smooth="yes"/>
      <point x="126" y="600" type="line"/>
      <point x="126" y="547" type="line"/>
      <point x="168" y="547" type="line" smooth="yes"/>
      <point x="202" y="547"/>
      <point x="220" y="530"/>
      <point x="220" y="496" type="curve" smooth="yes"/>
      <point x="219" y="369" type="line"/>
    </contour>
    <contour>
      <point x="272" y="203" type="line"/>
      <point x="219" y="203" type="line"/>
      <point x="219" y="104" type="line" smooth="yes"/>
      <point x="219" y="70"/>
      <point x="201" y="53"/>
      <point x="167" y="53" type="curve" smooth="yes"/>
      <point x="125" y="53" type="line" smooth="yes"/>
      <point x="91" y="53"/>
      <point x="73" y="70"/>
      <point x="73" y="104" type="curve" smooth="yes"/>
      <point x="73" y="250" type="line"/>
      <point x="20" y="250" type="line"/>
      <point x="20" y="104" type="line" smooth="yes"/>
      <point x="20" y="36"/>
      <point x="56" y="0"/>
      <point x="125" y="0" type="curve" smooth="yes"/>
      <point x="167" y="0" type="line" smooth="yes"/>
      <point x="236" y="0"/>
      <point x="272" y="36"/>
      <point x="272" y="104" type="curve" smooth="yes"/>
    </contour>
    <contour>
      <point x="116" y="640" type="line"/>
      <point x="116" y="557" type="line"/>
      <point x="169" y="557" type="line"/>
      <point x="169" y="640" type="line"/>
    </contour>
    <contour>
      <point x="116" y="-40" type="line"/>
      <point x="169" y="-40" type="line"/>
      <point x="169" y="53" type="line"/>
      <point x="116" y="53" type="line"/>
    </contour>
  </outline>
</glyph>
<glyph name="sterling" format="2">
  <advance width="322"/>
  <unicode hex="00A3"/>
  <outline>
    <contour>
      <point x="197" y="600" type="curve" smooth="yes"/>
      <point x="155" y="600" type="line" smooth="yes"/>
      <point x="89" y="600"/>
      <point x="54" y="567"/>
      <point x="54" y="507" type="curve" smooth="yes"/>
      <point x="53" y="300" type="line"/>
      <point x="106" y="300" type="line"/>
      <point x="107" y="507" type="line" smooth="yes"/>
      <point x="107" y="533"/>
      <point x="125" y="547"/>
      <point x="159" y="547" type="curve" smooth="yes"/>
      <point x="197" y="547" type="line" smooth="yes"/>
      <point x="231" y="547"/>
      <point x="249" y="530"/>
      <point x="249" y="496" type="curve" smooth="yes"/>
      <point x="248" y="419" type="line"/>
      <point x="301" y="413" type="line"/>
      <point x="302" y="496" type="line" smooth="yes"/>
      <point x="303" y="564"/>
      <point x="266" y="600"/>
    </contour>
    <contour>
      <point x="211" y="298" type="line"/>
      <point x="16" y="298" type="line"/>
      <point x="10" y="260" type="line"/>
      <point x="205" y="260" type="line"/>
    </contour>
    <contour>
      <point x="10" y="0" type="line"/>
      <point x="301" y="0" type="line"/>
      <point x="301" y="53" type="line"/>
      <point x="10" y="53" type="line"/>
    </contour>
    <contour>
      <point x="105" y="103" type="curve" smooth="yes"/>
      <point x="106" y="300" type="line"/>
      <point x="53" y="300" type="line"/>
      <point x="52" y="103" type="line" smooth="yes"/>
      <point x="52" y="66"/>
      <point x="36" y="53"/>
      <point x="11" y="53" type="curve" smooth="yes"/>
      <point x="10" y="53" type="line"/>
      <point x="10" y="0" type="line"/>
      <point x="11" y="0" type="line" smooth="yes"/>
      <point x="70" y="0"/>
      <point x="105" y="38"/>
    </contour>
  </outline>
</glyph>
<glyph name="currency" format="2">
  <advance width="350"/>
  <unicode hex="00A4"/>
  <outline>
    <contour>
      <point x="178" y="302" type="curve" smooth="yes"/>
      <point x="260" y="302"/>
      <point x="303" y="344"/>
      <point x="303" y="428" type="curve" smooth="yes"/>
      <point x="303" y="511"/>
      <point x="260" y="555"/>
      <point x="178" y="555" type="curve" smooth="yes"/>
      <point x="94" y="555"/>
      <point x="51" y="509"/>
      <point x="51" y="428" type="curve" smooth="yes"/>
      <point x="51" y="344"/>
      <point x="94" y="302"/>
    </contour>
    <contour>
      <point x="175" y="354" type="curve" smooth="yes"/>
      <point x="128" y="354"/>
      <point x="104" y="378"/>
      <point x="104" y="427" type="curve" smooth="yes"/>
      <point x="104" y="475"/>
      <point x="128" y="501"/>
      <point x="175" y="501" type="curve" smooth="yes"/>
      <point x="227" y="501"/>
      <point x="251" y="477"/>
      <point x="251" y="427" type="curve" smooth="yes"/>
      <point x="251" y="378"/>
      <point x="227" y="354"/>
    </contour>
    <contour>
      <point x="213" y="506" type="line"/>
      <point x="251" y="469" type="line"/>
      <point x="330" y="548" type="line"/>
      <point x="292" y="585" type="line"/>
    </contour>
    <contour>
      <point x="137" y="506" type="line"/>
      <point x="58" y="585" type="line"/>
      <point x="20" y="548" type="line"/>
      <point x="99" y="469" type="line"/>
    </contour>
    <contour>
      <point x="213" y="349" type="line"/>
      <point x="292" y="270" type="line"/>
      <point x="330" y="307" type="line"/>
      <point x="251" y="386" type="line"/>
    </contour>
    <contour>
      <point x="137" y="349" type="line"/>
      <point x="99" y="386" type="line"/>
      <point x="20" y="307" type="line"/>
      <point x="58" y="270" type="line"/>
    </contour>
  </outline>
</glyph>
<glyph name="yen" format="2">
  <advance width="315"/>
  <unicode hex="00A5"/>
  <outline>
    <contour>
      <point x="20" y="700" type="line"/>
      <point x="131" y="309" type="line"/>
      <point x="184" y="309" type="line"/>
      <point x="295" y="700" type="line"/>
      <point x="242" y="700" type="line"/>
      <point x="141" y="351" type="line"/>
      <point x="171" y="351" type="line"/>
      <point x="74" y="700" type="line"/>
    </contour>
    <contour>
      <point x="131" y="309" type="line"/>
      <point x="131" y="0" type="line"/>
      <point x="184" y="0" type="line"/>
      <point x="184" y="309" type="line"/>
    </contour>
    <contour>
      <point x="277" y="309" type="line"/>
      <point x="37" y="309" type="line"/>
      <point x="37" y="256" type="line"/>
      <point x="277" y="256" type="line"/>
    </contour>
    <contour>
      <point x="277" y="229" type="line"/>
      <point x="37" y="229" type="line"/>
      <point x="37" y="176" type="line"/>
      <point x="277" y="176" type="line"/>
    </contour>
  </outline>
</glyph>
<glyph name="section" format="2">
  <advance width="258"/>
  <unicode hex="00A7"/>
  <outline>
    <contour>
      <point x="243" y="368" type="line" smooth="yes"/>
      <point x="243" y="436"/>
      <point x="207" y="472"/>
      <point x="138" y="472" type="curve" smooth="yes"/>
      <point x="122" y="472" type="line" smooth="yes"/>
      <point x="52" y="472"/>
      <point x="17" y="436"/>
      <point x="17" y="368" type="curve" smooth="yes"/>
      <point x="17" y="335" type="line" smooth="yes"/>
      <point x="17" y="267"/>
      <point x="53" y="231"/>
      <point x="122" y="231" type="curve" smooth="yes"/>
      <point x="138" y="231" type="line" smooth="yes"/>
      <point x="207" y="231"/>
      <point x="243" y="267"/>
      <point x="243" y="335" type="curve" smooth="yes"/>
    </contour>
    <contour>
      <point x="70" y="335" type="curve" smooth="yes"/>
      <point x="70" y="368" type="line" smooth="yes"/>
      <point x="70" y="409"/>
      <point x="80" y="419"/>
      <point x="122" y="419" type="curve" smooth="yes"/>
      <point x="138" y="419" type="line" smooth="yes"/>
      <point x="180" y="419"/>
      <point x="190" y="409"/>
      <point x="190" y="368" type="curve" smooth="yes"/>
      <point x="190" y="335" type="line" smooth="yes"/>
      <point x="190" y="294"/>
      <point x="180" y="284"/>
      <point x="138" y="284" type="curve" smooth="yes"/>
      <point x="122" y="284" type="line" smooth="yes"/>
      <point x="80" y="284"/>
      <point x="70" y="294"/>
    </contour>
    <contour>
      <point x="243" y="511" type="line"/>
      <point x="243" y="600" type="line" smooth="yes"/>
      <point x="243" y="668"/>
      <point x="207" y="704"/>
      <point x="138" y="704" type="curve" smooth="yes"/>
      <point x="126" y="704" type="line"/>
      <point x="126" y="651" type="line"/>
      <point x="138" y="651" type="line" smooth="yes"/>
      <point x="172" y="651"/>
      <point x="190" y="634"/>
      <point x="190" y="600" type="curve"/>
      <point x="190" y="516" type="line"/>
    </contour>
    <contour>
      <point x="167" y="417" type="line"/>
      <point x="190" y="463" type="line"/>
      <point x="59" y="525" type="line"/>
      <point x="69" y="498" type="line"/>
      <point x="68" y="617" type="line" smooth="yes"/>
      <point x="68" y="637"/>
      <point x="86" y="651"/>
      <point x="120" y="651" type="curve" smooth="yes"/>
      <point x="147" y="651" type="line"/>
      <point x="147" y="704" type="line"/>
      <point x="120" y="704" type="line" smooth="yes"/>
      <point x="51" y="704"/>
      <point x="15" y="672"/>
      <point x="15" y="611" type="curve" smooth="yes"/>
      <point x="15" y="518" type="line" smooth="yes"/>
      <point x="15" y="498"/>
      <point x="23" y="486"/>
      <point x="39" y="478" type="curve" smooth="yes"/>
    </contour>
    <contour>
      <point x="91" y="287" type="line"/>
      <point x="68" y="241" type="line"/>
      <point x="199" y="179" type="line"/>
      <point x="189" y="206" type="line"/>
      <point x="190" y="87" type="line" smooth="yes"/>
      <point x="190" y="67"/>
      <point x="172" y="53"/>
      <point x="138" y="53" type="curve" smooth="yes"/>
      <point x="111" y="53" type="line"/>
      <point x="111" y="0" type="line"/>
      <point x="138" y="0" type="line" smooth="yes"/>
      <point x="207" y="0"/>
      <point x="243" y="32"/>
      <point x="243" y="93" type="curve" smooth="yes"/>
      <point x="243" y="186" type="line" smooth="yes"/>
      <point x="243" y="206"/>
      <point x="235" y="218"/>
      <point x="219" y="226" type="curve" smooth="yes"/>
    </contour>
    <contour>
      <point x="15" y="193" type="line"/>
      <point x="15" y="104" type="line" smooth="yes"/>
      <point x="15" y="36"/>
      <point x="51" y="0"/>
      <point x="120" y="0" type="curve" smooth="yes"/>
      <point x="132" y="0" type="line"/>
      <point x="132" y="53" type="line"/>
      <point x="120" y="53" type="line" smooth="yes"/>
      <point x="86" y="53"/>
      <point x="68" y="70"/>
      <point x="68" y="104" type="curve"/>
      <point x="68" y="188" type="line"/>
    </contour>
  </outline>
</glyph>
<glyph name="dieresis" format="2">
  <advance width="163"/>
  <unicode hex="00A8"/>
  <outline>
    <contour>
      <point x="22" y="800" type="line"/>
      <point x="22" y="747" type="line"/>
      <point x="75" y="747" type="line"/>
      <point x="75" y="800" type="line"/>
    </contour>
    <contour>
      <point x="90" y="800" type="line"/>
      <point x="90" y="747" type="line"/>
      <point x="143" y="747" type="line"/>
      <point x="143" y="800" type="line"/>
    </contour>
  </outline>
</glyph>
<glyph name="copyright" format="2">
  <advance width="497"/>
  <unicode hex="00A9"/>
  <note>
copyright
</note>
  <outline>
    <contour>
      <point x="125" y="0" type="curve" smooth="yes"/>
      <point x="372" y="0" type="line" smooth="yes"/>
      <point x="435" y="0"/>
      <point x="477" y="42"/>
      <point x="477" y="104" type="curve" smooth="yes"/>
      <point x="477" y="525" type="line" smooth="yes"/>
      <point x="477" y="587"/>
      <point x="435" y="629"/>
      <point x="372" y="629" type="curve" smooth="yes"/>
      <point x="125" y="629" type="line" smooth="yes"/>
      <point x="62" y="629"/>
      <point x="20" y="587"/>
      <point x="20" y="525" type="curve" smooth="yes"/>
      <point x="20" y="104" type="line" smooth="yes"/>
      <point x="20" y="42"/>
      <point x="62" y="0"/>
    </contour>
    <contour>
      <point x="125" y="53" type="line" smooth="yes"/>
      <point x="93" y="53"/>
      <point x="73" y="73"/>
      <point x="73" y="104" type="curve" smooth="yes"/>
      <point x="73" y="525" type="line" smooth="yes"/>
      <point x="73" y="556"/>
      <point x="94" y="576"/>
      <point x="125" y="576" type="curve" smooth="yes"/>
      <point x="372" y="576" type="line" smooth="yes"/>
      <point x="403" y="576"/>
      <point x="424" y="556"/>
      <point x="424" y="525" type="curve" smooth="yes"/>
      <point x="424" y="104" type="line" smooth="yes"/>
      <point x="424" y="73"/>
      <point x="403" y="53"/>
      <point x="372" y="53" type="curve" smooth="yes"/>
    </contour>
    <contour>
      <point x="357" y="329" type="line"/>
      <point x="357" y="403" type="line" smooth="yes"/>
      <point x="357" y="471"/>
      <point x="321" y="507"/>
      <point x="252" y="507" type="curve" smooth="yes"/>
      <point x="246" y="507" type="line" smooth="yes"/>
      <point x="177" y="507"/>
      <point x="141" y="471"/>
      <point x="141" y="403" type="curve" smooth="yes"/>
      <point x="141" y="226" type="line" smooth="yes"/>
      <point x="141" y="161"/>
      <point x="180" y="122"/>
      <point x="246" y="122" type="curve" smooth="yes"/>
      <point x="252" y="122" type="line" smooth="yes"/>
      <point x="321" y="122"/>
      <point x="357" y="158"/>
      <point x="357" y="226" type="curve" smooth="yes"/>
      <point x="357" y="276" type="line"/>
      <point x="304" y="276" type="line"/>
      <point x="304" y="226" type="line" smooth="yes"/>
      <point x="304" y="185"/>
      <point x="294" y="175"/>
      <point x="252" y="175" type="curve" smooth="yes"/>
      <point x="246" y="175" type="line" smooth="yes"/>
      <point x="204" y="175"/>
      <point x="194" y="185"/>
      <point x="194" y="226" type="curve"/>
      <point x="194" y="403" type="line" smooth="yes"/>
      <point x="194" y="444"/>
      <point x="204" y="454"/>
      <point x="246" y="454" type="curve" smooth="yes"/>
      <point x="252" y="454" type="line" smooth="yes"/>
      <point x="294" y="454"/>
      <point x="304" y="444"/>
      <point x="304" y="403" type="curve" smooth="yes"/>
      <point x="304" y="335" type="line"/>
    </contour>
  </outline>
</glyph>
<glyph name="ordfeminine" format="2">
  <advance width="266"/>
  <unicode hex="00AA"/>
  <outline>
    <contour>
      <point x="216" y="647" type="line"/>
      <point x="216" y="661"/>
      <point x="174" y="700"/>
      <point x="123" y="700" type="curve" smooth="yes"/>
      <point x="57" y="700"/>
      <point x="20" y="668"/>
      <point x="20" y="607" type="curve" smooth="yes"/>
      <point x="20" y="543" type="line"/>
      <point x="73" y="543" type="line"/>
      <point x="73" y="617" type="line" smooth="yes"/>
      <point x="73" y="641"/>
      <point x="79" y="647"/>
      <point x="103" y="647" type="curve" smooth="yes"/>
    </contour>
    <contour>
      <point x="20" y="558" type="line"/>
      <point x="20" y="534" type="line" smooth="yes"/>
      <point x="20" y="480"/>
      <point x="60" y="441"/>
      <point x="121" y="441" type="curve" smooth="yes"/>
      <point x="150" y="441" type="line"/>
      <point x="198" y="494" type="line"/>
      <point x="103" y="494" type="line" smooth="yes"/>
      <point x="79" y="494"/>
      <point x="73" y="500"/>
      <point x="73" y="524" type="curve" smooth="yes"/>
      <point x="73" y="558" type="line"/>
    </contour>
    <contour>
      <point x="173" y="700" type="line"/>
      <point x="173" y="441" type="line"/>
      <point x="226" y="441" type="line"/>
      <point x="226" y="700" type="line"/>
    </contour>
    <contour>
      <point x="246" y="441" type="line"/>
      <point x="238" y="494" type="line"/>
      <point x="173" y="494" type="line"/>
      <point x="173" y="441" type="line"/>
    </contour>
    <contour>
      <point x="40" y="363" type="line"/>
      <point x="226" y="363" type="line"/>
      <point x="226" y="416" type="line"/>
      <point x="40" y="416" type="line"/>
    </contour>
  </outline>
</glyph>
<glyph name="guillemetleft" format="2">
  <advance width="314"/>
  <unicode hex="00AB"/>
  <outline>
    <contour>
      <point x="294" y="85" type="line"/>
      <point x="294" y="170" type="line"/>
      <point x="192" y="265" type="line"/>
      <point x="192" y="233" type="line"/>
      <point x="294" y="328" type="line"/>
      <point x="294" y="413" type="line"/>
      <point x="140" y="264" type="line"/>
      <point x="140" y="233" type="line"/>
    </contour>
    <contour>
      <point x="174" y="85" type="line"/>
      <point x="174" y="170" type="line"/>
      <point x="72" y="265" type="line"/>
      <point x="72" y="233" type="line"/>
      <point x="174" y="328" type="line"/>
      <point x="174" y="413" type="line"/>
      <point x="20" y="264" type="line"/>
      <point x="20" y="233" type="line"/>
    </contour>
  </outline>
</glyph>
<glyph name="logicalnot" format="2">
  <advance width="320"/>
  <unicode hex="00AC"/>
  <outline>
    <contour>
      <point x="247" y="388" type="line"/>
      <point x="247" y="234" type="line"/>
      <point x="300" y="234" type="line"/>
      <point x="300" y="388" type="line"/>
    </contour>
    <contour>
      <point x="300" y="388" type="line"/>
      <point x="20" y="388" type="line"/>
      <point x="20" y="335" type="line"/>
      <point x="300" y="335" type="line"/>
    </contour>
  </outline>
</glyph>
<glyph name="registered" format="2">
  <advance width="506"/>
  <unicode hex="00AE"/>
  <outline>
    <contour>
      <point x="143" y="294" type="line"/>
      <point x="196" y="294" type="line"/>
      <point x="196" y="674" type="line"/>
      <point x="143" y="674" type="line"/>
    </contour>
    <contour>
      <point x="360" y="539" type="curve" smooth="yes"/>
      <point x="360" y="553" type="line"/>
      <point x="307" y="553" type="line"/>
      <point x="307" y="539" type="line" smooth="yes"/>
      <point x="307" y="513"/>
      <point x="289" y="499"/>
      <point x="255" y="499" type="curve" smooth="yes"/>
      <point x="143" y="499" type="line"/>
      <point x="143" y="446" type="line"/>
      <point x="255" y="446" type="line" smooth="yes"/>
      <point x="324" y="446"/>
      <point x="360" y="478"/>
    </contour>
    <contour>
      <point x="255" y="674" type="curve" smooth="yes"/>
      <point x="143" y="674" type="line"/>
      <point x="143" y="621" type="line"/>
      <point x="255" y="621" type="line" smooth="yes"/>
      <point x="289" y="621"/>
      <point x="307" y="604"/>
      <point x="307" y="570" type="curve" smooth="yes"/>
      <point x="307" y="553" type="line"/>
      <point x="360" y="553" type="line"/>
      <point x="360" y="570" type="line" smooth="yes"/>
      <point x="360" y="638"/>
      <point x="324" y="674"/>
    </contour>
    <contour>
      <point x="125" y="621" type="line"/>
      <point x="196" y="621" type="line"/>
      <point x="196" y="674" type="line"/>
      <point x="135" y="674" type="line"/>
    </contour>
    <contour>
      <point x="327" y="294" type="line"/>
      <point x="381" y="294" type="line"/>
      <point x="304" y="494" type="line"/>
      <point x="251" y="494" type="line"/>
    </contour>
    <contour>
      <point x="125" y="171" type="curve" smooth="yes"/>
      <point x="372" y="171" type="line" smooth="yes"/>
      <point x="435" y="171"/>
      <point x="477" y="213"/>
      <point x="477" y="275" type="curve" smooth="yes"/>
      <point x="477" y="696" type="line" smooth="yes"/>
      <point x="477" y="758"/>
      <point x="435" y="800"/>
      <point x="372" y="800" type="curve" smooth="yes"/>
      <point x="125" y="800" type="line" smooth="yes"/>
      <point x="62" y="800"/>
      <point x="20" y="758"/>
      <point x="20" y="696" type="curve" smooth="yes"/>
      <point x="20" y="275" type="line" smooth="yes"/>
      <point x="20" y="213"/>
      <point x="62" y="171"/>
    </contour>
    <contour>
      <point x="125" y="224" type="line" smooth="yes"/>
      <point x="93" y="224"/>
      <point x="73" y="244"/>
      <point x="73" y="275" type="curve" smooth="yes"/>
      <point x="73" y="696" type="line" smooth="yes"/>
      <point x="73" y="727"/>
      <point x="94" y="747"/>
      <point x="125" y="747" type="curve" smooth="yes"/>
      <point x="372" y="747" type="line" smooth="yes"/>
      <point x="403" y="747"/>
      <point x="424" y="727"/>
      <point x="424" y="696" type="curve" smooth="yes"/>
      <point x="424" y="275" type="line" smooth="yes"/>
      <point x="424" y="244"/>
      <point x="403" y="224"/>
      <point x="372" y="224" type="curve" smooth="yes"/>
    </contour>
  </outline>
</glyph>
<glyph name="macron" format="2">
  <advance width="250"/>
  <unicode hex="00AF"/>
  <outline>
    <contour>
      <point x="20" y="647" type="line"/>
      <point x="230" y="647" type="line"/>
      <point x="230" y="700" type="line"/>
      <point x="20" y="700" type="line"/>
    </contour>
  </outline>
</glyph>
<glyph name="degree" format="2">
  <advance width="216"/>
  <unicode hex="00B0"/>
  <note>
degree
</note>
  <outline>
    <contour>
      <point x="102" y="485" type="curve" smooth="yes"/>
      <point x="159" y="485"/>
      <point x="188" y="522"/>
      <point x="188" y="592" type="curve" smooth="yes"/>
      <point x="188" y="663"/>
      <point x="159" y="700"/>
      <point x="102" y="700" type="curve" smooth="yes"/>
      <point x="45" y="700"/>
      <point x="15" y="663"/>
      <point x="15" y="592" type="curve" smooth="yes"/>
      <point x="15" y="522"/>
      <point x="45" y="485"/>
    </contour>
    <contour>
      <point x="100" y="524" type="curve" smooth="yes"/>
      <point x="73" y="524"/>
      <point x="59" y="547"/>
      <point x="59" y="591" type="curve" smooth="yes"/>
      <point x="59" y="637"/>
      <point x="73" y="661"/>
      <point x="100" y="661" type="curve" smooth="yes"/>
      <point x="129" y="661"/>
      <point x="144" y="637"/>
      <point x="144" y="591" type="curve" smooth="yes"/>
      <point x="144" y="547"/>
      <point x="129" y="524"/>
    </contour>
  </outline>
</glyph>
<glyph name="plusminus" format="2">
  <advance width="310"/>
  <unicode hex="00B1"/>
  <outline>
    <contour>
      <point x="295" y="466" type="line"/>
      <point x="15" y="466" type="line"/>
      <point x="15" y="413" type="line"/>
      <point x="295" y="413" type="line"/>
    </contour>
    <contour>
      <point x="182" y="319" type="line"/>
      <point x="182" y="559" type="line"/>
      <point x="129" y="559" type="line"/>
      <point x="129" y="319" type="line"/>
    </contour>
    <contour>
      <point x="25" y="201" type="line"/>
      <point x="285" y="201" type="line"/>
      <point x="285" y="254" type="line"/>
      <point x="25" y="254" type="line"/>
    </contour>
  </outline>
</glyph>
<glyph name="twosuperior" format="2">
  <advance width="189"/>
  <unicode hex="00B2"/>
  <outline>
    <contour>
      <point x="27" y="600" type="line"/>
      <point x="27" y="555" type="line"/>
      <point x="103" y="555" type="line" smooth="yes"/>
      <point x="118" y="555"/>
      <point x="125" y="548"/>
      <point x="125" y="533" type="curve" smooth="yes"/>
      <point x="125" y="513" type="line"/>
      <point x="169" y="513" type="line"/>
      <point x="169" y="548" type="line" smooth="yes"/>
      <point x="169" y="582"/>
      <point x="146" y="600"/>
      <point x="103" y="600" type="curve" smooth="yes"/>
    </contour>
    <contour>
      <point x="169" y="490" type="curve" smooth="yes"/>
      <point x="169" y="525" type="line"/>
      <point x="125" y="525" type="line"/>
      <point x="125" y="490" type="line" smooth="yes"/>
      <point x="125" y="478"/>
      <point x="118" y="472"/>
      <point x="103" y="472" type="curve" smooth="yes"/>
      <point x="94" y="472" type="line"/>
      <point x="94" y="428" type="line"/>
      <point x="103" y="428" type="line" smooth="yes"/>
      <point x="146" y="428"/>
      <point x="169" y="456"/>
    </contour>
    <contour>
      <point x="20" y="412" type="curve" smooth="yes"/>
      <point x="20" y="299" type="line"/>
      <point x="64" y="299" type="line"/>
      <point x="64" y="412" type="line" smooth="yes"/>
      <point x="64" y="423"/>
      <point x="70" y="428"/>
      <point x="86" y="428" type="curve" smooth="yes"/>
      <point x="94" y="428" type="line"/>
      <point x="94" y="472" type="line"/>
      <point x="86" y="472" type="line" smooth="yes"/>
      <point x="43" y="472"/>
      <point x="20" y="447"/>
    </contour>
    <contour>
      <point x="169" y="299" type="line"/>
      <point x="169" y="344" type="line"/>
      <point x="20" y="344" type="line"/>
      <point x="20" y="299" type="line"/>
    </contour>
  </outline>
</glyph>
<glyph name="threesuperior" format="2">
  <advance width="169"/>
  <unicode hex="00B3"/>
  <outline>
    <contour>
      <point x="20" y="300" type="line"/>
      <point x="84" y="300" type="line" smooth="yes"/>
      <point x="123" y="300"/>
      <point x="149" y="325"/>
      <point x="149" y="362" type="curve" smooth="yes"/>
      <point x="149" y="538" type="line" smooth="yes"/>
      <point x="149" y="575"/>
      <point x="123" y="600"/>
      <point x="84" y="600" type="curve" smooth="yes"/>
      <point x="20" y="600" type="line"/>
      <point x="20" y="557" type="line"/>
      <point x="75" y="557" type="line" smooth="yes"/>
      <point x="100" y="557"/>
      <point x="106" y="549"/>
      <point x="106" y="520" type="curve" smooth="yes"/>
      <point x="106" y="380" type="line" smooth="yes"/>
      <point x="106" y="351"/>
      <point x="100" y="343"/>
      <point x="75" y="343" type="curve" smooth="yes"/>
      <point x="20" y="343" type="line"/>
    </contour>
    <contour>
      <point x="39" y="428" type="line"/>
      <point x="149" y="428" type="line"/>
      <point x="149" y="471" type="line"/>
      <point x="39" y="471" type="line"/>
    </contour>
  </outline>
</glyph>
<glyph name="acute" format="2">
  <advance width="107"/>
  <unicode hex="00B4"/>
  <outline>
    <contour>
      <point x="47" y="800" type="line"/>
      <point x="20" y="720" type="line"/>
      <point x="60" y="720" type="line"/>
      <point x="87" y="800" type="line"/>
    </contour>
  </outline>
</glyph>
<glyph name="micro" format="2">
  <advance width="284"/>
  <unicode hex="00B5"/>
  <outline>
    <contour>
      <point x="93" y="500" type="line"/>
      <point x="30" y="500" type="line"/>
      <point x="20" y="447" type="line"/>
      <point x="93" y="447" type="line"/>
    </contour>
    <contour>
      <point x="93" y="500" type="line"/>
      <point x="40" y="500" type="line"/>
      <point x="40" y="-133" type="line"/>
      <point x="93" y="-133" type="line"/>
    </contour>
    <contour>
      <point x="244" y="500" type="line"/>
      <point x="191" y="500" type="line"/>
      <point x="191" y="0" type="line"/>
      <point x="244" y="0" type="line"/>
    </contour>
    <contour>
      <point x="191" y="53" type="line"/>
      <point x="191" y="0" type="line"/>
      <point x="264" y="0" type="line"/>
      <point x="256" y="53" type="line"/>
    </contour>
    <contour>
      <point x="40" y="500" type="line"/>
      <point x="40" y="93" type="line" smooth="yes"/>
      <point x="40" y="39"/>
      <point x="80" y="0"/>
      <point x="141" y="0" type="curve" smooth="yes"/>
      <point x="170" y="0" type="line"/>
      <point x="218" y="53" type="line"/>
      <point x="123" y="53" type="line" smooth="yes"/>
      <point x="99" y="53"/>
      <point x="93" y="59"/>
      <point x="93" y="83" type="curve" smooth="yes"/>
      <point x="93" y="500" type="line"/>
    </contour>
  </outline>
</glyph>
<glyph name="paragraph" format="2">
  <advance width="304"/>
  <unicode hex="00B6"/>
  <outline>
    <contour>
      <point x="181" y="700" type="line"/>
      <point x="128" y="700" type="line"/>
      <point x="128" y="0" type="line"/>
      <point x="181" y="0" type="line"/>
    </contour>
    <contour>
      <point x="249" y="700" type="line"/>
      <point x="196" y="700" type="line"/>
      <point x="196" y="0" type="line"/>
      <point x="249" y="0" type="line"/>
    </contour>
    <contour>
      <point x="143" y="700" type="line"/>
      <point x="143" y="647" type="line"/>
      <point x="279" y="647" type="line"/>
      <point x="269" y="700" type="line"/>
    </contour>
    <contour>
      <point x="289" y="0" type="line"/>
      <point x="279" y="53" type="line"/>
      <point x="249" y="53" type="line"/>
      <point x="249" y="0" type="line"/>
    </contour>
    <contour>
      <point x="250" y="647" type="line"/>
      <point x="240" y="700" type="line"/>
      <point x="120" y="700" type="line" smooth="yes"/>
      <point x="51" y="700"/>
      <point x="15" y="664"/>
      <point x="15" y="596" type="curve" smooth="yes"/>
      <point x="15" y="473" type="line"/>
      <point x="68" y="473" type="line"/>
      <point x="68" y="596" type="line" smooth="yes"/>
      <point x="68" y="630"/>
      <point x="86" y="647"/>
      <point x="120" y="647" type="curve" smooth="yes"/>
    </contour>
    <contour>
      <point x="232" y="222" type="line"/>
      <point x="232" y="275" type="line"/>
      <point x="120" y="275" type="line" smooth="yes"/>
      <point x="86" y="275"/>
      <point x="68" y="289"/>
      <point x="68" y="315" type="curve" smooth="yes"/>
      <point x="68" y="473" type="line"/>
      <point x="15" y="473" type="line"/>
      <point x="15" y="315" type="line" smooth="yes"/>
      <point x="15" y="254"/>
      <point x="51" y="222"/>
      <point x="120" y="222" type="curve" smooth="yes"/>
    </contour>
  </outline>
</glyph>
<glyph name="periodcentered" format="2">
  <advance width="166"/>
  <unicode hex="00B7"/>
  <note>
middot
</note>
  <outline>
    <contour>
      <point x="20" y="369" type="line"/>
      <point x="20" y="244" type="line"/>
      <point x="146" y="244" type="line"/>
      <point x="146" y="369" type="line"/>
    </contour>
  </outline>
</glyph>
<glyph name="cedilla" format="2">
  <advance width="141"/>
  <unicode hex="00B8"/>
  <outline>
    <contour>
      <point x="20" y="-106" type="line"/>
      <point x="80" y="-106" type="line" smooth="yes"/>
      <point x="99" y="-106"/>
      <point x="123" y="-96"/>
      <point x="123" y="-81" type="curve" smooth="yes"/>
      <point x="123" y="-59" type="line"/>
      <point x="88" y="-59" type="line"/>
      <point x="88" y="-104" type="line"/>
      <point x="113" y="-81" type="line"/>
      <point x="37" y="-81" type="line"/>
      <point x="55" y="-104" type="line"/>
      <point x="55" y="-62" type="line"/>
      <point x="20" y="-62" type="line"/>
    </contour>
    <contour>
      <point x="54" y="1" type="line"/>
      <point x="20" y="1" type="line"/>
      <point x="20" y="-23" type="line" smooth="yes"/>
      <point x="20" y="-40"/>
      <point x="31" y="-50"/>
      <point x="51" y="-50" type="curve" smooth="yes"/>
      <point x="88" y="-50" type="line"/>
      <point x="88" y="-72" type="line"/>
      <point x="123" y="-72" type="line"/>
      <point x="123" y="-50" type="line" smooth="yes"/>
      <point x="123" y="-35"/>
      <point x="99" y="-25"/>
      <point x="80" y="-25" type="curve" smooth="yes"/>
      <point x="54" y="-25" type="line"/>
    </contour>
  </outline>
</glyph>
<glyph name="onesuperior" format="2">
  <advance width="164"/>
  <unicode hex="00B9"/>
  <outline>
    <contour>
      <point x="42" y="600" type="line"/>
      <point x="42" y="300" type="line"/>
      <point x="85" y="300" type="line"/>
      <point x="85" y="600" type="line"/>
    </contour>
    <contour>
      <point x="106" y="343" type="line"/>
      <point x="21" y="343" type="line"/>
      <point x="21" y="300" type="line"/>
      <point x="106" y="300" type="line"/>
    </contour>
    <contour>
      <point x="85" y="600" type="line"/>
      <point x="30" y="600" type="line"/>
      <point x="20" y="556" type="line"/>
      <point x="85" y="556" type="line"/>
    </contour>
  </outline>
</glyph>
<glyph name="ordmasculine" format="2">
  <advance width="248"/>
  <unicode hex="00BA"/>
  <outline>
    <contour>
      <point x="217" y="417" type="line"/>
      <point x="31" y="417" type="line"/>
      <point x="31" y="364" type="line"/>
      <point x="217" y="364" type="line"/>
    </contour>
    <contour>
      <point x="131" y="700" type="curve" smooth="yes"/>
      <point x="118" y="700" type="line" smooth="yes"/>
      <point x="54" y="700"/>
      <point x="20" y="664"/>
      <point x="20" y="596" type="curve" smooth="yes"/>
      <point x="20" y="571" type="line"/>
      <point x="73" y="571" type="line"/>
      <point x="73" y="596" type="line" smooth="yes"/>
      <point x="73" y="630"/>
      <point x="90" y="647"/>
      <point x="123" y="647" type="curve" smooth="yes"/>
      <point x="125" y="647" type="line" smooth="yes"/>
      <point x="158" y="647"/>
      <point x="175" y="630"/>
      <point x="175" y="596" type="curve"/>
      <point x="175" y="571" type="line"/>
      <point x="228" y="571" type="line"/>
      <point x="228" y="596" type="line" smooth="yes"/>
      <point x="228" y="664"/>
      <point x="195" y="700"/>
    </contour>
    <contour>
      <point x="124" y="441" type="curve" smooth="yes"/>
      <point x="127" y="441" type="line" smooth="yes"/>
      <point x="193" y="441"/>
      <point x="228" y="478"/>
      <point x="228" y="545" type="curve" smooth="yes"/>
      <point x="228" y="571" type="line"/>
      <point x="175" y="571" type="line"/>
      <point x="175" y="545" type="line" smooth="yes"/>
      <point x="175" y="511"/>
      <point x="157" y="494"/>
      <point x="125" y="494" type="curve" smooth="yes"/>
      <point x="123" y="494" type="line" smooth="yes"/>
      <point x="96" y="494"/>
      <point x="73" y="505"/>
      <point x="73" y="534" type="curve" smooth="yes"/>
      <point x="73" y="571" type="line"/>
      <point x="20" y="571" type="line"/>
      <point x="20" y="534" type="line" smooth="yes"/>
      <point x="20" y="473"/>
      <point x="56" y="441"/>
    </contour>
  </outline>
</glyph>
<glyph name="guillemetright" format="2">
  <advance width="314"/>
  <unicode hex="00BB"/>
  <outline>
    <contour>
      <point x="20" y="85" type="line"/>
      <point x="174" y="233" type="line"/>
      <point x="174" y="264" type="line"/>
      <point x="20" y="413" type="line"/>
      <point x="20" y="328" type="line"/>
      <point x="122" y="233" type="line"/>
      <point x="122" y="265" type="line"/>
      <point x="20" y="170" type="line"/>
    </contour>
    <contour>
      <point x="140" y="85" type="line"/>
      <point x="294" y="233" type="line"/>
      <point x="294" y="264" type="line"/>
      <point x="140" y="413" type="line"/>
      <point x="140" y="328" type="line"/>
      <point x="242" y="233" type="line"/>
      <point x="242" y="265" type="line"/>
      <point x="140" y="170" type="line"/>
    </contour>
  </outline>
</glyph>
<glyph name="onequarter" format="2">
  <advance width="440"/>
  <unicode hex="00BC"/>
  <outline>
    <contour>
      <point x="20" y="0" type="line"/>
      <point x="83" y="0" type="line"/>
      <point x="420" y="600" type="line"/>
      <point x="356" y="600" type="line"/>
    </contour>
    <contour>
      <point x="68" y="600" type="line"/>
      <point x="68" y="300" type="line"/>
      <point x="111" y="300" type="line"/>
      <point x="111" y="600" type="line"/>
    </contour>
    <contour>
      <point x="132" y="343" type="line"/>
      <point x="47" y="343" type="line"/>
      <point x="47" y="300" type="line"/>
      <point x="132" y="300" type="line"/>
    </contour>
    <contour>
      <point x="111" y="600" type="line"/>
      <point x="56" y="600" type="line"/>
      <point x="46" y="556" type="line"/>
      <point x="111" y="556" type="line"/>
    </contour>
    <contour>
      <point x="357" y="300" type="line"/>
      <point x="357" y="0" type="line"/>
      <point x="400" y="0" type="line"/>
      <point x="400" y="300" type="line"/>
    </contour>
    <contour>
      <point x="419" y="43" type="line"/>
      <point x="347" y="43" type="line"/>
      <point x="347" y="0" type="line"/>
      <point x="419" y="0" type="line"/>
    </contour>
    <contour>
      <point x="419" y="93" type="line"/>
      <point x="419" y="136" type="line"/>
      <point x="277" y="136" type="line"/>
      <point x="302" y="123" type="line"/>
      <point x="331" y="300" type="line"/>
      <point x="290" y="300" type="line"/>
      <point x="262" y="139" type="line" smooth="yes"/>
      <point x="257" y="112"/>
      <point x="267" y="93"/>
      <point x="305" y="93" type="curve" smooth="yes"/>
    </contour>
  </outline>
</glyph>
<glyph name="onehalf" format="2">
  <advance width="447"/>
  <unicode hex="00BD"/>
  <outline>
    <contour>
      <point x="20" y="0" type="line"/>
      <point x="83" y="0" type="line"/>
      <point x="420" y="600" type="line"/>
      <point x="356" y="600" type="line"/>
    </contour>
    <contour>
      <point x="68" y="600" type="line"/>
      <point x="68" y="300" type="line"/>
      <point x="111" y="300" type="line"/>
      <point x="111" y="600" type="line"/>
    </contour>
    <contour>
      <point x="132" y="343" type="line"/>
      <point x="47" y="343" type="line"/>
      <point x="47" y="300" type="line"/>
      <point x="132" y="300" type="line"/>
    </contour>
    <contour>
      <point x="111" y="600" type="line"/>
      <point x="56" y="600" type="line"/>
      <point x="46" y="556" type="line"/>
      <point x="111" y="556" type="line"/>
    </contour>
    <contour>
      <point x="285" y="300" type="line"/>
      <point x="285" y="255" type="line"/>
      <point x="361" y="255" type="line" smooth="yes"/>
      <point x="376" y="255"/>
      <point x="383" y="248"/>
      <point x="383" y="233" type="curve" smooth="yes"/>
      <point x="383" y="213" type="line"/>
      <point x="427" y="213" type="line"/>
      <point x="427" y="248" type="line" smooth="yes"/>
      <point x="427" y="282"/>
      <point x="404" y="300"/>
      <point x="361" y="300" type="curve" smooth="yes"/>
    </contour>
    <contour>
      <point x="427" y="190" type="curve" smooth="yes"/>
      <point x="427" y="225" type="line"/>
      <point x="383" y="225" type="line"/>
      <point x="383" y="190" type="line" smooth="yes"/>
      <point x="383" y="178"/>
      <point x="376" y="172"/>
      <point x="361" y="172" type="curve" smooth="yes"/>
      <point x="352" y="172" type="line"/>
      <point x="352" y="128" type="line"/>
      <point x="361" y="128" type="line" smooth="yes"/>
      <point x="404" y="128"/>
      <point x="427" y="156"/>
    </contour>
    <contour>
      <point x="278" y="112" type="curve" smooth="yes"/>
      <point x="278" y="-1" type="line"/>
      <point x="322" y="-1" type="line"/>
      <point x="322" y="112" type="line" smooth="yes"/>
      <point x="322" y="123"/>
      <point x="328" y="128"/>
      <point x="344" y="128" type="curve" smooth="yes"/>
      <point x="352" y="128" type="line"/>
      <point x="352" y="172" type="line"/>
      <point x="344" y="172" type="line" smooth="yes"/>
      <point x="301" y="172"/>
      <point x="278" y="147"/>
    </contour>
    <contour>
      <point x="427" y="-1" type="line"/>
      <point x="427" y="44" type="line"/>
      <point x="278" y="44" type="line"/>
      <point x="278" y="-1" type="line"/>
    </contour>
  </outline>
</glyph>
<glyph name="threequarters" format="2">
  <advance width="440"/>
  <unicode hex="00BE"/>
  <outline>
    <contour>
      <point x="20" y="0" type="line"/>
      <point x="83" y="0" type="line"/>
      <point x="420" y="600" type="line"/>
      <point x="356" y="600" type="line"/>
    </contour>
    <contour>
      <point x="419" y="43" type="line"/>
      <point x="347" y="43" type="line"/>
      <point x="347" y="0" type="line"/>
      <point x="419" y="0" type="line"/>
    </contour>
    <contour>
      <point x="357" y="300" type="line"/>
      <point x="357" y="0" type="line"/>
      <point x="400" y="0" type="line"/>
      <point x="400" y="300" type="line"/>
    </contour>
    <contour>
      <point x="419" y="93" type="line"/>
      <point x="419" y="136" type="line"/>
      <point x="277" y="136" type="line"/>
      <point x="302" y="123" type="line"/>
      <point x="331" y="300" type="line"/>
      <point x="290" y="300" type="line"/>
      <point x="262" y="139" type="line" smooth="yes"/>
      <point x="257" y="112"/>
      <point x="267" y="93"/>
      <point x="305" y="93" type="curve" smooth="yes"/>
    </contour>
    <contour>
      <point x="35" y="300" type="line"/>
      <point x="99" y="300" type="line" smooth="yes"/>
      <point x="138" y="300"/>
      <point x="164" y="325"/>
      <point x="164" y="362" type="curve" smooth="yes"/>
      <point x="164" y="538" type="line" smooth="yes"/>
      <point x="164" y="575"/>
      <point x="138" y="600"/>
      <point x="99" y="600" type="curve" smooth="yes"/>
      <point x="35" y="600" type="line"/>
      <point x="35" y="557" type="line"/>
      <point x="90" y="557" type="line" smooth="yes"/>
      <point x="115" y="557"/>
      <point x="121" y="549"/>
      <point x="121" y="520" type="curve" smooth="yes"/>
      <point x="121" y="380" type="line" smooth="yes"/>
      <point x="121" y="351"/>
      <point x="115" y="343"/>
      <point x="90" y="343" type="curve" smooth="yes"/>
      <point x="35" y="343" type="line"/>
    </contour>
    <contour>
      <point x="54" y="428" type="line"/>
      <point x="164" y="428" type="line"/>
      <point x="164" y="471" type="line"/>
      <point x="54" y="471" type="line"/>
    </contour>
  </outline>
</glyph>
<glyph name="AE" format="2">
  <advance width="389"/>
  <unicode hex="00C6"/>
  <anchor x="195" y="0" name="bottom"/>
  <anchor x="195" y="700" name="top"/>
  <outline>
    <contour>
      <point x="369" y="700" type="line"/>
      <point x="173" y="700" type="line"/>
      <point x="173" y="647" type="line"/>
      <point x="363" y="647" type="line"/>
    </contour>
    <contour>
      <point x="64" y="647" type="line"/>
      <point x="197" y="647" type="line"/>
      <point x="197" y="700" type="line"/>
      <point x="74" y="700" type="line"/>
    </contour>
    <contour>
      <point x="369" y="377" type="line"/>
      <point x="213" y="377" type="line"/>
      <point x="213" y="324" type="line"/>
      <point x="363" y="324" type="line"/>
    </contour>
    <contour>
      <point x="369" y="53" type="line"/>
      <point x="213" y="53" type="line"/>
      <point x="213" y="0" type="line"/>
      <point x="363" y="0" type="line"/>
    </contour>
    <contour>
      <point x="213" y="0" type="line"/>
      <point x="259" y="0" type="line"/>
      <point x="197" y="700" type="line"/>
      <point x="150" y="700" type="line"/>
    </contour>
    <contour>
      <point x="20" y="0" type="line"/>
      <point x="66" y="0" type="line"/>
      <point x="129" y="700" type="line"/>
      <point x="82" y="700" type="line"/>
    </contour>
    <contour>
      <point x="54" y="141" type="line"/>
      <point x="229" y="141" type="line"/>
      <point x="229" y="194" type="line"/>
      <point x="54" y="194" type="line"/>
    </contour>
  </outline>
</glyph>
<glyph name="Eth" format="2">
  <advance width="295"/>
  <unicode hex="00D0"/>
  <outline>
    <contour>
      <point x="20" y="320" type="line"/>
      <point x="190" y="320" type="line"/>
      <point x="190" y="373" type="line"/>
      <point x="20" y="373" type="line"/>
    </contour>
    <contour>
      <point x="170" y="700" type="curve" smooth="yes"/>
      <point x="45" y="700" type="line"/>
      <point x="35" y="647" type="line"/>
      <point x="170" y="647" type="line" smooth="yes"/>
      <point x="204" y="647"/>
      <point x="222" y="630"/>
      <point x="222" y="596" type="curve" smooth="yes"/>
      <point x="222" y="341" type="line"/>
      <point x="275" y="341" type="line"/>
      <point x="275" y="596" type="line" smooth="yes"/>
      <point x="275" y="664"/>
      <point x="239" y="700"/>
    </contour>
    <contour>
      <point x="275" y="97" type="curve" smooth="yes"/>
      <point x="275" y="341" type="line"/>
      <point x="222" y="341" type="line"/>
      <point x="222" y="97" type="line"/>
      <point x="222" y="63"/>
      <point x="204" y="46"/>
      <point x="170" y="46" type="curve" smooth="yes"/>
      <point x="53" y="46" type="line"/>
      <point x="53" y="-7" type="line"/>
      <point x="170" y="-7" type="line" smooth="yes"/>
      <point x="239" y="-7"/>
      <point x="275" y="29"/>
    </contour>
    <contour>
      <point x="53" y="700" type="line"/>
      <point x="53" y="-7" type="line"/>
      <point x="106" y="-7" type="line"/>
      <point x="106" y="700" type="line"/>
    </contour>
  </outline>
</glyph>
<glyph name="multiply" format="2">
  <advance width="262"/>
  <unicode hex="00D7"/>
  <outline>
    <contour>
      <point x="242" y="227" type="line"/>
      <point x="58" y="411" type="line"/>
      <point x="20" y="374" type="line"/>
      <point x="204" y="190" type="line"/>
    </contour>
    <contour>
      <point x="20" y="227" type="line"/>
      <point x="58" y="190" type="line"/>
      <point x="242" y="374" type="line"/>
      <point x="204" y="411" type="line"/>
    </contour>
  </outline>
</glyph>
<glyph name="Thorn" format="2">
  <advance width="258"/>
  <unicode hex="00DE"/>
  <outline>
    <contour>
      <point x="20" y="800" type="line"/>
      <point x="20" y="-7" type="line"/>
      <point x="73" y="-7" type="line"/>
      <point x="73" y="800" type="line"/>
    </contour>
    <contour>
      <point x="21" y="800" type="line"/>
      <point x="21" y="-7" type="line"/>
      <point x="74" y="-7" type="line"/>
      <point x="74" y="800" type="line"/>
    </contour>
    <contour>
      <point x="21" y="158" type="line"/>
      <point x="133" y="158" type="line" smooth="yes"/>
      <point x="202" y="158"/>
      <point x="238" y="190"/>
      <point x="238" y="251" type="curve" smooth="yes"/>
      <point x="238" y="409" type="line"/>
      <point x="185" y="409" type="line"/>
      <point x="185" y="251" type="line" smooth="yes"/>
      <point x="185" y="225"/>
      <point x="167" y="211"/>
      <point x="133" y="211" type="curve" smooth="yes"/>
      <point x="21" y="211" type="line"/>
    </contour>
    <contour>
      <point x="21" y="636" type="line"/>
      <point x="21" y="583" type="line"/>
      <point x="133" y="583" type="line" smooth="yes"/>
      <point x="167" y="583"/>
      <point x="185" y="569"/>
      <point x="185" y="543" type="curve" smooth="yes"/>
      <point x="185" y="385" type="line"/>
      <point x="238" y="385" type="line"/>
      <point x="238" y="543" type="line" smooth="yes"/>
      <point x="238" y="604"/>
      <point x="202" y="636"/>
      <point x="133" y="636" type="curve" smooth="yes"/>
    </contour>
  </outline>
</glyph>
<glyph name="germandbls" format="2">
  <advance width="324"/>
  <unicode hex="00DF"/>
  <outline>
    <contour>
      <point x="20" y="0" type="line"/>
      <point x="73" y="0" type="line"/>
      <point x="73" y="649" type="line"/>
      <point x="55" y="647" type="line"/>
      <point x="132" y="647" type="line"/>
      <point x="132" y="700" type="line"/>
      <point x="73" y="700" type="line" smooth="yes"/>
      <point x="41" y="700"/>
      <point x="20" y="679"/>
      <point x="20" y="647" type="curve" smooth="yes"/>
    </contour>
    <contour>
      <point x="122" y="0" type="line"/>
      <point x="199" y="0" type="line" smooth="yes"/>
      <point x="262" y="0"/>
      <point x="304" y="45"/>
      <point x="304" y="113" type="curve" smooth="yes"/>
      <point x="304" y="237" type="line" smooth="yes"/>
      <point x="304" y="255"/>
      <point x="294" y="271"/>
      <point x="280" y="277" type="curve" smooth="yes"/>
      <point x="160" y="329" type="line"/>
      <point x="160" y="334" type="line"/>
      <point x="230" y="383" type="line" smooth="yes"/>
      <point x="244" y="393"/>
      <point x="254" y="409"/>
      <point x="254" y="423" type="curve" smooth="yes"/>
      <point x="254" y="607" type="line" smooth="yes"/>
      <point x="254" y="663"/>
      <point x="212" y="700"/>
      <point x="149" y="700" type="curve" smooth="yes"/>
      <point x="132" y="700" type="line"/>
      <point x="132" y="647" type="line"/>
      <point x="149" y="647" type="line" smooth="yes"/>
      <point x="180" y="647"/>
      <point x="201" y="631"/>
      <point x="201" y="607" type="curve" smooth="yes"/>
      <point x="201" y="428" type="line"/>
      <point x="130" y="374" type="line" smooth="yes"/>
      <point x="117" y="364"/>
      <point x="106" y="350"/>
      <point x="106" y="334" type="curve" smooth="yes"/>
      <point x="106" y="326" type="line" smooth="yes"/>
      <point x="106" y="308"/>
      <point x="116" y="292"/>
      <point x="130" y="286" type="curve" smooth="yes"/>
      <point x="250" y="233" type="line"/>
      <point x="251" y="113" type="line" smooth="yes"/>
      <point x="251" y="77"/>
      <point x="230" y="53"/>
      <point x="199" y="53" type="curve" smooth="yes"/>
      <point x="122" y="53" type="line"/>
    </contour>
  </outline>
</glyph>
<glyph name="ae" format="2">
  <advance width="414"/>
  <unicode hex="00E6"/>
  <outline>
    <contour>
      <point x="173" y="0" type="line"/>
      <point x="226" y="0" type="line"/>
      <point x="226" y="500" type="line"/>
      <point x="173" y="500" type="line"/>
    </contour>
    <contour>
      <point x="20" y="202" type="line"/>
      <point x="73" y="202" type="line"/>
      <point x="73" y="417" type="line" smooth="yes"/>
      <point x="73" y="441"/>
      <point x="79" y="447"/>
      <point x="103" y="447" type="curve" smooth="yes"/>
      <point x="216" y="447" type="line"/>
      <point x="216" y="448" type="line" smooth="yes"/>
      <point x="216" y="464"/>
      <point x="174" y="500"/>
      <point x="124" y="500" type="curve" smooth="yes"/>
      <point x="122" y="500" type="line" smooth="yes"/>
      <point x="57" y="500"/>
      <point x="20" y="468"/>
      <point x="20" y="407" type="curve" smooth="yes"/>
    </contour>
    <contour>
      <point x="173" y="396" type="curve" smooth="yes"/>
      <point x="173" y="230" type="line"/>
      <point x="226" y="230" type="line"/>
      <point x="226" y="396" type="line" smooth="yes"/>
      <point x="226" y="437"/>
      <point x="236" y="447"/>
      <point x="278" y="447" type="curve" smooth="yes"/>
      <point x="283" y="447" type="line"/>
      <point x="283" y="500" type="line"/>
      <point x="278" y="500" type="line" smooth="yes"/>
      <point x="209" y="500"/>
      <point x="173" y="464"/>
    </contour>
    <contour>
      <point x="121" y="0" type="curve" smooth="yes"/>
      <point x="150" y="0" type="line"/>
      <point x="198" y="53" type="line"/>
      <point x="103" y="53" type="line" smooth="yes"/>
      <point x="79" y="53"/>
      <point x="73" y="59"/>
      <point x="73" y="83" type="curve" smooth="yes"/>
      <point x="73" y="258" type="line"/>
      <point x="20" y="258" type="line"/>
      <point x="20" y="93" type="line" smooth="yes"/>
      <point x="20" y="39"/>
      <point x="60" y="0"/>
    </contour>
    <contour>
      <point x="394" y="104" type="curve" smooth="yes"/>
      <point x="394" y="148" type="line"/>
      <point x="341" y="148" type="line"/>
      <point x="341" y="104" type="line" smooth="yes"/>
      <point x="341" y="63"/>
      <point x="331" y="53"/>
      <point x="289" y="53" type="curve" smooth="yes"/>
      <point x="283" y="53" type="line"/>
      <point x="283" y="0" type="line"/>
      <point x="289" y="0" type="line" smooth="yes"/>
      <point x="358" y="0"/>
      <point x="394" y="36"/>
    </contour>
    <contour>
      <point x="173" y="104" type="line" smooth="yes"/>
      <point x="173" y="36"/>
      <point x="209" y="0"/>
      <point x="278" y="0" type="curve" smooth="yes"/>
      <point x="283" y="0" type="line"/>
      <point x="283" y="53" type="line"/>
      <point x="278" y="53" type="line" smooth="yes"/>
      <point x="236" y="53"/>
      <point x="226" y="63"/>
      <point x="226" y="104" type="curve" smooth="yes"/>
      <point x="226" y="238" type="line"/>
      <point x="173" y="238" type="line"/>
    </contour>
    <contour>
      <point x="394" y="396" type="line" smooth="yes"/>
      <point x="394" y="464"/>
      <point x="358" y="500"/>
      <point x="289" y="500" type="curve" smooth="yes"/>
      <point x="283" y="500" type="line"/>
      <point x="283" y="447" type="line"/>
      <point x="289" y="447" type="line" smooth="yes"/>
      <point x="331" y="447"/>
      <point x="341" y="437"/>
      <point x="341" y="396" type="curve" smooth="yes"/>
      <point x="341" y="230" type="line"/>
      <point x="394" y="230" type="line"/>
    </contour>
    <contour>
      <point x="394" y="261" type="line"/>
      <point x="173" y="261" type="line"/>
      <point x="173" y="208" type="line"/>
      <point x="394" y="208" type="line"/>
    </contour>
    <contour>
      <point x="173" y="0" type="line"/>
      <point x="246" y="0" type="line"/>
      <point x="238" y="53" type="line"/>
      <point x="173" y="53" type="line"/>
    </contour>
  </outline>
</glyph>
<glyph name="divide" format="2">
  <advance width="300"/>
  <unicode hex="00F7"/>
  <outline>
    <contour>
      <point x="20" y="274" type="line"/>
      <point x="280" y="274" type="line"/>
      <point x="280" y="327" type="line"/>
      <point x="20" y="327" type="line"/>
    </contour>
    <contour>
      <point x="124" y="217" type="line"/>
      <point x="124" y="164" type="line"/>
      <point x="177" y="164" type="line"/>
      <point x="177" y="217" type="line"/>
    </contour>
    <contour>
      <point x="124" y="442" type="line"/>
      <point x="124" y="389" type="line"/>
      <point x="177" y="389" type="line"/>
      <point x="177" y="442" type="line"/>
    </contour>
  </outline>
</glyph>
<glyph name="thorn" format="2">
  <advance width="264"/>
  <unicode hex="00FE"/>
  <outline>
    <contour>
      <point x="38" y="-133" type="line"/>
      <point x="91" y="-133" type="line"/>
      <point x="91" y="700" type="line"/>
      <point x="38" y="700" type="line"/>
    </contour>
    <contour>
      <point x="20" y="647" type="line"/>
      <point x="91" y="647" type="line"/>
      <point x="91" y="700" type="line"/>
      <point x="28" y="700" type="line"/>
    </contour>
    <contour>
      <point x="244" y="93" type="curve" smooth="yes"/>
      <point x="244" y="298" type="line"/>
      <point x="191" y="298" type="line"/>
      <point x="191" y="83" type="line" smooth="yes"/>
      <point x="191" y="59"/>
      <point x="185" y="53"/>
      <point x="161" y="53" type="curve" smooth="yes"/>
      <point x="48" y="53" type="line"/>
      <point x="48" y="53"/>
      <point x="48" y="52"/>
      <point x="48" y="52" type="curve" smooth="yes"/>
      <point x="48" y="38"/>
      <point x="90" y="0"/>
      <point x="140" y="0" type="curve" smooth="yes"/>
      <point x="142" y="0" type="line" smooth="yes"/>
      <point x="196" y="0"/>
      <point x="244" y="23"/>
    </contour>
    <contour>
      <point x="66" y="447" type="line"/>
      <point x="161" y="447" type="line" smooth="yes"/>
      <point x="185" y="447"/>
      <point x="191" y="441"/>
      <point x="191" y="417" type="curve" smooth="yes"/>
      <point x="191" y="242" type="line"/>
      <point x="244" y="242" type="line"/>
      <point x="244" y="407" type="line" smooth="yes"/>
      <point x="244" y="461"/>
      <point x="204" y="500"/>
      <point x="143" y="500" type="curve" smooth="yes"/>
      <point x="114" y="500" type="line"/>
    </contour>
  </outline>
</glyph>
<glyph name="idotless" format="2">
  <advance width="107"/>
  <unicode hex="0131"/>
  <outline>
    <contour>
      <point x="34" y="0" type="line"/>
      <point x="87" y="0" type="line"/>
      <point x="87" y="500" type="line"/>
      <point x="34" y="500" type="line"/>
    </contour>
    <contour>
      <point x="87" y="500" type="line"/>
      <point x="28" y="500" type="line"/>
      <point x="20" y="447" type="line"/>
      <point x="87" y="447" type="line"/>
    </contour>
  </outline>
</glyph>
<glyph name="OE" format="2">
  <advance width="421"/>
  <unicode hex="0152"/>
  <outline>
    <contour>
      <point x="248" y="600" type="line" smooth="yes"/>
      <point x="248" y="669"/>
      <point x="211" y="704"/>
      <point x="136" y="704" type="curve" smooth="yes"/>
      <point x="132" y="704" type="line" smooth="yes"/>
      <point x="57" y="704"/>
      <point x="20" y="669"/>
      <point x="20" y="600" type="curve" smooth="yes"/>
      <point x="20" y="345" type="line"/>
      <point x="73" y="345" type="line"/>
      <point x="73" y="600" type="line" smooth="yes"/>
      <point x="73" y="633"/>
      <point x="90" y="651"/>
      <point x="132" y="651" type="curve" smooth="yes"/>
      <point x="136" y="651" type="line" smooth="yes"/>
      <point x="178" y="651"/>
      <point x="195" y="634"/>
      <point x="195" y="600" type="curve" smooth="yes"/>
      <point x="195" y="345" type="line"/>
      <point x="248" y="345" type="line"/>
    </contour>
    <contour>
      <point x="248" y="97" type="curve" smooth="yes"/>
      <point x="248" y="352" type="line"/>
      <point x="195" y="352" type="line"/>
      <point x="195" y="97" type="line" smooth="yes"/>
      <point x="195" y="63"/>
      <point x="178" y="46"/>
      <point x="136" y="46" type="curve" smooth="yes"/>
      <point x="132" y="46" type="line" smooth="yes"/>
      <point x="90" y="46"/>
      <point x="73" y="64"/>
      <point x="73" y="97" type="curve" smooth="yes"/>
      <point x="73" y="352" type="line"/>
      <point x="20" y="352" type="line"/>
      <point x="20" y="97" type="line" smooth="yes"/>
      <point x="20" y="28"/>
      <point x="57" y="-7"/>
      <point x="132" y="-7" type="curve" smooth="yes"/>
      <point x="136" y="-7" type="line" smooth="yes"/>
      <point x="211" y="-7"/>
      <point x="248" y="28"/>
    </contour>
    <contour>
      <point x="401" y="700" type="line"/>
      <point x="195" y="700" type="line"/>
      <point x="195" y="647" type="line"/>
      <point x="395" y="647" type="line"/>
    </contour>
    <contour>
      <point x="401" y="53" type="line"/>
      <point x="195" y="53" type="line"/>
      <point x="195" y="0" type="line"/>
      <point x="395" y="0" type="line"/>
    </contour>
    <contour>
      <point x="401" y="377" type="line"/>
      <point x="195" y="377" type="line"/>
      <point x="195" y="324" type="line"/>
      <point x="395" y="324" type="line"/>
    </contour>
  </outline>
</glyph>
<glyph name="circumflex" format="2">
  <advance width="147"/>
  <unicode hex="02C6"/>
  <outline>
    <contour>
      <point x="100" y="800" type="line"/>
      <point x="60" y="800" type="line"/>
      <point x="87" y="740" type="line"/>
      <point x="127" y="740" type="line"/>
    </contour>
    <contour>
      <point x="47" y="800" type="line"/>
      <point x="20" y="740" type="line"/>
      <point x="60" y="740" type="line"/>
      <point x="87" y="800" type="line"/>
    </contour>
  </outline>
</glyph>
<glyph name="ring" format="2">
  <advance width="149"/>
  <unicode hex="02DA"/>
  <outline>
    <contour>
      <point x="74" y="715" type="curve" smooth="yes"/>
      <point x="106" y="715"/>
      <point x="129" y="737"/>
      <point x="129" y="768" type="curve" smooth="yes"/>
      <point x="129" y="800"/>
      <point x="106" y="822"/>
      <point x="74" y="822" type="curve" smooth="yes"/>
      <point x="42" y="822"/>
      <point x="20" y="800"/>
      <point x="20" y="768" type="curve" smooth="yes"/>
      <point x="20" y="737"/>
      <point x="42" y="715"/>
    </contour>
    <contour>
      <point x="74" y="742" type="curve" smooth="yes"/>
      <point x="60" y="742"/>
      <point x="50" y="753"/>
      <point x="50" y="768" type="curve" smooth="yes"/>
      <point x="50" y="784"/>
      <point x="60" y="795"/>
      <point x="74" y="795" type="curve" smooth="yes"/>
      <point x="89" y="795"/>
      <point x="99" y="784"/>
      <point x="99" y="768" type="curve" smooth="yes"/>
      <point x="99" y="753"/>
      <point x="89" y="742"/>
    </contour>
  </outline>
</glyph>
<glyph name="tilde" format="2">
  <advance width="158"/>
  <unicode hex="02DC"/>
  <outline>
    <contour>
      <point x="138" y="800" type="line"/>
      <point x="127" y="779"/>
      <point x="108" y="776"/>
      <point x="82" y="790" type="curve" smooth="yes"/>
      <point x="55" y="805"/>
      <point x="34" y="802"/>
      <point x="20" y="785" type="curve"/>
      <point x="20" y="734" type="line"/>
      <point x="33" y="754"/>
      <point x="51" y="757"/>
      <point x="76" y="744" type="curve" smooth="yes"/>
      <point x="104" y="728"/>
      <point x="125" y="730"/>
      <point x="138" y="749" type="curve"/>
    </contour>
  </outline>
</glyph>
<glyph name="sheva-hb" format="2">
  <unicode hex="05B0"/>
  <anchor x="43" y="0" name="_bottom"/>
  <outline>
    <contour>
      <point x="43" y="-94" type="curve" smooth="yes"/>
      <point x="56" y="-94"/>
      <point x="66" y="-84"/>
      <point x="66" y="-71" type="curve" smooth="yes"/>
      <point x="66" y="-58"/>
      <point x="56" y="-48"/>
      <point x="43" y="-48" type="curve" smooth="yes"/>
      <point x="30" y="-48"/>
      <point x="20" y="-58"/>
      <point x="20" y="-71" type="curve" smooth="yes"/>
      <point x="20" y="-84"/>
      <point x="30" y="-94"/>
    </contour>
    <contour>
      <point x="43" y="-152" type="curve" smooth="yes"/>
      <point x="56" y="-152"/>
      <point x="66" y="-142"/>
      <point x="66" y="-129" type="curve" smooth="yes"/>
      <point x="66" y="-116"/>
      <point x="56" y="-106"/>
      <point x="43" y="-106" type="curve" smooth="yes"/>
      <point x="30" y="-106"/>
      <point x="20" y="-116"/>
      <point x="20" y="-129" type="curve" smooth="yes"/>
      <point x="20" y="-142"/>
      <point x="30" y="-152"/>
    </contour>
  </outline>
</glyph>
<glyph name="hatafsegol-hb" format="2">
  <unicode hex="05B1"/>
  <anchor x="124" y="0" name="_bottom"/>
  <outline>
    <contour>
      <point x="66" y="-71" type="curve" smooth="yes"/>
      <point x="66" y="-58"/>
      <point x="56" y="-48"/>
      <point x="43" y="-48" type="curve" smooth="yes"/>
      <point x="30" y="-48"/>
      <point x="20" y="-58"/>
      <point x="20" y="-71" type="curve" smooth="yes"/>
      <point x="20" y="-84"/>
      <point x="30" y="-94"/>
      <point x="43" y="-94" type="curve" smooth="yes"/>
      <point x="56" y="-94"/>
      <point x="66" y="-84"/>
    </contour>
    <contour>
      <point x="124" y="-71" type="curve" smooth="yes"/>
      <point x="124" y="-58"/>
      <point x="114" y="-48"/>
      <point x="101" y="-48" type="curve" smooth="yes"/>
      <point x="88" y="-48"/>
      <point x="78" y="-58"/>
      <point x="78" y="-71" type="curve" smooth="yes"/>
      <point x="78" y="-84"/>
      <point x="88" y="-94"/>
      <point x="101" y="-94" type="curve" smooth="yes"/>
      <point x="114" y="-94"/>
      <point x="124" y="-84"/>
    </contour>
    <contour>
      <point x="95" y="-117" type="curve" smooth="yes"/>
      <point x="95" y="-104"/>
      <point x="85" y="-94"/>
      <point x="72" y="-94" type="curve" smooth="yes"/>
      <point x="59" y="-94"/>
      <point x="49" y="-104"/>
      <point x="49" y="-117" type="curve" smooth="yes"/>
      <point x="49" y="-130"/>
      <point x="59" y="-140"/>
      <point x="72" y="-140" type="curve" smooth="yes"/>
      <point x="85" y="-140"/>
      <point x="95" y="-130"/>
    </contour>
    <contour>
      <point x="165" y="-94" type="curve" smooth="yes"/>
      <point x="178" y="-94"/>
      <point x="188" y="-84"/>
      <point x="188" y="-71" type="curve" smooth="yes"/>
      <point x="188" y="-58"/>
      <point x="178" y="-48"/>
      <point x="165" y="-48" type="curve" smooth="yes"/>
      <point x="152" y="-48"/>
      <point x="142" y="-58"/>
      <point x="142" y="-71" type="curve" smooth="yes"/>
      <point x="142" y="-84"/>
      <point x="152" y="-94"/>
    </contour>
    <contour>
      <point x="165" y="-150" type="curve" smooth="yes"/>
      <point x="178" y="-150"/>
      <point x="188" y="-140"/>
      <point x="188" y="-127" type="curve" smooth="yes"/>
      <point x="188" y="-114"/>
      <point x="178" y="-104"/>
      <point x="165" y="-104" type="curve" smooth="yes"/>
      <point x="152" y="-104"/>
      <point x="142" y="-114"/>
      <point x="142" y="-127" type="curve" smooth="yes"/>
      <point x="142" y="-140"/>
      <point x="152" y="-150"/>
    </contour>
  </outline>
</glyph>
<glyph name="hatafpatah-hb" format="2">
  <unicode hex="05B2"/>
  <anchor x="129" y="0" name="_bottom"/>
  <outline>
    <contour>
      <point x="20" y="-86" type="line"/>
      <point x="157" y="-86" type="line"/>
      <point x="157" y="-56" type="line"/>
      <point x="20" y="-56" type="line"/>
    </contour>
    <contour>
      <point x="195" y="-94" type="curve" smooth="yes"/>
      <point x="208" y="-94"/>
      <point x="218" y="-84"/>
      <point x="218" y="-71" type="curve" smooth="yes"/>
      <point x="218" y="-58"/>
      <point x="208" y="-48"/>
      <point x="195" y="-48" type="curve" smooth="yes"/>
      <point x="182" y="-48"/>
      <point x="172" y="-58"/>
      <point x="172" y="-71" type="curve" smooth="yes"/>
      <point x="172" y="-84"/>
      <point x="182" y="-94"/>
    </contour>
    <contour>
      <point x="195" y="-152" type="curve" smooth="yes"/>
      <point x="208" y="-152"/>
      <point x="218" y="-142"/>
      <point x="218" y="-129" type="curve" smooth="yes"/>
      <point x="218" y="-116"/>
      <point x="208" y="-106"/>
      <point x="195" y="-106" type="curve" smooth="yes"/>
      <point x="182" y="-106"/>
      <point x="172" y="-116"/>
      <point x="172" y="-129" type="curve" smooth="yes"/>
      <point x="172" y="-142"/>
      <point x="182" y="-152"/>
    </contour>
  </outline>
</glyph>
<glyph name="hiriq-hb" format="2">
  <unicode hex="05B4"/>
  <anchor x="43" y="0" name="_bottom"/>
  <outline>
    <contour>
      <point x="43" y="-94" type="curve" smooth="yes"/>
      <point x="56" y="-94"/>
      <point x="66" y="-84"/>
      <point x="66" y="-71" type="curve" smooth="yes"/>
      <point x="66" y="-58"/>
      <point x="56" y="-48"/>
      <point x="43" y="-48" type="curve" smooth="yes"/>
      <point x="30" y="-48"/>
      <point x="20" y="-58"/>
      <point x="20" y="-71" type="curve" smooth="yes"/>
      <point x="20" y="-84"/>
      <point x="30" y="-94"/>
    </contour>
  </outline>
</glyph>
<glyph name="tsere-hb" format="2">
  <unicode hex="05B5"/>
  <anchor x="73" y="0" name="_bottom"/>
  <outline>
    <contour>
      <point x="66" y="-71" type="curve" smooth="yes"/>
      <point x="66" y="-58"/>
      <point x="56" y="-48"/>
      <point x="43" y="-48" type="curve" smooth="yes"/>
      <point x="30" y="-48"/>
      <point x="20" y="-58"/>
      <point x="20" y="-71" type="curve" smooth="yes"/>
      <point x="20" y="-84"/>
      <point x="30" y="-94"/>
      <point x="43" y="-94" type="curve" smooth="yes"/>
      <point x="56" y="-94"/>
      <point x="66" y="-84"/>
    </contour>
    <contour>
      <point x="124" y="-71" type="curve" smooth="yes"/>
      <point x="124" y="-58"/>
      <point x="114" y="-48"/>
      <point x="101" y="-48" type="curve" smooth="yes"/>
      <point x="88" y="-48"/>
      <point x="78" y="-58"/>
      <point x="78" y="-71" type="curve" smooth="yes"/>
      <point x="78" y="-84"/>
      <point x="88" y="-94"/>
      <point x="101" y="-94" type="curve" smooth="yes"/>
      <point x="114" y="-94"/>
      <point x="124" y="-84"/>
    </contour>
  </outline>
</glyph>
<glyph name="segol-hb" format="2">
  <unicode hex="05B6"/>
  <anchor x="73" y="0" name="_bottom"/>
  <outline>
    <contour>
      <point x="66" y="-71" type="curve" smooth="yes"/>
      <point x="66" y="-58"/>
      <point x="56" y="-48"/>
      <point x="43" y="-48" type="curve" smooth="yes"/>
      <point x="30" y="-48"/>
      <point x="20" y="-58"/>
      <point x="20" y="-71" type="curve" smooth="yes"/>
      <point x="20" y="-84"/>
      <point x="30" y="-94"/>
      <point x="43" y="-94" type="curve" smooth="yes"/>
      <point x="56" y="-94"/>
      <point x="66" y="-84"/>
    </contour>
    <contour>
      <point x="124" y="-71" type="curve" smooth="yes"/>
      <point x="124" y="-58"/>
      <point x="114" y="-48"/>
      <point x="101" y="-48" type="curve" smooth="yes"/>
      <point x="88" y="-48"/>
      <point x="78" y="-58"/>
      <point x="78" y="-71" type="curve" smooth="yes"/>
      <point x="78" y="-84"/>
      <point x="88" y="-94"/>
      <point x="101" y="-94" type="curve" smooth="yes"/>
      <point x="114" y="-94"/>
      <point x="124" y="-84"/>
    </contour>
    <contour>
      <point x="95" y="-117" type="curve" smooth="yes"/>
      <point x="95" y="-104"/>
      <point x="85" y="-94"/>
      <point x="72" y="-94" type="curve" smooth="yes"/>
      <point x="59" y="-94"/>
      <point x="49" y="-104"/>
      <point x="49" y="-117" type="curve" smooth="yes"/>
      <point x="49" y="-130"/>
      <point x="59" y="-140"/>
      <point x="72" y="-140" type="curve" smooth="yes"/>
      <point x="85" y="-140"/>
      <point x="95" y="-130"/>
    </contour>
  </outline>
</glyph>
<glyph name="patah-hb" format="2">
  <unicode hex="05B7"/>
  <anchor x="92" y="0" name="_bottom"/>
  <outline>
    <contour>
      <point x="20" y="-86" type="line"/>
      <point x="157" y="-86" type="line"/>
      <point x="157" y="-56" type="line"/>
      <point x="20" y="-56" type="line"/>
    </contour>
  </outline>
</glyph>
<glyph name="qamats-hb" format="2">
  <unicode hex="05B8"/>
  <anchor x="102" y="0" name="_bottom"/>
  <outline>
    <contour>
      <point x="20" y="-86" type="line"/>
      <point x="157" y="-86" type="line"/>
      <point x="157" y="-56" type="line"/>
      <point x="20" y="-56" type="line"/>
    </contour>
    <contour>
      <point x="74" y="-130" type="line"/>
      <point x="104" y="-130" type="line"/>
      <point x="104" y="-56" type="line"/>
      <point x="74" y="-56" type="line"/>
    </contour>
  </outline>
</glyph>
<glyph name="qubuts-hb" format="2">
  <unicode hex="05BB"/>
  <anchor x="309" y="0" name="_bottom"/>
  <outline>
    <contour>
      <point x="263" y="-67" type="curve" smooth="yes"/>
      <point x="263" y="-54"/>
      <point x="253" y="-44"/>
      <point x="240" y="-44" type="curve" smooth="yes"/>
      <point x="227" y="-44"/>
      <point x="217" y="-54"/>
      <point x="217" y="-67" type="curve" smooth="yes"/>
      <point x="217" y="-80"/>
      <point x="227" y="-90"/>
      <point x="240" y="-90" type="curve" smooth="yes"/>
      <point x="253" y="-90"/>
      <point x="263" y="-80"/>
    </contour>
    <contour>
      <point x="303" y="-103" type="curve" smooth="yes"/>
      <point x="303" y="-90"/>
      <point x="293" y="-80"/>
      <point x="280" y="-80" type="curve" smooth="yes"/>
      <point x="267" y="-80"/>
      <point x="257" y="-90"/>
      <point x="257" y="-103" type="curve" smooth="yes"/>
      <point x="257" y="-116"/>
      <point x="267" y="-126"/>
      <point x="280" y="-126" type="curve" smooth="yes"/>
      <point x="293" y="-126"/>
      <point x="303" y="-116"/>
    </contour>
    <contour>
      <point x="343" y="-139" type="curve" smooth="yes"/>
      <point x="343" y="-126"/>
      <point x="333" y="-116"/>
      <point x="320" y="-116" type="curve" smooth="yes"/>
      <point x="307" y="-116"/>
      <point x="297" y="-126"/>
      <point x="297" y="-139" type="curve" smooth="yes"/>
      <point x="297" y="-152"/>
      <point x="307" y="-162"/>
      <point x="320" y="-162" type="curve" smooth="yes"/>
      <point x="333" y="-162"/>
      <point x="343" y="-152"/>
    </contour>
  </outline>
</glyph>
<glyph name="dagesh-hb" format="2">
  <unicode hex="05BC"/>
  <anchor x="23" y="300" name="_center"/>
  <outline>
    <contour>
      <point x="23" y="277" type="curve" smooth="yes"/>
      <point x="36" y="277"/>
      <point x="46" y="287"/>
      <point x="46" y="300" type="curve" smooth="yes"/>
      <point x="46" y="313"/>
      <point x="36" y="323"/>
      <point x="23" y="323" type="curve" smooth="yes"/>
      <point x="10" y="323"/>
      <point x="0" y="313"/>
      <point x="0" y="300" type="curve" smooth="yes"/>
      <point x="0" y="287"/>
      <point x="10" y="277"/>
    </contour>
  </outline>
</glyph>
<glyph name="maqaf-hb" format="2">
  <advance width="260"/>
  <unicode hex="05BE"/>
  <note>
maqaf
</note>
  <outline>
    <contour>
      <point x="20" y="547" type="line"/>
      <point x="240" y="547" type="line"/>
      <point x="240" y="600" type="line"/>
      <point x="20" y="600" type="line"/>
    </contour>
  </outline>
</glyph>
<glyph name="rafe-hb" format="2">
  <unicode hex="05BF"/>
  <anchor x="76" y="500" name="_top"/>
  <outline>
    <contour>
      <point x="20" y="670" type="line"/>
      <point x="137" y="670" type="line"/>
      <point x="137" y="700" type="line"/>
      <point x="20" y="700" type="line"/>
    </contour>
  </outline>
</glyph>
<glyph name="sindot-hb" format="2">
  <unicode hex="05C2"/>
  <anchor x="89" y="600" name="_sin"/>
  <anchor x="30" y="500" name="_topleft"/>
  <outline>
    <contour>
      <point x="43" y="637" type="curve" smooth="yes"/>
      <point x="56" y="637"/>
      <point x="66" y="647"/>
      <point x="66" y="660" type="curve" smooth="yes"/>
      <point x="66" y="673"/>
      <point x="56" y="683"/>
      <point x="43" y="683" type="curve" smooth="yes"/>
      <point x="30" y="683"/>
      <point x="20" y="673"/>
      <point x="20" y="660" type="curve" smooth="yes"/>
      <point x="20" y="647"/>
      <point x="30" y="637"/>
    </contour>
  </outline>
</glyph>
<glyph name="qamatsqatan-hb" format="2">
  <unicode hex="05C7"/>
  <anchor x="74" y="0" name="_bottom"/>
  <outline>
    <contour>
      <point x="20" y="-96" type="line"/>
      <point x="157" y="-96" type="line"/>
      <point x="157" y="-66" type="line"/>
      <point x="20" y="-66" type="line"/>
    </contour>
    <contour>
      <point x="74" y="-130" type="line"/>
      <point x="104" y="-130" type="line"/>
      <point x="104" y="-66" type="line"/>
      <point x="74" y="-66" type="line"/>
    </contour>
  </outline>
</glyph>
<glyph name="alef-hb" format="2">
  <advance width="311"/>
  <unicode hex="05D0"/>
  <note>
alefhebrew
</note>
  <anchor x="174" y="0" name="bottom"/>
  <anchor x="124" y="250" name="center"/>
  <anchor x="150" y="500" name="top"/>
  <anchor x="9" y="500" name="topleft"/>
  <outline>
    <contour>
      <point x="157" y="293" type="line"/>
      <point x="184" y="293" type="line" smooth="yes"/>
      <point x="246" y="293"/>
      <point x="278" y="323"/>
      <point x="278" y="381" type="curve" smooth="yes"/>
      <point x="278" y="600" type="line"/>
      <point x="227" y="600" type="line"/>
      <point x="227" y="381" type="line" smooth="yes"/>
      <point x="227" y="357"/>
      <point x="217" y="344"/>
      <point x="199" y="344" type="curve" smooth="yes"/>
      <point x="157" y="344" type="line"/>
    </contour>
    <contour>
      <point x="32" y="0" type="line"/>
      <point x="85" y="0" type="line"/>
      <point x="85" y="524" type="line"/>
      <point x="84" y="524" type="line"/>
      <point x="238" y="0" type="line"/>
      <point x="291" y="0" type="line"/>
      <point x="115" y="600" type="line"/>
      <point x="32" y="600" type="line"/>
    </contour>
    <contour>
      <point x="115" y="600" type="line"/>
      <point x="32" y="600" type="line"/>
      <point x="20" y="547" type="line"/>
      <point x="115" y="547" type="line"/>
    </contour>
    <contour>
      <point x="278" y="600" type="line"/>
      <point x="211" y="600" type="line"/>
      <point x="199" y="547" type="line"/>
      <point x="278" y="547" type="line"/>
    </contour>
  </outline>
</glyph>
<glyph name="bet-hb" format="2">
  <advance width="290"/>
  <unicode hex="05D1"/>
  <note>
bethebrew
</note>
  <anchor x="170" y="0" name="bottom"/>
  <anchor x="100" y="290" name="center"/>
  <anchor x="150" y="500" name="top"/>
  <anchor x="20" y="500" name="topleft"/>
  <outline>
    <contour>
      <point x="186" y="600" type="line"/>
      <point x="186" y="0" type="line"/>
      <point x="240" y="0" type="line"/>
      <point x="240" y="600" type="line"/>
    </contour>
    <contour>
      <point x="240" y="600" type="line"/>
      <point x="36" y="600" type="line"/>
      <point x="24" y="547" type="line"/>
      <point x="240" y="547" type="line"/>
    </contour>
    <contour>
      <point x="275" y="53" type="line"/>
      <point x="20" y="53" type="line"/>
      <point x="20" y="0" type="line"/>
      <point x="275" y="0" type="line"/>
    </contour>
  </outline>
</glyph>
<glyph name="gimel-hb" format="2">
  <advance width="205"/>
  <unicode hex="05D2"/>
  <note>
gimelhebrew
</note>
  <anchor x="103" y="0" name="bottom"/>
  <anchor x="73" y="417" name="center"/>
  <anchor x="114" y="500" name="top"/>
  <anchor x="52" y="500" name="topleft"/>
  <outline>
    <contour>
      <point x="185" y="600" type="line"/>
      <point x="56" y="600" type="line"/>
      <point x="44" y="547" type="line"/>
      <point x="185" y="547" type="line"/>
    </contour>
    <contour>
      <point x="132" y="600" type="line"/>
      <point x="132" y="0" type="line"/>
      <point x="185" y="0" type="line"/>
      <point x="185" y="600" type="line"/>
    </contour>
    <contour>
      <point x="185" y="292" type="line"/>
      <point x="185" y="345" type="line"/>
      <point x="114" y="345" type="line" smooth="yes"/>
      <point x="52" y="345"/>
      <point x="20" y="315"/>
      <point x="20" y="257" type="curve" smooth="yes"/>
      <point x="20" y="0" type="line"/>
      <point x="73" y="0" type="line"/>
      <point x="73" y="257" type="line" smooth="yes"/>
      <point x="73" y="277"/>
      <point x="79" y="292"/>
      <point x="99" y="292" type="curve" smooth="yes"/>
    </contour>
  </outline>
</glyph>
<glyph name="dalet-hb" format="2">
  <advance width="285"/>
  <unicode hex="05D3"/>
  <note>
dalethebrew
</note>
  <anchor x="146" y="0" name="bottom"/>
  <anchor x="91" y="290" name="center"/>
  <anchor x="146" y="500" name="top"/>
  <anchor x="11" y="500" name="topleft"/>
  <outline>
    <contour>
      <point x="177" y="0" type="line"/>
      <point x="230" y="0" type="line"/>
      <point x="230" y="563" type="line"/>
      <point x="231" y="563" type="line"/>
      <point x="196" y="563"/>
      <point x="177" y="531"/>
      <point x="177" y="470" type="curve"/>
    </contour>
    <contour>
      <point x="15" y="547" type="line"/>
      <point x="270" y="547" type="line"/>
      <point x="270" y="600" type="line"/>
      <point x="27" y="600" type="line"/>
    </contour>
  </outline>
</glyph>
<glyph name="he-hb" format="2">
  <advance width="248"/>
  <unicode hex="05D4"/>
  <note>
hehebrew
</note>
  <anchor x="123" y="0" name="bottom"/>
  <anchor x="123" y="290" name="center"/>
  <anchor x="123" y="500" name="top"/>
  <anchor x="18" y="500" name="topleft"/>
  <outline>
    <contour>
      <point x="174" y="0" type="line"/>
      <point x="228" y="0" type="line"/>
      <point x="228" y="600" type="line"/>
      <point x="174" y="600" type="line"/>
    </contour>
    <contour>
      <point x="20" y="0" type="line"/>
      <point x="74" y="0" type="line"/>
      <point x="74" y="467" type="line"/>
      <point x="20" y="467" type="line"/>
    </contour>
    <contour>
      <point x="22" y="547" type="line"/>
      <point x="228" y="547" type="line"/>
      <point x="228" y="600" type="line"/>
      <point x="34" y="600" type="line"/>
    </contour>
  </outline>
</glyph>
<glyph name="vav-hb" format="2">
  <advance width="116"/>
  <unicode hex="05D5"/>
  <note>
vavhebrew
</note>
  <anchor x="50" y="0" name="bottom"/>
  <anchor x="16" y="0" name="bottomleft"/>
  <anchor x="3" y="250" name="center"/>
  <anchor x="50" y="500" name="top"/>
  <anchor x="28" y="500" name="topleft"/>
  <outline>
    <contour>
      <point x="43" y="600" type="line"/>
      <point x="43" y="0" type="line"/>
      <point x="96" y="0" type="line"/>
      <point x="96" y="600" type="line"/>
    </contour>
    <contour>
      <point x="96" y="600" type="line"/>
      <point x="27" y="600" type="line"/>
      <point x="15" y="547" type="line"/>
      <point x="96" y="547" type="line"/>
    </contour>
  </outline>
</glyph>
<glyph name="zayin-hb" format="2">
  <advance width="157"/>
  <unicode hex="05D6"/>
  <note>
zayinhebrew
</note>
  <anchor x="73" y="0" name="bottom"/>
  <anchor x="8" y="250" name="center"/>
  <anchor x="73" y="500" name="top"/>
  <anchor x="24" y="500" name="topleft"/>
  <outline>
    <contour>
      <point x="52" y="563" type="curve" smooth="yes"/>
      <point x="51" y="563" type="line"/>
      <point x="51" y="0" type="line"/>
      <point x="106" y="0" type="line"/>
      <point x="106" y="470" type="line"/>
      <point x="106" y="531"/>
      <point x="87" y="563"/>
    </contour>
    <contour>
      <point x="137" y="600" type="line"/>
      <point x="27" y="600" type="line"/>
      <point x="15" y="547" type="line"/>
      <point x="137" y="547" type="line"/>
    </contour>
  </outline>
</glyph>
<glyph name="het-hb" format="2">
  <advance width="256"/>
  <unicode hex="05D7"/>
  <note>
hethebrew
</note>
  <anchor x="131" y="0" name="bottom"/>
  <anchor x="130" y="290" name="center"/>
  <anchor x="121" y="500" name="top"/>
  <anchor x="6" y="500" name="topleft"/>
  <outline>
    <contour>
      <point x="182" y="600" type="line"/>
      <point x="182" y="0" type="line"/>
      <point x="236" y="0" type="line"/>
      <point x="236" y="600" type="line"/>
    </contour>
    <contour>
      <point x="236" y="600" type="line"/>
      <point x="27" y="600" type="line"/>
      <point x="15" y="547" type="line"/>
      <point x="236" y="547" type="line"/>
    </contour>
    <contour>
      <point x="35" y="600" type="line"/>
      <point x="35" y="0" type="line"/>
      <point x="89" y="0" type="line"/>
      <point x="89" y="600" type="line"/>
    </contour>
  </outline>
</glyph>
<glyph name="tet-hb" format="2">
  <advance width="265"/>
  <unicode hex="05D8"/>
  <note>
tethebrew
</note>
  <anchor x="141" y="0" name="bottom"/>
  <anchor x="132" y="290" name="center"/>
  <anchor x="122" y="500" name="top"/>
  <anchor x="9" y="500" name="topleft"/>
  <outline>
    <contour>
      <point x="29" y="600" type="line"/>
      <point x="29" y="0" type="line"/>
      <point x="82" y="0" type="line"/>
      <point x="82" y="600" type="line"/>
    </contour>
    <contour>
      <point x="82" y="600" type="line"/>
      <point x="27" y="600" type="line"/>
      <point x="15" y="547" type="line"/>
      <point x="82" y="547" type="line"/>
    </contour>
    <contour>
      <point x="245" y="600" type="line"/>
      <point x="148" y="600" type="line"/>
      <point x="136" y="547" type="line"/>
      <point x="245" y="547" type="line"/>
    </contour>
    <contour>
      <point x="245" y="88" type="curve" smooth="yes"/>
      <point x="245" y="600" type="line"/>
      <point x="192" y="600" type="line"/>
      <point x="192" y="88" type="line" smooth="yes"/>
      <point x="192" y="65"/>
      <point x="183" y="53"/>
      <point x="166" y="53" type="curve" smooth="yes"/>
      <point x="29" y="53" type="line"/>
      <point x="29" y="0" type="line"/>
      <point x="151" y="0" type="line" smooth="yes"/>
      <point x="213" y="0"/>
      <point x="245" y="30"/>
    </contour>
  </outline>
</glyph>
<glyph name="yod-hb" format="2">
  <advance width="116"/>
  <unicode hex="05D9"/>
  <note>
yodhebrew
</note>
  <anchor x="50" y="0" name="bottom"/>
  <anchor x="12" y="415" name="center"/>
  <anchor x="50" y="500" name="top"/>
  <anchor x="3" y="500" name="topleft"/>
  <outline>
    <contour>
      <point x="43" y="220" type="line"/>
      <point x="96" y="220" type="line"/>
      <point x="96" y="600" type="line"/>
      <point x="43" y="600" type="line"/>
    </contour>
    <contour>
      <point x="15" y="547" type="line"/>
      <point x="96" y="547" type="line"/>
      <point x="96" y="600" type="line"/>
      <point x="27" y="600" type="line"/>
    </contour>
  </outline>
</glyph>
<glyph name="finalkaf-hb" format="2">
  <advance width="246"/>
  <unicode hex="05DA"/>
  <note>
finalkafhebrew
</note>
  <anchor x="96" y="288" name="bottom"/>
  <anchor x="96" y="290" name="center"/>
  <anchor x="121" y="500" name="top"/>
  <anchor x="16" y="500" name="topleft"/>
  <outline>
    <contour>
      <point x="173" y="600" type="line"/>
      <point x="173" y="-80" type="line"/>
      <point x="226" y="-80" type="line"/>
      <point x="226" y="600" type="line"/>
    </contour>
    <contour>
      <point x="226" y="600" type="line"/>
      <point x="32" y="600" type="line"/>
      <point x="20" y="547" type="line"/>
      <point x="226" y="547" type="line"/>
    </contour>
  </outline>
</glyph>
<glyph name="kaf-hb" format="2">
  <advance width="267"/>
  <unicode hex="05DB"/>
  <note>
kafhebrew
</note>
  <anchor x="134" y="0" name="bottom"/>
  <anchor x="100" y="290" name="center"/>
  <anchor x="134" y="500" name="top"/>
  <anchor x="20" y="500" name="topleft"/>
  <outline>
    <contour>
      <point x="20" y="0" type="line"/>
      <point x="153" y="0" type="line" smooth="yes"/>
      <point x="215" y="0"/>
      <point x="247" y="30"/>
      <point x="247" y="88" type="curve" smooth="yes"/>
      <point x="247" y="600" type="line"/>
      <point x="194" y="600" type="line"/>
      <point x="194" y="88" type="line" smooth="yes"/>
      <point x="194" y="64"/>
      <point x="185" y="53"/>
      <point x="168" y="53" type="curve" smooth="yes"/>
      <point x="20" y="53" type="line"/>
    </contour>
    <contour>
      <point x="24" y="547" type="line"/>
      <point x="247" y="547" type="line"/>
      <point x="247" y="600" type="line"/>
      <point x="36" y="600" type="line"/>
    </contour>
  </outline>
</glyph>
<glyph name="lamed-hb" format="2">
  <advance width="234"/>
  <unicode hex="05DC"/>
  <note>
lamedhebrew
</note>
  <anchor x="110" y="0" name="bottom"/>
  <anchor x="100" y="290" name="center"/>
  <anchor x="150" y="519" name="top"/>
  <anchor x="-9" y="547" name="topleft"/>
  <outline>
    <contour>
      <point x="214" y="600" type="line"/>
      <point x="20" y="600" type="line"/>
      <point x="20" y="547" type="line"/>
      <point x="214" y="547" type="line"/>
    </contour>
    <contour>
      <point x="20" y="659" type="line"/>
      <point x="20" y="547" type="line"/>
      <point x="74" y="547" type="line"/>
      <point x="74" y="659" type="line"/>
    </contour>
    <contour>
      <point x="56" y="0" type="line"/>
      <point x="110" y="0" type="line"/>
      <point x="204" y="219" type="line" smooth="yes"/>
      <point x="212" y="237"/>
      <point x="214" y="247"/>
      <point x="214" y="267" type="curve" smooth="yes"/>
      <point x="214" y="600" type="line"/>
      <point x="160" y="600" type="line"/>
      <point x="160" y="267" type="line" smooth="yes"/>
      <point x="160" y="248"/>
      <point x="158" y="238"/>
      <point x="150" y="219" type="curve" smooth="yes"/>
    </contour>
  </outline>
</glyph>
<glyph name="finalmem-hb" format="2">
  <advance width="295"/>
  <unicode hex="05DD"/>
  <note>
finalmemhebrew
</note>
  <outline>
    <contour>
      <point x="221" y="600" type="line"/>
      <point x="221" y="0" type="line"/>
      <point x="275" y="0" type="line"/>
      <point x="275" y="600" type="line"/>
    </contour>
    <contour>
      <point x="40" y="600" type="line"/>
      <point x="40" y="0" type="line"/>
      <point x="94" y="0" type="line"/>
      <point x="94" y="600" type="line"/>
    </contour>
    <contour>
      <point x="245" y="600" type="line"/>
      <point x="32" y="600" type="line"/>
      <point x="20" y="547" type="line"/>
      <point x="245" y="547" type="line"/>
    </contour>
    <contour>
      <point x="275" y="53" type="line"/>
      <point x="40" y="53" type="line"/>
      <point x="40" y="0" type="line"/>
      <point x="275" y="0" type="line"/>
    </contour>
  </outline>
</glyph>
<glyph name="mem-hb" format="2">
  <advance width="290"/>
  <unicode hex="05DE"/>
  <note>
memhebrew
</note>
  <anchor x="139" y="0" name="bottom"/>
  <anchor x="146" y="290" name="center"/>
  <anchor x="130" y="500" name="top"/>
  <anchor x="3" y="500" name="topleft"/>
  <outline>
    <contour>
      <point x="217" y="0" type="line"/>
      <point x="270" y="0" type="line"/>
      <point x="270" y="507" type="line" smooth="yes"/>
      <point x="270" y="561"/>
      <point x="230" y="600"/>
      <point x="169" y="600" type="curve" smooth="yes"/>
      <point x="126" y="600" type="line"/>
      <point x="78" y="547" type="line"/>
      <point x="187" y="547" type="line" smooth="yes"/>
      <point x="211" y="547"/>
      <point x="217" y="541"/>
      <point x="217" y="517" type="curve"/>
    </contour>
    <contour>
      <point x="155" y="0" type="line"/>
      <point x="270" y="0" type="line"/>
      <point x="270" y="53" type="line"/>
      <point x="155" y="53" type="line"/>
    </contour>
    <contour>
      <point x="43" y="0" type="line"/>
      <point x="97" y="0" type="line"/>
      <point x="97" y="600" type="line"/>
      <point x="43" y="600" type="line"/>
    </contour>
    <contour>
      <point x="15" y="547" type="line"/>
      <point x="97" y="547" type="line"/>
      <point x="97" y="600" type="line"/>
      <point x="27" y="600" type="line"/>
    </contour>
  </outline>
</glyph>
<glyph name="finalnun-hb" format="2">
  <advance width="116"/>
  <unicode hex="05DF"/>
  <note>
finalnunhebrew
</note>
  <outline>
    <contour>
      <point x="43" y="600" type="line"/>
      <point x="43" y="-80" type="line"/>
      <point x="96" y="-80" type="line"/>
      <point x="96" y="600" type="line"/>
    </contour>
    <contour>
      <point x="77" y="600" type="line"/>
      <point x="27" y="600" type="line"/>
      <point x="15" y="547" type="line"/>
      <point x="77" y="547" type="line"/>
    </contour>
  </outline>
</glyph>
